/* XPM */
static char *result[] = {
/* columns rows colors chars-per-pixel */
"50 50 168 2 ",
"   c #1F0C01",
".  c #1B0E09",
"X  c #1E120D",
"o  c #1F1611",
"O  c #210C02",
"+  c #210F09",
"@  c #221007",
"#  c #24130C",
"$  c #28160E",
"%  c #261711",
"&  c #281710",
"*  c #231A16",
"=  c #2A1913",
"-  c #231D19",
";  c #2A1E19",
":  c #301E19",
">  c #29211D",
",  c #34221C",
"<  c #2D2321",
"1  c #322522",
"2  c #3B2720",
"3  c #342926",
"4  c #3B2923",
"5  c #362A28",
"6  c #3B2E2B",
"7  c #3E312E",
"8  c #3E3231",
"9  c #432D27",
"0  c #412F2A",
"q  c #42312E",
"w  c #49352F",
"e  c #433534",
"r  c #493634",
"t  c #473835",
"y  c #4B3935",
"u  c #453A39",
"i  c #4C3E3C",
"p  c #523C35",
"a  c #553F3A",
"s  c #4E403D",
"d  c #54423C",
"f  c #5A443D",
"g  c #62493F",
"h  c #4A3F41",
"j  c #573F40",
"k  c #4E4747",
"l  c #544542",
"z  c #5C4640",
"x  c #574842",
"c  c #5D4A43",
"v  c #534C4B",
"b  c #5C4E4D",
"n  c #5C5554",
"m  c #644C44",
"M  c #6A4D44",
"N  c #644E4A",
"B  c #6B4C4B",
"V  c #655047",
"C  c #6B5047",
"Z  c #65524B",
"A  c #6B544C",
"S  c #70574D",
"D  c #71594F",
"F  c #655553",
"G  c #6B5652",
"H  c #6D5952",
"J  c #655959",
"K  c #6C5C5A",
"L  c #765757",
"P  c #735D55",
"I  c #735F58",
"U  c #7A5C5D",
"Y  c #7D575C",
"T  c #75615A",
"R  c #7A655D",
"E  c #7F5E60",
"W  c #6B6564",
"Q  c #7B6761",
"!  c #7E6B64",
"~  c #736668",
"^  c #766B6A",
"/  c #7C6B6B",
"(  c #716265",
")  c #7E6F73",
"_  c #777376",
"`  c #7B7575",
"'  c #7C7578",
"]  c #7E7A7C",
"[  c #816C65",
"{  c #826E6A",
"}  c #85716B",
"|  c #847373",
" . c #8B7476",
".. c #8C7975",
"X. c #817779",
"o. c #89777B",
"O. c #827A7B",
"+. c #8C7C7C",
"@. c #907E7B",
"#. c #8F807F",
"$. c #94817D",
"%. c #837F81",
"&. c #8D7B81",
"*. c #8B8286",
"=. c #858589",
"-. c #8E8689",
";. c #8C8B8E",
":. c #848286",
">. c #938385",
",. c #988787",
"<. c #938689",
"1. c #928A8B",
"2. c #8F8F92",
"3. c #938D91",
"4. c #9D8F92",
"5. c #8F9194",
"6. c #939195",
"7. c #9B9497",
"8. c #939699",
"9. c #9A9699",
"0. c #96999C",
"q. c #9B9B9E",
"w. c #A19A9D",
"e. c #969EA0",
"r. c #9C9EA1",
"t. c #A29FA2",
"y. c #9CA3A5",
"u. c #9EA6A9",
"i. c #9DA9AA",
"p. c #A3A3A5",
"a. c #A3A6A9",
"s. c #A8A5A8",
"d. c #A4ABAD",
"f. c #AAABAE",
"g. c #A8A2A4",
"h. c #B1ADAF",
"j. c #A5AEB0",
"k. c #ABAEB1",
"l. c #A6B2B5",
"z. c #AAB3B6",
"x. c #A6B7B9",
"c. c #ABB7B9",
"v. c #A6B8BB",
"b. c #AAB9BB",
"n. c #B2B3B5",
"m. c #B3B6B9",
"M. c #B9B5B8",
"N. c #B3BBBD",
"B. c #BAB9BB",
"V. c #BCB4B4",
"C. c #B5BFC1",
"Z. c #BBBEC0",
"A. c #C1BEC0",
"S. c #BCC3C5",
"D. c #C2C3C5",
"F. c #C3C6C9",
"G. c #C5CACC",
"H. c #CACCCE",
"J. c #CCCED0",
"K. c #CFD2D4",
"L. c #D3D5D7",
"P. c #D3D6D8",
"I. c #D6D9DA",
"U. c #DADCDD",
"Y. c #DEDFE1",
"T. c #E6E6E8",
"R. c #F3F4F5",
"E. c None",
/* pixels */
"E.E.E.E.E.E.E.E.E.E.E.E.E.E.E.E.E.E.E.i e &.t.t.a.m.j.c.Z.h v E.E.E.E.E.E.E.E.E.E.E.E.E.E.E.E.E.E.E.",
"E.E.E.E.E.E.E.E.E.E.E.E.E.E.E.1 ( ! &.7.w.r.r.r.j.y.C.x.v.2.b.c.a.y.5 n.E.E.E.E.E.E.E.E.E.E.E.E.E.E.",
"E.E.E.E.E.E.E.E.E.E.E.6 h <.| / N <.3.3.r.r.e.e.j.x.x.x.v.3.x.c.G.Z.F.I.U.-.n E.E.E.E.E.E.E.E.E.E.E.",
"E.E.E.E.E.E.E.E.E.E.5 o.&.&.{ &.^ &.3.w.2.r.e.e.z.u.c.c.b.3.c.c.c.U.D.L.U.U.p.W E.E.E.E.E.E.E.E.E.E.",
"E.E.E.E.E.E.E.E.J o.&.&.&.9._ %.) <.H.C.b.x.x.x.b.b.b.x.b.5.C.R.U.C.D.U.U.Y.a.P.D.f.E.E.E.E.E.E.E.E.",
"E.E.E.E.E.E.E.p E { &.&.&.M.Z.C.Z.c.C.x.x.x.C.x.x.b.b.b.b.k.x.x.b.x.x.G.R.M.2.J.D.G.x.n E.E.E.E.E.E.",
"E.E.E.E.E.W j d E X.&.P.S.C.i.e.Z.a.v.b.C.c.j.u.a.p.f.j.q.c.b.x.b.x.v.x.b.s.a.F.D.c.x.z.v E.E.E.E.E.",
"E.E.E.E.i L B a { Z.C.x.x.x.C.x.k.E J.k.x.x.x.x.H.3.x.x.x.x.l.l.y.z.x.x.H.3.k.i.G.G.c.a.q.v E.E.E.E.",
"E.E.E.E.p B B x C.b.x.x.v.C.e.8.b.x.S.r.v.b.v.x.J.0.x.b.v.b.x.x.x.F.z.5.;.z.j.q.c.x.G.j.e.<.' E.E.E.",
"E.E.E.> B [ t.A.k.j.j.u.=.x.x.x.b.v.u.^ e O O . O O O +   . J s.v.v.b.b.S.7.) b.x.x.x.G.e.:.o.E.E.E.",
"E.E.E.p f V.J.:.7.N.r.b.l.v.x.x.t.4   O O # O       O O O O O   = O.b.v.x.b.b.1.b.b.b.v.S.*.e.J E.E.",
"E.E., c B.x.c.x.*.3.x.x.C.c.'   O O   O             + O +   O O O O   b b.x.x.b.z.k.v.b.l.8.9.4.E.E.",
"E.E.r ] x.x.b.a.b.C.x.x.d.. O O O O O O O O O O O O + + 6 3 + + O O   O   *.z.f.J.G.&.p.v.v.S.=.6 E.",
"E.s q s.x.b.b.d.r.c.b.e     + % O O # O     # O O O +   % %     O $     O O # 7.x.v.A.d.v.v.C.e.W E.",
"E.> -.c.v.x.q.x.x.b.5 O       .     O O + ; j +   O     O     O       O   O O 2 b.u.N.t.x.C.C.S.] E.",
"v - o.x.x.b.u.x.v.u.+ O             O O     % O O O         O O O   O O     O + f.N.v.m.x.x.x.l.X.1 ",
"b 5 6.N.b.0.b.v.x.^ , O O O   O O   : 2       O O @       O O O . ; .   = O     7 C.x.x.r.x.C.x.g.U.",
"y 6 j.c.m. .b.b.x.t q   O @ 3 O       O @ O       @ O O   O O # < E 1 #   O     l C.C.x.l.c.x.x.1.r.",
"p 6 d.x.v.&.u.v.x.k q   O O O O             O = , n = O         + %       O     8 G.x.x.l.c.x.x.0.T.",
"j a l.x.v.^ a.3.r.e , O O O   O                   > O O   O                     K S.l.C.i.x.C.b.9.F.",
"^ _ ^ | 0.g.p.X.^ _ b O               O   @ O             O @                 . <.&.;.3.d.r.>.<.<.G.",
"n d.N.j.N.y.L.U.k.L.k O           O O O O @ O       O     @ O                 . j.C.C.C.m.C.j.C.m.R.",
"W x.u.F.d.6.a.r.&.x.k O     $ O     O   O O                                   . d.t.b.d.t.r.b.b.H.n.",
"3.F.t.j.y.x.c.c.x.a.h O     O     O           O   @               %           . x.x.7.2.b.G.j.c.u.B.",
"] y.s.S.N.l.z.x.x.x.u O O O                 $ O O     @ @   O                   c.1.p.0.b.x.z.8.z.B.",
"1.S.f.x.b.0.x.c.8.8.5 O                 O   O O           O O O O               c.d.U.y.z.=.d.d.z.f.",
";.=.r.y.2.=._ -.c.z.u O O       O       O   O O O           O           O     . c.f.c.f.f.c.u.z.x.a.",
"b z.m.H.L.Z.Z.N.m.h.9 O     O =           @ % @ O O       $ @                   f.m.B.z.m.L.K.L.K.1.",
"E.t i f y y d p y q   O O       O           O             O               O   O $ r d w r f t r f E.",
"E.c d > r 7 s q 1 d O O O O O O               O   @                   O       O = l - Z x * f s 3 E.",
"E.P d 7 f q d f 1 N O O O O                           O       O                 : g - R m > P a t E.",
"E.Q d 7 m q x f > G O O O         O     @ @                       O         O O , N > R M > T f t E.",
"E.R d 6 V 7 f f > H O O O O O O     O   O O O                             O   O : M ; Q N < T a u E.",
"E.R a q m q z f < G O   O O O O   O                         O       O         O : m ; R N > R a u E.",
"E.R a q N e z f < G t < - -   O O O O O         O $ O O                     O O , m ; Q N < T a u E.",
"E.R a 9 V 0 f x < G y r r e - - - * . . O   o * X # O O O O O O             O O 4 g - +.g < R a u E.",
"E.R a 9 V e a d < G e 0 0 r a 5 > % - . % .     O O         @ O             O O , g * +.g < / d u E.",
"E.@.a 0 F 6 f l < G p e 7 r 6 u r u o - o - * * % .     O O   O O O       O O O 5 g * $.M , &.a u E.",
"E.$.f q F 7 f z < G [ F 6 a 0 6 y r k > - - - - ; * X $ X   O O O O O         O 5 g - +.m < +.f u E.",
"E.R a q J q f d < F Q T / [ R z 0 6 w 8 u 3 - * - - X * * < o X + O O         O 1 g > | g 1 &.a u E.",
"E.R a 9 G 7 f f < J Q Q ! ! ! R R d w i 9 m e ; 6 3 o o o $ - - - - > .     @   , V - #.m 1 ..f u E.",
"w R a 9 F w f f 3 K / 8 F c } ! R [ [ G d e y t e 8 - - o - > o * - o o - o > > ; m > } g > P a u Z ",
"5 T f 9 b q f p < G Z 6 ! ! T D T T H [ Q ! d r p p i ; > * ; # o o - > - - - X 4 m > R m < T d u Z ",
"a R d 0 c q d y 3 K T e ! [ / ,.T R ! [ [ Q ! ! Q G y r e < - * - - - o - - - 5 5 c > R c , T p u G ",
"e T e 6 c w d d 5 H ! s } ! T [ [ ! R [ +.| Z ! ! ! ! R Z e d - o * - - - - - u e i 5 S w , P w e H ",
"c c P y T S d R S d A V [ P ! ! ! ! | R Z [ ! ! ! ! ! N ! ! y t > * - - o - - H w Q Z f P x V H i S ",
"/ / R { ! G ! [ H ! R c ! ! P [ Q H Q Q Q } Q [ ! ! ..R ! ! ! d ! H s - > - > s c [ S ! [ H T / $...",
"H c A A V M m T d C g r [ ! [ P P [ [ P P T T Q H G x Q Q T A ! ! ! ! b 3 - o 6 f f y C A d V V g g ",
"T f A { N P f a p f , S H S T R P Q T c T T R A R S c [ ! P ! ! V R ! ! H c R s D f f d p f ..R A C ",
"g m S H f m g D f A A ! ! ! ! ! P ! ! C [ ! [ ! ..P ! ! ! ! c Q ! ! D T ! R ! ! f C S V g C g f g g "
};
