/* XPM */
static char *_649144993390[] = {
/* columns rows colors chars-per-pixel */
"50 50 46 1 ",
"  c #76221F",
". c #7D251F",
"X c #561426",
"o c #591525",
"O c #5F1925",
"+ c #601723",
"@ c #641B24",
"# c #6B1E23",
"$ c #611C28",
"% c #701F20",
"& c #6E2124",
"* c #742323",
"= c #7B2621",
"- c #772827",
"; c #7D2924",
": c #702428",
"> c #742829",
", c #7A2C29",
"< c #81271E",
"1 c #84291E",
"2 c #8C2D1D",
"3 c #922F1B",
"4 c #8E301F",
"5 c #95311C",
"6 c #9B341A",
"7 c #9E391F",
"8 c #A13619",
"9 c #A33A1C",
"0 c #A83B1A",
"q c #832C23",
"w c #892E21",
"e c #863126",
"r c #8C3223",
"t c #863228",
"y c #8C3528",
"u c #923523",
"i c #993720",
"p c #953925",
"a c #9C3A22",
"s c #913929",
"d c #9A3E28",
"f c #A33D20",
"g c #A8401F",
"h c #9F4127",
"j c #A64122",
"k c #AA4221",
/* pixels */
"dyqe;&tsr*##+@qsuq.<wq*$$ydppdu:o$qdpsdddy@X@-quq-",
"a7u5rqua521<=;uiiu2253w**ua6aaaq*-sfaa799a*&qw6uuw",
"66866u796686iu908888866ww79888054ra0888886qq678888",
"6533q;562122ww676866663.*5666632<*26663232 %123666",
"5uwq;-q1==;.*%=111w22u4;%=1w3uwq-*w511qq1q:&=qqq12",
"uureeq-:&;e-#+@@#@%=ruyw,##;upsweeue#&;eeqt,qeq;:*",
"a76i77w==57u2<=;.%.37aafiqquafaaaaa6qqpffa76aair1=",
"8808802q260066541.2888808ww6808880072ua9008900052<",
"666663<.26666565<.266666611266636666115666866862q;",
"q113uw #.<1<145q;=q531<<=%*ww5u32q1q=;qq2<<..<<%*-",
"=-;rue-*.. #-ryrqeeuw=*%##-ruuuuuq*:;qqq.%*#@%%%-q",
"wrsff875632%;a98a8ffi321<=u98af9a5==afai21qq* 1256",
"3uu90898663*q69990088886w130980866.*60996afu*13696",
"<<q53666532:=25666666665wq36636655. 23667995=13666",
"##:;<<<q;q*@&qw1<. .1<=#@@ <===qq;&#% .1..1q&&*;14",
",q;eq.#*eee;qyrq*&*==.*%## qq-qwprre= ..=*;qq;qqrr",
"j99972&*pg99g9ae*>,4221221232eyfg9kj5222q,ya8a7i77",
"999966.;79969766iru8866886865359080966686y60888866",
"555565=*455222566qqu6666666621;363636555rq25565653",
"11121 @&.42 # 14q#O#.1.<121q*@+ <<2rwq.*&@#*q2241.",
" .;re*;ypape*&rapq;* . *;ruue;&**-rauyr=*#@*euupw;",
"21q7rqpjga77q;pjjfi221<=-p99762<=;uf9f6322*=yaa7pr",
"88885u9866667pg989886863168686685w689688883258888f",
"36632;7522334e566336665<.46656651*15555222<.1256aa",
"3u3rq&.<  ..*:.11444444 &.12454q=@*1.12;q=**=.<111",
"adpdr=##& % %&..;;epppprq#&;pdppyq=#O&euureeq*%#@@",
"jfaf75=;r2221225er777779u *qa977a73<*;uaaa7a551= #",
"0888882r98668886479887888112606888883r768888896u2<",
"666553.=57566521 *1665562  155555663 *.36363665q*%",
".1155q;-q21<142;**.4211. &*q555421. **;r35u311qq-&",
"#&-upueer; @*rsyeee    #@&;ppppr;#@&esupppdw:*;seq",
"1qya97a8752.eaf9a77422421ep9777751=efjfa7a8iwudfai",
"34578888686q267898866865247886886327909889862u8008",
". .36666232**2225566665.%%1555632<=.55566662*=2655",
"-:=ru1.=.qq***@ ..qr24q;&&q4q;.qq-:-e441..1;:-qwr2",
"teeprq%%qeeeq*## &*r7reeeerrq*-er,;qrpr. #;reryery",
"kf8f87qwif99a6332=qf879777997qr7979899952qpjg9g779",
"009896wqa99988865.q69080098854u6098897665ra9098766",
"556653.=266666666= .265553332114655655552e5523652.",
"r41wq &*qpdu=*w4r*@O# ...qqqq--;1.1r5rw;-:##=r54;&",
"puruq-qrrdap;:wipr;&   **yp5ryre;*eadpuyrq@@epape,",
"8faauwdff8a6weff9075322.;akg99g9rqagjf89j7;-dkk999",
"99983w609886uuf988866662;78089885;5009000822799988",
"33362=233663ww233356665.&1355532<*13333222.;r32345",
"wqq1-%*qqw4w;::% 1qrrw-&@*..<..&@@*q... **&&*;q=. ",
"iuqruwq,quapprq-#;uaaar; &*=....=rrq@&*.1qeyrpuq;*",
"8aidafrqwaf8fffe:rd99j862**q22227984&*;25799997r..",
"9886894ui98889far57886696427686666962228666768652.",
"366633q*23636332*12663363.=366675563  =36555563< #",
"322332#@%23233.#+%133222.@%<23322331+o@<2333332 +o"
};
