/* XPM */
static char *_974fe704ee14844ca138fb992202cefPmUbegJo4FlgnGoF[] = {
/* columns rows colors chars-per-pixel */
"50 50 131 2 ",
"   c None",
".  c #EE7D01",
"X  c #EE7E08",
"o  c #F57D03",
"O  c #F97C03",
"+  c #F1750B",
"@  c #F37C0A",
"#  c #EE8304",
"$  c #EF8807",
"%  c #EE8409",
"&  c #EF8D0B",
"*  c #F38205",
"=  c #F38309",
"-  c #F38C0A",
";  c #F2910D",
":  c #EB9613",
">  c #F39411",
",  c #F49C14",
"<  c #F4A417",
"1  c #F6A519",
"2  c #F8A718",
"3  c #F6A91B",
"4  c #F8A91B",
"5  c #E2832D",
"6  c #EA8930",
"7  c #F6AE22",
"8  c #FAB523",
"9  c #FABB24",
"0  c #FBBC2B",
"q  c #FBC226",
"w  c #FEC927",
"e  c #FFC927",
"r  c #FFC827",
"t  c #FECB27",
"y  c #FEC926",
"u  c #FECA26",
"i  c #F7C52B",
"p  c #FDC328",
"a  c #FDC02B",
"s  c #FFC529",
"d  c #FEC729",
"f  c #FEC52B",
"g  c #FDC72D",
"h  c #FEC62D",
"j  c #FDC62B",
"k  c #F9C929",
"l  c #F9C92B",
"z  c #FBC92B",
"x  c #F9CA2A",
"c  c #FACB2A",
"v  c #FDC929",
"b  c #FFC928",
"n  c #FFC829",
"m  c #FEC929",
"M  c #FFC929",
"N  c #FDCA28",
"B  c #FDCB28",
"V  c #FCCA29",
"C  c #FDCB29",
"Z  c #FECA28",
"A  c #FFCA28",
"S  c #FECA29",
"D  c #FFCA29",
"F  c #FEC92B",
"G  c #FDCA2B",
"H  c #FFCA2A",
"J  c #FECB2A",
"K  c #FECB2B",
"L  c #FBCB2C",
"P  c #FACB2E",
"I  c #FEC92C",
"U  c #FECA2C",
"Y  c #FFCA2D",
"T  c #FFC82E",
"R  c #FCCB2E",
"E  c #FBCD2D",
"W  c #FACC2E",
"Q  c #FDCC2C",
"!  c #FCCD2D",
"~  c #FCCC2F",
"^  c #FCCA2B",
"/  c #F8D02F",
"(  c #F3C131",
")  c #FCCF32",
"_  c #F9CE34",
"`  c #F9CD34",
"'  c #F9D035",
"]  c #F8D437",
"[  c #F9D139",
"{  c #FBD038",
"}  c #FAD238",
"|  c #FAD13A",
" . c #FBD63E",
".. c #FCD73F",
"X. c #FAD13A",
"o. c #F7D743",
"O. c #FAD544",
"+. c #FAD843",
"@. c #FBDC4C",
"#. c #FADC4D",
"$. c #FBDE50",
"%. c #FAE14C",
"&. c #FDE352",
"*. c #FCE353",
"=. c #FCE155",
"-. c #FBE35B",
";. c #FCE35A",
":. c #FBE55E",
">. c #FBE75E",
",. c #FBE45C",
"<. c #FDE85C",
"1. c #FDEA66",
"2. c #FDE964",
"3. c #FDED6A",
"4. c #FEED6D",
"5. c #FDEE6F",
"6. c #FDEE6D",
"7. c #FDF06A",
"8. c #FEF26C",
"9. c #FDF16E",
"0. c #FEEF71",
"q. c #FEEF73",
"w. c #FEEF73",
"e. c #FFED78",
"r. c #FEF072",
"t. c #FEF073",
"y. c #FEF173",
"u. c #FEF074",
"i. c #FEF174",
"p. c #FEF076",
"a. c #FEF074",
/* pixels */
"                                                                                                    ",
"                                                                                                    ",
"                                                                                                    ",
"                                                                                                    ",
"                                                                                                    ",
"                                                                                                    ",
"                                                                                                    ",
"                                                                                                    ",
"                                                                                                    ",
"                                                                                                    ",
"                                                                                                    ",
"                                                                                                    ",
"                                                                                                    ",
"                                                @ @ @                                               ",
"                                                o o @                                               ",
"                                              X o o o o                                             ",
"                                            @ O o o o o @   6                                       ",
"                                      5   @ o o o o o o o                                           ",
"                                          @ o o < , O o o                                           ",
"                                        o o o ; q 9 * o o                                           ",
"                                      @ O @ @ 8 r S < o o                                           ",
"                                @     O o = > S u S q * o +   +                                     ",
"                              @ O o @ O ; ; 3 S S u u 2 o @ O @                                     ",
"                            @ o o o o * 8 ; 9 S u u u q ; O o O @                                   ",
"                            @ o o o o - 0 > f u S W S S 2 o * o o                                   ",
"                            o o o o o , 8 , S k ) &.k S 9 . > o o @ @                               ",
"                          = O o o o % 2 3 2 S Y ;.7.k u f . , @ O o @                               ",
"                          @ O o O - < 3 & 8 S o.0.8.k S h * 1 * o O * O                             ",
"                          o O o o 2 9 $ $ q W 0.p.y.k S Y # 3 * - * O *                             ",
"                          O @ o o 8 y < : W  .w.p.5.k ~ Y = 2 # 3 > @ @                             ",
"                          O > = * Y u q ( ' @.p.p.1.W } S $ ; & Y 3 @ @                             ",
"                          O q 2 > W S S &.' :.y.y.:._  .L , ; 9 t 8 o =                             ",
"                          @ r q q S S L :.} 3.p.y.-.}  .L 9 9 u u 8 * o                             ",
"                          % f u t W ~ S #.O.8.y.y.=._ _ S f f u S 9 * *                             ",
"                            9 S u ' $.) Y *.i.p.w.-.f W %.S u u u 8 o                               ",
"                            1 k S X.0.$./ 2.i.p.w.5.o.<.8.k u u u 2 *                               ",
"                              h u | 5.0.-.9.p.p.p.p.y.y.0.S u S h >                                 ",
"                              7 g ) 2.e.y.p.y.y.y.p.y.p.w.k u u 2                                   ",
"                                l q $.w.0.y.p.y.y.0.p.p.w.O.S 9 -                                   ",
"                                  l ` =.y.0.y.p.p.y.y.w.y.X.9 ;                                     ",
"                                      _ #.8.9.e.e.8.8.3.O.                                          ",
"                                              y.p.y.:.                                              ",
"                                                                                                    ",
"                                                                                                    ",
"                                                                                                    ",
"                                                                                                    ",
"                                                                                                    ",
"                                                                                                    ",
"                                                                                                    ",
"                                                                                                    "
};
