/* XPM */
static char *d27b808f5a844679c06abf9c2d7beff54Z4Zy5nxtVNCzoZZ[] = {
/* columns rows colors chars-per-pixel */
"50 50 135 2 ",
"   c None",
".  c #EF7C0A",
"X  c #F57D04",
"o  c #F87C03",
"O  c #F1760C",
"+  c #F37C09",
"@  c #F87C08",
"#  c #EF8A07",
"$  c #EF8C0B",
"%  c #F38306",
"&  c #F38807",
"*  c #F48509",
"=  c #F28B0B",
"-  c #EF930E",
";  c #F3930E",
":  c #ED9512",
">  c #F49511",
",  c #F49C14",
"<  c #F99B16",
"1  c #F29E1A",
"2  c #F5A216",
"3  c #F8A216",
"4  c #F6A419",
"5  c #F6A91E",
"6  c #F7AD1D",
"7  c #F6AB1B",
"8  c #F9AF1D",
"9  c #F8AC1D",
"0  c #F8B21D",
"q  c #FAB31F",
"w  c #FAB31F",
"e  c #E48321",
"r  c #E38225",
"t  c #E8852C",
"y  c #F6AF21",
"u  c #F9AF22",
"i  c #F5B322",
"p  c #F9B220",
"a  c #FAB420",
"s  c #FBB724",
"d  c #FAB623",
"f  c #F5B923",
"g  c #F9B920",
"h  c #F9B823",
"j  c #FBB822",
"k  c #FAB923",
"l  c #FBBE23",
"z  c #FCBE23",
"x  c #FAB824",
"c  c #FBBA26",
"v  c #FCB924",
"b  c #FDBE25",
"n  c #FBBC24",
"m  c #F8B92A",
"M  c #FCC024",
"N  c #FCC327",
"B  c #FDC427",
"V  c #FEC427",
"C  c #FDC627",
"Z  c #FFC727",
"A  c #FDC326",
"S  c #FCC927",
"D  c #FDC927",
"F  c #FFC827",
"G  c #FFC927",
"H  c #FDCB26",
"J  c #FECA26",
"K  c #FECA27",
"L  c #FFCA27",
"P  c #FECB27",
"I  c #FECA26",
"U  c #F6C22B",
"Y  c #FEC429",
"T  c #FEC728",
"R  c #FEC72A",
"E  c #FFC72B",
"W  c #FBC52A",
"Q  c #FBCA2B",
"!  c #FCC928",
"~  c #FDC928",
"^  c #FEC828",
"/  c #FFC928",
"(  c #FEC829",
")  c #FFC829",
"_  c #FEC929",
"`  c #FFC929",
"'  c #FDCA28",
"]  c #FDCB28",
"[  c #FECA28",
"{  c #FFCA28",
"}  c #FFCB28",
"|  c #FEC92A",
" . c #FEC92B",
".. c #FDCB2D",
"X. c #FBCC2C",
"o. c #FCCD2D",
"O. c #FDCA2A",
"+. c #F7CC34",
"@. c #FACE30",
"#. c #FACE31",
"$. c #FCCC31",
"%. c #FBCD32",
"&. c #F7CB38",
"*. c #FCCF3D",
"=. c #FAD135",
"-. c #FAD237",
";. c #FAD136",
":. c #FAD338",
">. c #FCD23C",
",. c #FCD63E",
"<. c #FBD33B",
"1. c #F8D746",
"2. c #FBD542",
"3. c #FCDC47",
"4. c #FBD944",
"5. c #FBDC4B",
"6. c #FDDF54",
"7. c #FBDE52",
"8. c #FCE04D",
"9. c #FCE254",
"0. c #FCE557",
"q. c #FCE155",
"w. c #FCE55B",
"e. c #FCE85D",
"r. c #FCE85F",
"t. c #FDE761",
"y. c #FDEA66",
"u. c #FCE968",
"i. c #FDED69",
"p. c #FEED6C",
"a. c #FDF06E",
"s. c #FEEF73",
"d. c #FEF173",
"f. c #FEF074",
"g. c #FDF178",
/* pixels */
"                                                                                                    ",
"                                                                                                    ",
"                                                                                                    ",
"                                                + .                                                 ",
"                                              % X X +                                               ",
"                                              + X X + .                                             ",
"                                            + X X o X X                                             ",
"                                            X X X X X X X                                           ",
"                                  r       + o X X o X X X       t                                   ",
"                                        X X o X X X X X X X     r                                   ",
"                                      + + X X % = = X X X X                                         ",
"                                    + X X X % , 7 2 % X X X +                                       ",
"                                    @ X X o = a / q & X X X X                                       ",
"                                  * o X X % 7 z L q 2 + X X X                                       ",
"                          +       + X X X $ b C L C x = X X X     O                                 ",
"                        + +     + o * * = 4 C / L L V 2 % X +   X O +                               ",
"                      + X X X X @ o ; ; - x / ] L L L h ; % + + X X +                               ",
"                      X o o X X + % 2 , ; Y / / L L S L 4 = + X X X .                               ",
"                    + X X X X X X ; 7 , , Y Q / L S H ] q > X o X % X .                             ",
"                    X X X X X X % 4 4 , 2 Y S L X.=.X.L I 3 % % % X X X                             ",
"                  X X X X X X X % 8 7 , 7 L Q Q ,.3.@.L L 7 = % = % @ + + +                         ",
"                  + X X X X X % * j 2 2 0 L / >.9.0.-.] L w > * > * o X X + X                       ",
"                % X X X X o * = & x , 2 l / $.6.i.e.-.] / s , = , * X X . X %                       ",
"                + X X X o X < 5 > u $ 4 Q Q 1.u.d.e.<.] Y v , = 3 % X X % X o                       ",
"                X o o o o + 3 s , # $ 5 X.@.t.s.f.y.:.Q / b 4 = 2 = X X X X X %                     ",
"                o o o o o % 7 C 6 # : i X.,.p.f.f.t.:...Q v 4 = 2 = = > % X o +                     ",
"                % % % + X ; 0 ] N , i U %.5.p.f.f.e.%.;.X.n 4 = , = 1 6 ; + + %                     ",
"                @ * ; * X , q ] Q 0 &.%.-.y.d.f.d.e.@.4.%.N 4 & ; 1 a n 3 % % +                     ",
"                @ > 4 > % 9 N ] ] Q 4.,.>.u.f.f.a.w.+.5.%.W 5 & = 0 C N 7 % % @                     ",
"                @ < s j , x Q ..] -.4.2.4.p.d.f.a.0.&.8.:.W f $ 0 M L V w % X %                     ",
"                X , M A 0 Q ] ] / >.4.2.5.s.f.f.a.0.&.5.:.Q W x M I A V w % X %                     ",
"                % 2 M L ] ] $.@.X.:.<.2.6.f.s.s.u.0.+.>.@.Q Q Y L I I V w & X                       ",
"                  4 x / L H :.4.%.@.+.2.t.f.f.f.p.7.W X.@.=...L L I L M w & X                       ",
"                  1 i Q L S 4.e.5.X./ 5.p.f.f.f.s.0.+.Q 4.5.,.L I I ] M 7 % %                       ",
"                    y / L / 4.u.y.4.:.5.d.d.f.f.s.u.7.0.i.e.,.L L ] ] q , *                         ",
"                    u W / Y 4.u.s.y.w.u.d.d.f.s.f.s.u.p.p.y.4.A L ] ] z =                           ",
"                      m Y Q 2.t.s.s.s.s.f.f.f.g.f.f.f.s.f.y.2.L S L V 9 %                           ",
"                        W Q ;.6.s.s.s.s.g.f.f.s.f.f.f.f.s.u.5./ S S q ,                             ",
"                        f W X.2.u.s.s.f.f.f.f.f.s.f.f.f.s.p.w.+.Q j 3                               ",
"                            X.@.5.i.s.f.f.f.f.f.f.f.f.s.f.s.0.$.n 2                                 ",
"                              X.%.7.y.p.d.d.f.s.d.a.d.d.s.6.*.s 4                                   ",
"                                  >.q.y.a.a.g.g.f.d.p.d.t.1.m                                       ",
"                                          i.d.f.f.d.u.                                              ",
"                                                                                                    ",
"                                                                                                    ",
"                                                                                                    ",
"                                                                                                    ",
"                                                                                                    ",
"                                                                                                    ",
"                                                                                                    "
};
