/* XPM */
static char *result[] = {
/* columns rows colors chars-per-pixel */
"50 50 103 2 ",
"   c #5D3209",
".  c #662C12",
"X  c #772D1F",
"o  c #643311",
"O  c #6A3315",
"+  c #693B15",
"@  c #7C3C27",
"#  c #72431B",
"$  c #744321",
"%  c #784723",
"&  c #7B4B25",
"*  c #86302B",
"=  c #8D3132",
"-  c #983E31",
";  c #87521F",
":  c #935A1B",
">  c #9C621E",
",  c #824428",
"<  c #8A422D",
"1  c #904F2E",
"2  c #835227",
"3  c #84532A",
"4  c #88572B",
"5  c #8C5B2E",
"6  c #905F2F",
"7  c #914631",
"8  c #934C30",
"9  c #8D5C31",
"0  c #8B5C3A",
"q  c #905F33",
"w  c #905F39",
"e  c #946332",
"r  c #986735",
"t  c #9A6937",
"y  c #94643A",
"u  c #9A6739",
"i  c #9C6B3B",
"p  c #A16722",
"a  c #A46B25",
"s  c #A06F3E",
"d  c #A1703E",
"f  c #B27933",
"g  c #B75D4C",
"h  c #996742",
"j  c #9C6B40",
"k  c #A06F40",
"l  c #A47342",
"z  c #A87745",
"x  c #A97847",
"c  c #A57449",
"v  c #A87748",
"b  c #AC7B4A",
"n  c #B17B40",
"m  c #B07F4D",
"M  c #AE6E53",
"N  c #B86E53",
"B  c #AC7B52",
"V  c #BD833A",
"C  c #C0873E",
"Z  c #BA8241",
"A  c #B1804F",
"S  c #AC805C",
"D  c #B48352",
"F  c #B88757",
"G  c #B98857",
"H  c #B6855A",
"J  c #B8875C",
"K  c #BD8B5C",
"L  c #B88762",
"P  c #B68A62",
"I  c #BD8C61",
"U  c #CA934C",
"Y  c #C4915F",
"T  c #C08F62",
"R  c #C39263",
"E  c #CA9764",
"W  c #C6946B",
"Q  c #C89768",
"!  c #CA996D",
"~  c #C49372",
"^  c #CD9C74",
"/  c #D09F7A",
"(  c #CEA278",
")  c #D2A175",
"_  c #D3A17C",
"`  c #D6A581",
"'  c #D8A784",
"]  c #DBA985",
"[  c #DDAC8A",
"{  c #E0AF8F",
"}  c #E3B28E",
"|  c #E4B392",
" . c #E8B795",
".. c #EAB897",
"X. c #ECBB99",
"o. c #EBC39D",
"O. c #F2C09F",
"+. c #F4C3A2",
"@. c #F9C8A7",
"#. c #F8CDAC",
"$. c #FBD5B4",
"%. c #FFDBBB",
"&. c None",
/* pixels */
"&.&.&.&.&.&.&.&.&.&.&.&.&.&.&.&.&.&.&.&.&.&.&.&.&.&.&.&.&.&.&.&.&.&.&.&.&.&.&.&.&.&.&.&.&.&.&.&.&.&.",
"&.&.&.&.&.&.&.&.&.&.&.&.&.&.&.&.&.&.&.&.&.&.&.&.a C V &.&.&.&.&.&.&.&.&.&.&.&.&.&.&.&.&.&.&.&.&.&.&.",
"&.&.&.&.&.&.&.&.&.&.&.&.&.&.&.&.&.&.&.&.&.&.&.p C f n Z &.&.&.&.&.&.&.&.&.&.&.&.&.&.&.&.&.&.&.&.&.&.",
"&.&.&.&.&.&.&.&.&.&.&.&.&.&.&.&.&.&.&.&.&.&.&.> f U o.&.&.&.&.&.&.&.&.&.&.&.&.&.&.&.&.&.&.&.&.&.&.&.",
"&.&.&.&.&.&.&.&.&.&.&.&.&.&.&.&.&.&.&.&.&.&.&.: Y Q P L &.&.&.&.&.&.&.&.&.&.&.&.&.&.&.&.&.&.&.&.&.&.",
"&.&.&.&.&.&.&.&.&.&.&.&.&.&.&.&.&.&.&.&.&.&.&.; h c ( L &.&.&.&.&.&.&.&.&.&.&.&.&.&.&.&.&.&.&.&.&.&.",
"&.&.&.&.&.&.&.&.&.&.&.&.&.&.&.&.&.&.&.&.&.& 2 q 5 9 D b &.&.&.&.&.&.&.&.&.&.&.&.&.&.&.&.&.&.&.&.&.&.",
"&.&.&.&.&.&.&.&.&.&.&.&.&.&.&.&.&.&.&.&.& i T ! ! k i &.&.&.&.&.&.&.&.&.&.&.&.&.&.&.&.&.&.&.&.&.&.&.",
"&.&.&.&.&.&.&.&.&.&.&.&.&.&.&.&.&.&.&.% u K | #.$.| D T &.&.&.&.&.&.&.&.&.&.&.&.&.&.&.&.&.&.&.&.&.&.",
"&.&.&.&.&.&.&.&.&.&.&.&.&.&.&.&.&.&.&.% s R | +.$.} b T | &.&.&.&.&.&.&.&.&.&.&.&.&.&.&.&.&.&.&.&.&.",
"&.&.&.&.&.&.&.&.&.&.&.&.&.&.&.&.&.&.&.% t D ! ( ) H 5 H ..] &.&.&.&.&.&.&.&.&.&.&.&.&.&.&.&.&.&.&.&.",
"&.&.&.&.&.&.&.&.&.&.&.&.&.&.&.&.&.&.% e i l b b x u % y /  .^ &.&.&.&.&.&.&.&.&.&.&.&.&.&.&.&.&.&.&.",
"&.&.&.&.&.&.&.&.&.&.&.&.&.&.&.&.&.% e b x t I ^ A 2 o $ k / R &.&.&.&.&.&.&.&.&.&.&.&.&.&.&.&.&.&.&.",
"&.&.&.&.&.&.&.&.&.&.&.&.&.&.&.&.&.% k G z D ' X.K 2 # 0 3 s t &.&.&.&.&.&.&.&.&.&.&.&.&.&.&.&.&.&.&.",
"&.&.&.&.&.&.&.&.&.&.&.&.&.&.&.&.&.4 x K b R [  .D 5 d ^ c m &.&.&.&.&.&.&.&.&.&.&.&.&.&.&.&.&.&.&.&.",
"&.&.&.&.&.&.&.&.&.&.&.&.&.&.&.&.$ e x G b K ' ` j 5 G H z D &.&.&.&.&.&.&.&.&.&.&.&.&.&.&.&.&.&.&.&.",
"&.&.&.&.&.&.&.&.&.&.&.&.&.&.&.&.$ i D K s z T H 4 i ( I l l &.&.&.&.&.&.&.&.&.&.&.&.&.&.&.&.&.&.&.&.",
"&.&.&.&.&.&.&.&.&.&.&.&.&.&.&.&.$ t G F l v H w & s D D A i &.&.&.&.&.&.&.&.&.&.&.&.&.&.&.&.&.&.&.&.",
"&.&.&.&.&.&.&.&.&.&.&.&.&.&.&.&.$ 5 d D R / .. .B t x d x 9 &.&.&.&.&.&.&.&.&.&.&.&.&.&.&.&.&.&.&.&.",
"&.&.&.&.&.&.&.&.&.&.&.&.&.&.&.&.$ % l A W W ! ] [ I A l x &.&.&.&.&.&.&.&.&.&.&.&.&.&.&.&.&.&.&.&.&.",
"&.&.&.&.&.&.&.&.&.&.&.&.&.&.&.&.&.  e b m R ! W ^ ~ _ R b &.&.&.&.&.&.&.&.&.&.&.&.&.&.&.&.&.&.&.&.&.",
"&.&.&.&.&.&.&.&.&.&.&.&.&.&.&.&.&.&.+ 2 6 r v K ^ / ....} X.%.&.&.&.&.&.&.&.&.&.&.&.&.&.&.&.&.&.&.&.",
"&.&.&.&.&.&.&.&.&.&.&.&.&.&.&.&.&.&.&.. O + 3 q D W /  .@.@.$.S &.&.&.&.&.&.&.&.&.&.&.&.&.&.&.&.&.&.",
"&.&.&.&.&.&.&.&.&.&.&.&.&.&.&.&.&.&.&.= * X o o # % j I X.+.o.j &.&.&.&.&.&.&.&.&.&.&.&.&.&.&.&.&.&.",
"&.&.&.&.&.&.&.&.&.&.&.&.&.&.&.&.&.&.&.= = < < 7 8 & , 9 c B B % &.&.&.&.&.&.&.&.&.&.&.&.&.&.&.&.&.&.",
"&.&.&.&.&.&.&.&.&.&.&.&.&.&.&.&.&.&.&.@ & 6 e i R _ N - 7 2 l &.&.&.&.&.&.&.&.&.&.&.&.&.&.&.&.&.&.&.",
"&.&.&.&.&.&.&.&.&.&.&.&.&.&.&.&.&.&.&.% q i e l !  .| g 1 d R ! &.&.&.&.&.&.&.&.&.&.&.&.&.&.&.&.&.&.",
"&.&.&.&.&.&.&.&.&.&.&.&.&.&.&.&.&.&.&.% u d e d ^ O.+.M u D ^ ] ! &.&.&.&.&.&.&.&.&.&.&.&.&.&.&.&.&.",
"&.&.&.&.&.&.&.&.&.&.&.&.&.&.&.&.&.&.&.4 t l t x ) O.} h u b ! | ` &.&.&.&.&.&.&.&.&.&.&.&.&.&.&.&.&.",
"&.&.&.&.&.&.&.&.&.&.&.&.&.&.&.&.&.&.&.5 t l t G [ +._ 4 v b R [ [ ^ &.&.&.&.&.&.&.&.&.&.&.&.&.&.&.&.",
"&.&.&.&.&.&.&.&.&.&.&.&.&.&.&.&.&.&.2 e t t t G | +.~ 9 K D K [ | / &.&.&.&.&.&.&.&.&.&.&.&.&.&.&.&.",
"&.&.&.&.&.&.&.&.&.&.&.&.&.&.&.&.&.&.2 e t t l K ....J r F D D ^ [ ^ &.&.&.&.&.&.&.&.&.&.&.&.&.&.&.&.",
"&.&.&.&.&.&.&.&.&.&.&.&.&.&.&.&.&.&.2 e r t l K { ` w 5 i b D Q ) T A &.&.&.&.&.&.&.&.&.&.&.&.&.&.&.",
"&.&.&.&.&.&.&.&.&.&.&.&.&.&.&.&.&.&.$ 5 e d I T K v &.$ 5 t b R K b z &.&.&.&.&.&.&.&.&.&.&.&.&.&.&.",
"&.&.&.&.&.&.&.&.&.&.&.&.&.&.&.&.% 5 5 6 i K ] | L &.&.&.3 6 s A b G ~ &.&.&.&.&.&.&.&.&.&.&.&.&.&.&.",
"&.&.&.&.&.&.&.&.&.&.&.&.&.&.&.3 r z x i x R ' | ^ &.&.&.&.% 5 i x ~ _ D &.&.&.&.&.&.&.&.&.&.&.&.&.&.",
"&.&.&.&.&.&.&.&.&.&.&.&.&.&.2 i b D D s z G ! K l &.&.&.&.&.6 e d K Y x &.&.&.&.&.&.&.&.&.&.&.&.&.&.",
"&.&.&.&.&.&.&.&.&.&.&.&.&.&.5 l D D x t t z x s &.&.&.&.&.i x x t z x r &.&.&.&.&.&.&.&.&.&.&.&.&.&.",
"&.&.&.&.&.&.&.&.&.&.&.&.&.& i x A x i z e 4 2 &.&.&.&.&.&.s A Y A t i &.&.&.&.&.&.&.&.&.&.&.&.&.&.&.",
"&.&.&.&.&.&.&.&.&.&.&.&.$ 5 t d l l x u % &.&.&.&.&.&.&.&.s D E K l d &.&.&.&.&.&.&.&.&.&.&.&.&.&.&.",
"&.&.&.&.&.&.&.&.&.&.&.$ & e t i l m i & &.&.&.&.&.&.&.&.&.i F E K b b &.&.&.&.&.&.&.&.&.&.&.&.&.&.&.",
"&.&.&.&.&.&.&.&.&.&.$ 2 r i l A A j &.&.&.&.&.&.&.&.&.&.&.i A K D b &.&.&.&.&.&.&.&.&.&.&.&.&.&.&.&.",
"&.&.&.&.&.&.&.&.&.$ & t l z m D i & &.&.&.&.&.&.&.&.&.&.&.i b b x A &.&.&.&.&.&.&.&.&.&.&.&.&.&.&.&.",
"&.&.&.&.&.&.&.&.& 9 u l l x A i & &.&.&.&.&.&.&.&.&.&.&.&.t s i x b &.&.&.&.&.&.&.&.&.&.&.&.&.&.&.&.",
"&.&.&.&.&.&.&.&.5 t l l l D z 3 &.&.&.&.&.&.&.&.&.&.&.&.&.e e i A A &.&.&.&.&.&.&.&.&.&.&.&.&.&.&.&.",
"&.&.&.&.&.&.&.&.& r l m K ^ D &.&.&.&.&.&.&.&.&.&.&.&.&.&.e 6 i A A &.&.&.&.&.&.&.&.&.&.&.&.&.&.&.&.",
"&.&.&.&.&.&.&.&.&.5 s D / | _ &.&.&.&.&.&.&.&.&.&.&.&.&.&.e t i G W I &.&.&.&.&.&.&.&.&.&.&.&.&.&.&.",
"&.&.&.&.&.&.&.&.&.&.5 v W {  ._ &.&.&.&.&.&.&.&.&.&.&.&.&.e d l G / _ _ ! &.&.&.&.&.&.&.&.&.&.&.&.&.",
"&.&.&.&.&.&.&.&.&.&.&.9 x ~ | | | W &.&.&.&.&.&.&.&.&.&.&.e i l b D R _ / / ~ R &.&.&.&.&.&.&.&.&.&.",
"&.&.&.&.&.&.&.&.&.&.&.&.9 b Q ` ) ^ Y &.&.&.&.&.&.&.&.&.&.5 e 3 4 i x D H J H b l &.&.&.&.&.&.&.&.&."
};
