/* XPM */
static char *result[] = {
/* columns rows colors chars-per-pixel */
"50 50 114 2 ",
"   c #532A01",
".  c #62350F",
"X  c #623511",
"o  c #693C14",
"O  c #6D3E1B",
"+  c #763C23",
"@  c #764522",
"#  c #784723",
"$  c #7C4B25",
"%  c #7F4E29",
"&  c #85352C",
"*  c #903131",
"=  c #A73D36",
"-  c #AC3639",
";  c #AD3A3A",
":  c #8D5414",
">  c #804F27",
",  c #824728",
"<  c #88432D",
"1  c #814E2A",
"2  c #815225",
"3  c #84532A",
"4  c #88572C",
"5  c #8A592D",
"6  c #905F2F",
"7  c #8D5C31",
"8  c #905F32",
"9  c #AC4B3E",
"0  c #946333",
"q  c #986736",
"w  c #996836",
"e  c #93623A",
"r  c #986738",
"t  c #9C6C3B",
"y  c #A06622",
"u  c #A76E2A",
"i  c #A1643B",
"p  c #A06F3E",
"a  c #A1703E",
"s  c #B07730",
"d  c #B77D35",
"f  c #B87F36",
"g  c #9B4A43",
"h  c #B24E43",
"j  c #A65149",
"k  c #B25344",
"l  c #956643",
"z  c #9E6D43",
"x  c #A06F41",
"c  c #A96B43",
"v  c #A47342",
"b  c #A87746",
"n  c #A97847",
"m  c #AD7C4A",
"M  c #B57E45",
"N  c #B07F4E",
"B  c #AF7E51",
"V  c #B17F54",
"C  c #BA7D59",
"Z  c #C0873E",
"A  c #B1804F",
"S  c #AF805D",
"D  c #B48353",
"F  c #B88756",
"G  c #B98856",
"H  c #B58359",
"J  c #B8865C",
"K  c #BC8B5A",
"L  c #B48663",
"P  c #BF8C62",
"I  c #C08F5E",
"U  c #CA9354",
"Y  c #C1905F",
"T  c #C08F60",
"R  c #C49365",
"E  c #C6956B",
"W  c #C8976B",
"Q  c #CA996D",
"!  c #C59571",
"~  c #C89670",
"^  c #C79B70",
"/  c #CD9C73",
"(  c #D09F74",
")  c #D09D7A",
"_  c #CDA377",
"`  c #D2A076",
"'  c #D4A37B",
"]  c #D9A77D",
"[  c #D9A87D",
"{  c #D5A482",
"}  c #D9A781",
"|  c #D6A883",
" . c #DBAA85",
".. c #DEAC8B",
"X. c #E1AF8F",
"o. c #E0B586",
"O. c #E2B18F",
"+. c #E6B493",
"@. c #E9B794",
"#. c #E6BA96",
"$. c #EBBA97",
"%. c #ECBB9A",
"&. c #F1BF9E",
"*. c #EDC39D",
"=. c #F1C09F",
"-. c #F5C4A3",
";. c #F8C6A5",
":. c #F5C8A7",
">. c #F6CEAD",
",. c #F9CCAB",
"<. c #F6D0AF",
"1. c #FBD0AF",
"2. c #FED8B7",
"3. c None",
/* pixels */
"3.3.3.3.3.3.3.3.3.3.3.3.3.3.3.3.3.3.3.3.3.3.3.3.3.3.3.3.3.3.3.3.3.3.3.3.3.3.3.3.3.3.3.3.3.3.3.3.3.3.",
"3.3.3.3.3.3.3.3.3.3.3.3.3.3.3.3.3.3.3.3.3.3.3.3.s d u s 3.3.3.3.3.3.3.3.3.3.3.3.3.3.3.3.3.3.3.3.3.3.",
"3.3.3.3.3.3.3.3.3.3.3.3.3.3.3.3.3.3.3.3.3.3.3.y f Z o.@.3.3.3.3.3.3.3.3.3.3.3.3.3.3.3.3.3.3.3.3.3.3.",
"3.3.3.3.3.3.3.3.3.3.3.3.3.3.3.3.3.3.3.3.3.3.3.: M U ^ L 3.3.3.3.3.3.3.3.3.3.3.3.3.3.3.3.3.3.3.3.3.3.",
"3.3.3.3.3.3.3.3.3.3.3.3.3.3.3.3.3.3.3.3.3.3.3.: J V { ! 3.3.3.3.3.3.3.3.3.3.3.3.3.3.3.3.3.3.3.3.3.3.",
"3.3.3.3.3.3.3.3.3.3.3.3.3.3.3.3.3.3.3.3.3.3.3.% @ 3 D B 3.3.3.3.3.3.3.3.3.3.3.3.3.3.3.3.3.3.3.3.3.3.",
"3.3.3.3.3.3.3.3.3.3.3.3.3.3.3.3.3.3.3.3.3.8 t B v % v K 3.3.3.3.3.3.3.3.3.3.3.3.3.3.3.3.3.3.3.3.3.3.",
"3.3.3.3.3.3.3.3.3.3.3.3.3.3.3.3.3.3.3.% t E O.$.' H D 3.3.3.3.3.3.3.3.3.3.3.3.3.3.3.3.3.3.3.3.3.3.3.",
"3.3.3.3.3.3.3.3.3.3.3.3.3.3.3.3.3.3.% v W $.>.<.} ~ | | 3.3.3.3.3.3.3.3.3.3.3.3.3.3.3.3.3.3.3.3.3.3.",
"3.3.3.3.3.3.3.3.3.3.3.3.3.3.3.3.3.3.5 A ` %.,.2...V E +.+.3.3.3.3.3.3.3.3.3.3.3.3.3.3.3.3.3.3.3.3.3.",
"3.3.3.3.3.3.3.3.3.3.3.3.3.3.3.3.3.$ t m Y ` [ [ D 5 z / @.+.3.3.3.3.3.3.3.3.3.3.3.3.3.3.3.3.3.3.3.3.",
"3.3.3.3.3.3.3.3.3.3.3.3.3.3.3.3.# 3 w v m A A m 5 o 2 m ~ X.~ 3.3.3.3.3.3.3.3.3.3.3.3.3.3.3.3.3.3.3.",
"3.3.3.3.3.3.3.3.3.3.3.3.3.3.3.$ 0 v m w v K V 5 o   . 5 b R D 3.3.3.3.3.3.3.3.3.3.3.3.3.3.3.3.3.3.3.",
"3.3.3.3.3.3.3.3.3.3.3.3.3.3.3.2 v m m A E ..K 2 o t e 3 0 v 7 3.3.3.3.3.3.3.3.3.3.3.3.3.3.3.3.3.3.3.",
"3.3.3.3.3.3.3.3.3.3.3.3.3.3.@ 0 m m m W ..' m 2 r F F K m G 3.3.3.3.3.3.3.3.3.3.3.3.3.3.3.3.3.3.3.3.",
"3.3.3.3.3.3.3.3.3.3.3.3.3.3.# t A t F ) / K 5 $ b R / E a v 3.3.3.3.3.3.3.3.3.3.3.3.3.3.3.3.3.3.3.3.",
"3.3.3.3.3.3.3.3.3.3.3.3.3.3.5 m m t D K n 4 o 8 v m P E m N 3.3.3.3.3.3.3.3.3.3.3.3.3.3.3.3.3.3.3.3.",
"3.3.3.3.3.3.3.3.3.3.3.3.3.3.4 t t t v t @ X $ r m D v v b w 3.3.3.3.3.3.3.3.3.3.3.3.3.3.3.3.3.3.3.3.",
"3.3.3.3.3.3.3.3.3.3.3.3.3.3.% v m n P ' S O + 3 t m A v A v 3.3.3.3.3.3.3.3.3.3.3.3.3.3.3.3.3.3.3.3.",
"3.3.3.3.3.3.3.3.3.3.3.3.3.3.2 b n J D ` -.l O $ 6 t p p v t 3.3.3.3.3.3.3.3.3.3.3.3.3.3.3.3.3.3.3.3.",
"3.3.3.3.3.3.3.3.3.3.3.3.3.3.@ r n P R P  .R 1 + , q c i i i 3.3.3.3.3.3.3.3.3.3.3.3.3.3.3.3.3.3.3.3.",
"3.3.3.3.3.3.3.3.3.3.3.3.3.3.3.$ 0 a P ' E E T g * - ; ; ; 9 G 3.3.3.3.3.3.3.3.3.3.3.3.3.3.3.3.3.3.3.",
"3.3.3.3.3.3.3.3.3.3.3.3.3.3.3.3.$ 2 t P / { X.) j h = - ; k R 3.3.3.3.3.3.3.3.3.3.3.3.3.3.3.3.3.3.3.",
"3.3.3.3.3.3.3.3.3.3.3.3.3.3.3.3.3.3.% w b R ) X.@.} C 9 k k 3.3.3.3.3.3.3.3.3.3.3.3.3.3.3.3.3.3.3.3.",
"3.3.3.3.3.3.3.3.3.3.3.3.3.3.3.3.3.3.3.< 4 b K } -.;.:._ W C 3.3.3.3.3.3.3.3.3.3.3.3.3.3.3.3.3.3.3.3.",
"3.3.3.3.3.3.3.3.3.3.3.3.3.3.3.3.3.3.3.3.& 1 v K  .,.*.F | #.W 3.3.3.3.3.3.3.3.3.3.3.3.3.3.3.3.3.3.3.",
"3.3.3.3.3.3.3.3.3.3.3.3.3.3.3.3.3.3.3.3.& , 5 p F ' H % E 1.#.Q 3.3.3.3.3.3.3.3.3.3.3.3.3.3.3.3.3.3.",
"3.3.3.3.3.3.3.3.3.3.3.3.3.3.3.3.3.3.3.3.$ 4 5 $ 7 w 1 e { =.>.#.3.3.3.3.3.3.3.3.3.3.3.3.3.3.3.3.3.3.",
"3.3.3.3.3.3.3.3.3.3.3.3.3.3.3.3.3.3.3.3.0 2 3 5 @ @ 2 m W ..$.:.+.3.3.3.3.3.3.3.3.3.3.3.3.3.3.3.3.3.",
"3.3.3.3.3.3.3.3.3.3.3.3.3.3.3.3.3.3.3.0 0 6 4 5 5 q x v m W ..$.=.} 3.3.3.3.3.3.3.3.3.3.3.3.3.3.3.3.",
"3.3.3.3.3.3.3.3.3.3.3.3.3.3.3.3.3.3.3.0 0 0 t 5 3 q m m p A W ..:.%.3.3.3.3.3.3.3.3.3.3.3.3.3.3.3.3.",
"3.3.3.3.3.3.3.3.3.3.3.3.3.3.3.3.3.3.3.0 0 t v v t 3 q b n m A W ..' I 3.3.3.3.3.3.3.3.3.3.3.3.3.3.3.",
"3.3.3.3.3.3.3.3.3.3.3.3.3.3.3.3.3.3.3.0 0 p v A K H 7 4 r b w m E T m 3.3.3.3.3.3.3.3.3.3.3.3.3.3.3.",
"3.3.3.3.3.3.3.3.3.3.3.3.3.3.3.3.3.3.6 0 w a A K / { 3.3.% 0 0 p A D W / 3.3.3.3.3.3.3.3.3.3.3.3.3.3.",
"3.3.3.3.3.3.3.3.3.3.3.3.3.3.3.3.3.3.8 w a n A Y / 3.3.3.3.@ 2 0 a K %.] 3.3.3.3.3.3.3.3.3.3.3.3.3.3.",
"3.3.3.3.3.3.3.3.3.3.3.3.3.3.3.3.3.K v p n m A F K 3.3.3.3.3.% q n W &.' 3.3.3.3.3.3.3.3.3.3.3.3.3.3.",
"3.3.3.3.3.3.3.3.3.3.3.3.3.3.3.K Y D t a D R ) W 3.3.3.3.3.3.4 a m R O.` 3.3.3.3.3.3.3.3.3.3.3.3.3.3.",
"3.3.3.3.3.3.3.3.3.3.3.3.3.3.D I G m w a A W W G 3.3.3.3.3.@ q D v F / K 3.3.3.3.3.3.3.3.3.3.3.3.3.3.",
"3.3.3.3.3.3.3.3.3.3.3.3.$ x m V n p 0 w t b 0 3.3.3.3.3.3.% t K p b A n 3.3.3.3.3.3.3.3.3.3.3.3.3.3.",
"3.3.3.3.3.3.3.3.3.3.3.3.3 v v v t q z w 3 3.3.3.3.3.3.3.3.$ t D v t q 3.3.3.3.3.3.3.3.3.3.3.3.3.3.3.",
"3.3.3.3.3.3.3.3.3.3.3.# 5 w q q w a t 7 3.3.3.3.3.3.3.3.3.$ t m n N p 3.3.3.3.3.3.3.3.3.3.3.3.3.3.3.",
"3.3.3.3.3.3.3.3.3.3.3.4 0 0 q v v 0 $ 3.3.3.3.3.3.3.3.3.3.$ 0 v N W G 3.3.3.3.3.3.3.3.3.3.3.3.3.3.3.",
"3.3.3.3.3.3.3.3.3.3.5 t t p v r 7 3.3.3.3.3.3.3.3.3.3.3.3.3.3 v K ) W 3.3.3.3.3.3.3.3.3.3.3.3.3.3.3.",
"3.3.3.3.3.3.3.3.3.5 p v b n r % 3.3.3.3.3.3.3.3.3.3.3.3.3.3.3 v K / E 3.3.3.3.3.3.3.3.3.3.3.3.3.3.3.",
"3.3.3.3.3.3.3.3.% q v b K K z 3.3.3.3.3.3.3.3.3.3.3.3.3.3.3.3 v Y ( W 3.3.3.3.3.3.3.3.3.3.3.3.3.3.3.",
"3.3.3.3.3.3.3.3.3.5 t m T ' ) 3.3.3.3.3.3.3.3.3.3.3.3.3.3.3.3 b R ` W 3.3.3.3.3.3.3.3.3.3.3.3.3.3.3.",
"3.3.3.3.3.3.3.3.3.3.4 p D ) { 3.3.3.3.3.3.3.3.3.3.3.3.3.3.$ 8 b Q  . .3.3.3.3.3.3.3.3.3.3.3.3.3.3.3.",
"3.3.3.3.3.3.3.3.3.3.$ 0 m R { { 3.3.3.3.3.3.3.3.3.3.3.3.3.$ t N / +.-.-.%.3.3.3.3.3.3.3.3.3.3.3.3.3.",
"3.3.3.3.3.3.3.3.3.3.3.> w F / ) { 3.3.3.3.3.3.3.3.3.3.3.3.% w D E  .+.&.-.;.;.3.3.3.3.3.3.3.3.3.3.3.",
"3.3.3.3.3.3.3.3.3.3.3.3.2 w b D H H m 3.3.3.3.3.3.3.3.3.3.$ w m m H Q ` ] ' ] ` W 3.3.3.3.3.3.3.3.3."
};
