/* XPM */
static char *result[] = {
/* columns rows colors chars-per-pixel */
"50 50 89 1 ",
"  c #633810",
". c #7F4A17",
"X c #77481D",
"o c #764522",
"O c #784524",
"+ c #7D4C26",
"@ c #7F4128",
"# c #7E512A",
"$ c #83362B",
"% c #8B3131",
"& c #9E3A35",
"* c #AD3A3A",
"= c #8B510F",
"- c #935A17",
"; c #804F27",
": c #804728",
"> c #815027",
", c #84532A",
"< c #88572B",
"1 c #8B5A2D",
"2 c #875836",
"3 c #8C5B32",
"4 c #91602F",
"5 c #946333",
"6 c #986736",
"7 c #996837",
"8 c #956439",
"9 c #99653C",
"0 c #9B6B3A",
"q c #A86F2C",
"w c #A06F3D",
"e c #A1713E",
"r c #B14240",
"t c #B14841",
"y c #B7574A",
"u c #9D6C41",
"i c #A36C44",
"p c #A47343",
"a c #A87745",
"s c #A97847",
"d c #AD7C4B",
"f c #B07F4D",
"g c #A67551",
"h c #AF7E52",
"j c #CD7E6E",
"k c #BA8036",
"l c #BB8239",
"z c #B1804E",
"x c #B48353",
"c c #B88755",
"v c #B1805C",
"b c #B9875A",
"n c #BD8C5B",
"m c #B28460",
"M c #BD8C61",
"N c #BE8D68",
"B c #C38A42",
"V c #C08F5E",
"C c #C6915D",
"Z c #CD876E",
"A c #C08F6F",
"S c #C39263",
"D c #C6956A",
"F c #C8976E",
"G c #CB996E",
"H c #C59870",
"J c #CD9C74",
"K c #D09E76",
"L c #D19F7A",
"P c #D2A176",
"I c #D4A37C",
"U c #D9A87F",
"Y c #D6A482",
"T c #D8A684",
"R c #D7AC82",
"E c #DAA983",
"W c #DBA989",
"Q c #E1AE8D",
"! c #E2B48C",
"~ c #E5B493",
"^ c #EAB696",
"/ c #E7B999",
"( c #EDBB9B",
") c #F2C09F",
"_ c #F3C3A1",
"` c #FACDAB",
"' c #FCD5B5",
"] c #FCD9B8",
"[ c None",
/* pixels */
"[[[[[[[[[[[[[[[[[[[[[[[[[[[[[[[[[[[[[[[[[[[[[[[[[[",
"[[[[[[[[[[[[[[[[[[[[[[[[[[[[[[[[[[[[[[[[[[[[[[[[[[",
"[[[[[[[[[[[[[[[[[[[[[[[[[[[[[[[[[[[[[[[[[[[[[[[[[[",
"[[[[[[[[[[[[[[[[[[[[[[[[[[[[[[[[[[[[[[[[[[[[[[[[[[",
"[[[[[[[[[[[[[[[[[[[[[[[[[[[[[[[[[[[[[[[[[[[[[[[[[[",
"[[[[[[[[[[[[[[[[[[[[[[[[[[[[[[[[[[[[[[[[[[[[[[[[[[",
"[[[[[[[[[[[[[[[[[[[[[[[[[[[[[[[[[[[[[[[[[[[[[[[[[[",
"[[[[[[[[[[[[[[[[[[[[[[[[[[[[[[[[[[[[[[[[[[[[[[[[[[",
"[[[[[[[[[[[[[[[[[[[[[[[[[[[[[[[[[[[[[[[[[[[[[[[[[[",
"[[[[[[[[[[[[[[[[[[[[[[[[[[[[[[[[[[[[[[[[[[[[[[[[[[",
"[[[[[[[[[[[[[[[[[[[[[[[[[[[[[[[[[[[[[[[[[[[[[[[[[[",
"[[[[[[[[[[[[[[[[[[[[[[[[[[[[[[[[[[[[[[[[[[[[[[[[[[",
"[[[[[[[[[[[[[[[[[[[[[[[[[[[[[[[[[[[[[[[[[[[[[[[[[[",
"[[[[[[[[[[[[[[[[[[[[[[[[[lk[[[[[[[[[[[[[[[[[[[[[[[",
"[[[[[[[[[[[[[[[[[[[[[[[-qB!/[[[[[[[[[[[[[[[[[[[[[[",
"[[[[[[[[[[[[[[[[[[[[[[[=cCHm[[[[[[[[[[[[[[[[[[[[[[",
"[[[[[[[[[[[[[[[[[[[[[[[.28SM[[[[[[[[[[[[[[[[[[[[[[",
"[[[[[[[[[[[[[[[[[[[[<pJEIuu[[[[[[[[[[[[[[[[[[[[[[[",
"[[[[[[[[[[[[[[[[[[[<pG)']UnI[[[[[[[[[[[[[[[[[[[[[[",
"[[[[[[[[[[[[[[[[[[o6dF~__GS~([[[[[[[[[[[[[[[[[[[[[",
"[[[[[[[[[[[[[[[[[[+5pxSSn0pL_([[[[[[[[[[[[[[[[[[[[",
"[[[[[[[[[[[[[[[[[<pcahPx+ #+pJb[[[[[[[[[[[[[[[[[[[",
"[[[[[[[[[[[[[[[[o6dzbY!c#9JNue7[[[[[[[[[[[[[[[[[[[",
"[[[[[[[[[[[[[[[[+6fdCTTd8xnLvx[[[[[[[[[[[[[[[[[[[[",
"[[[[[[[[[[[[[[[[<0na0a3XpxVDfd[[[[[[[[[[[[[[[[[[[[",
"[[[[[[[[[[[[[[[[1exxbN2Opnxps6[[[[[[[[[[[[[[[[[[[[",
"[[[[[[[[[[[[[[[[<ppxP_~8,sfafe[[[[[[[[[[[[[[[[[[[[",
"[[[[[[[[[[[[[[[[o0zdnI/vo6dew0[[[[[[[[[[[[[[[[[[[[",
"[[[[[[[[[[[[[[[[[[+17dnJYZyr**[[[[[[[[[[[[[[[[[[[[",
"[[[[[[[[[[[[[[[[[[[[:<7dF/^Qjr[[[[[[[[[[[[[[[[[[[[",
"[[[[[[[[[[[[[[[[[[[[%$:5aK_`Tt[[[[[[[[[[[[[[[[[[[[",
"[[[[[[[[[[[[[[[[[[[[$@+>1pIRi&[[[[[[[[[[[[[[[[[[[[",
"[[[[[[[[[[[[[[[[[[[[o550scgvds[[[[[[[[[[[[[[[[[[[[",
"[[[[[[[[[[[[[[[[[[[[o470xI)(hxs[[[[[[[[[[[[[[[[[[[",
"[[[[[[[[[[[[[[[[[[[[O400cW)(zbz[[[[[[[[[[[[[[[[[[[",
"[[[[[[[[[[[[[[[[[[[[[1w7xFIFpVca[[[[[[[[[[[[[[[[[[",
"[[[[[[[[[[[[[[[[[[[[[#76pxxs6Vcp[[[[[[[[[[[[[[[[[[",
"[[[[[[[[[[[[[[[[[[[[[;56exx03Scp[[[[[[[[[[[[[[[[[[",
"[[[[[[[[[[[[[[[[[[[[[+57xUI88Sca[[[[[[[[[[[[[[[[[[",
"[[[[[[[[[[[[[[[[[[[[>6w0zDV55fa[[[[[[[[[[[[[[[[[[[",
"[[[[[[[[[[[[[[[[[[[+1pawwdp<8p[[[[[[[[[[[[[[[[[[[[",
"[[[[[[[[[[[[[[[[[[[;0sbnp5>367[[[[[[[[[[[[[[[[[[[[",
"[[[[[[[[[[[[[[[[[[[;wcPPx+56[[[[[[[[[[[[[[[[[[[[[[",
"[[[[[[[[[[[[[[[[[[[+0bPIx>5[[[[[[[[[[[[[[[[[[[[[[[",
"[[[[[[[[[[[[[[[[[[[[3cKJ9>[[[[[[[[[[[[[[[[[[[[[[[[",
"[[[[[[[[[[[[[[[[[[[[3cPS3[[[[[[[[[[[[[[[[[[[[[[[[[",
"[[[[[[[[[[[[[[[[[[[<3cKJ8[[[[[[[[[[[[[[[[[[[[[[[[[",
"[[[[[[[[[[[[[[[[[[5<<cIWA[[[[[[[[[[[[[[[[[[[[[[[[[",
"[[[[[[[[[[[[[[[[[[[<3MT~~Y[[[[[[[[[[[[[[[[[[[[[[[[",
"[[[[[[[[[[[[[[[[[[[[<xFIEEEEEIJ[[[[[[[[[[[[[[[[[[["
};
