/* XPM */
static char *result[] = {
/* columns rows colors chars-per-pixel */
"50 50 95 2 ",
"   c #662C12",
".  c #772D1F",
"X  c #643311",
"o  c #6A3315",
"O  c #693B15",
"+  c #7C3C27",
"@  c #72431B",
"#  c #744321",
"$  c #784723",
"%  c #7B4B25",
"&  c #86302B",
"*  c #8D3132",
"=  c #983E31",
"-  c #87521F",
";  c #935A1B",
":  c #9C621E",
">  c #904F2E",
",  c #835227",
"<  c #84532A",
"1  c #88572B",
"2  c #8C5B2E",
"3  c #905F2F",
"4  c #914631",
"5  c #8D5C31",
"6  c #8B5C3A",
"7  c #905F33",
"8  c #905F39",
"9  c #946332",
"0  c #986735",
"q  c #9A6937",
"w  c #9A6739",
"e  c #9C6B3B",
"r  c #A46B25",
"t  c #A06F3E",
"y  c #A1703E",
"u  c #B27933",
"i  c #B75D4C",
"p  c #996742",
"a  c #9C6B40",
"s  c #A06F40",
"d  c #A47342",
"f  c #A87745",
"g  c #A97847",
"h  c #A57449",
"j  c #A87748",
"k  c #AC7B4A",
"l  c #B07F4D",
"z  c #AE6E53",
"x  c #B86E53",
"c  c #AC7B52",
"v  c #BD833A",
"b  c #C0873E",
"n  c #B1804F",
"m  c #AC805C",
"M  c #B48352",
"N  c #B88757",
"B  c #B98857",
"V  c #B6855A",
"C  c #B8875C",
"Z  c #BD8B5C",
"A  c #B88762",
"S  c #B68A62",
"D  c #BD8C61",
"F  c #CA934C",
"G  c #C4915F",
"H  c #C08F62",
"J  c #C39263",
"K  c #CA9764",
"L  c #C6946B",
"P  c #C89768",
"I  c #CA996D",
"U  c #C49372",
"Y  c #CD9C74",
"T  c #D09F7A",
"R  c #CEA278",
"E  c #D2A175",
"W  c #D3A17C",
"Q  c #D6A581",
"!  c #D8A784",
"~  c #DBA985",
"^  c #DDAC8A",
"/  c #E0AF8F",
"(  c #E3B28E",
")  c #E4B392",
"_  c #E8B795",
"`  c #EAB897",
"'  c #ECBB99",
"]  c #EBC39D",
"[  c #F2C09F",
"{  c #F4C3A2",
"}  c #F9C8A7",
"|  c #F8CDAC",
" . c #FBD5B4",
".. c #FFDBBB",
"X. c None",
/* pixels */
"X.X.X.X.X.X.X.X.X.X.X.X.X.X.X.X.X.X.X.X.X.X.X.X.X.X.X.X.X.X.X.X.X.X.X.X.X.X.X.X.X.X.X.X.X.X.X.X.X.X.",
"X.X.X.X.X.X.X.X.X.X.X.X.X.X.X.X.X.X.X.X.X.X.X.X.X.X.X.X.X.X.X.X.X.X.X.X.X.X.X.X.X.X.X.X.X.X.X.X.X.X.",
"X.X.X.X.X.X.X.X.X.X.X.X.X.X.X.X.X.X.X.X.X.X.X.X.X.X.X.X.X.X.X.X.X.X.X.X.X.X.X.X.X.X.X.X.X.X.X.X.X.X.",
"X.X.X.X.X.X.X.X.X.X.X.X.X.X.X.X.X.X.X.X.X.X.X.X.X.X.X.X.X.X.X.X.X.X.X.X.X.X.X.X.X.X.X.X.X.X.X.X.X.X.",
"X.X.X.X.X.X.X.X.X.X.X.X.X.X.X.X.X.X.X.X.X.X.X.X.X.X.X.X.X.X.X.X.X.X.X.X.X.X.X.X.X.X.X.X.X.X.X.X.X.X.",
"X.X.X.X.X.X.X.X.X.X.X.X.X.X.X.X.X.X.X.X.X.X.X.X.X.X.X.X.X.X.X.X.X.X.X.X.X.X.X.X.X.X.X.X.X.X.X.X.X.X.",
"X.X.X.X.X.X.X.X.X.X.X.X.X.X.X.X.X.X.X.X.X.X.X.X.X.X.X.X.X.X.X.X.X.X.X.X.X.X.X.X.X.X.X.X.X.X.X.X.X.X.",
"X.X.X.X.X.X.X.X.X.X.X.X.X.X.X.X.X.X.X.X.X.X.X.X.X.X.X.X.X.X.X.X.X.X.X.X.X.X.X.X.X.X.X.X.X.X.X.X.X.X.",
"X.X.X.X.X.X.X.X.X.X.X.X.X.X.X.X.X.X.X.X.X.X.X.X.X.X.X.X.X.X.X.X.X.X.X.X.X.X.X.X.X.X.X.X.X.X.X.X.X.X.",
"X.X.X.X.X.X.X.X.X.X.X.X.X.X.X.X.X.X.X.X.X.X.X.X.X.X.X.X.X.X.X.X.X.X.X.X.X.X.X.X.X.X.X.X.X.X.X.X.X.X.",
"X.X.X.X.X.X.X.X.X.X.X.X.X.X.X.X.X.X.X.X.X.X.X.X.X.X.X.X.X.X.X.X.X.X.X.X.X.X.X.X.X.X.X.X.X.X.X.X.X.X.",
"X.X.X.X.X.X.X.X.X.X.X.X.X.X.X.X.X.X.X.X.X.X.X.X.X.X.X.X.X.X.X.X.X.X.X.X.X.X.X.X.X.X.X.X.X.X.X.X.X.X.",
"X.X.X.X.X.X.X.X.X.X.X.X.X.X.X.X.X.X.X.X.X.X.X.X.r b v X.X.X.X.X.X.X.X.X.X.X.X.X.X.X.X.X.X.X.X.X.X.X.",
"X.X.X.X.X.X.X.X.X.X.X.X.X.X.X.X.X.X.X.X.X.X.X.: u F ] X.X.X.X.X.X.X.X.X.X.X.X.X.X.X.X.X.X.X.X.X.X.X.",
"X.X.X.X.X.X.X.X.X.X.X.X.X.X.X.X.X.X.X.X.X.X.X.; G P S A X.X.X.X.X.X.X.X.X.X.X.X.X.X.X.X.X.X.X.X.X.X.",
"X.X.X.X.X.X.X.X.X.X.X.X.X.X.X.X.X.X.X.X.X.X.X.- p h R A X.X.X.X.X.X.X.X.X.X.X.X.X.X.X.X.X.X.X.X.X.X.",
"X.X.X.X.X.X.X.X.X.X.X.X.X.X.X.X.X.X.X.X.% e H I I s e X.X.X.X.X.X.X.X.X.X.X.X.X.X.X.X.X.X.X.X.X.X.X.",
"X.X.X.X.X.X.X.X.X.X.X.X.X.X.X.X.X.X.X.$ w Z ) |  .) M H X.X.X.X.X.X.X.X.X.X.X.X.X.X.X.X.X.X.X.X.X.X.",
"X.X.X.X.X.X.X.X.X.X.X.X.X.X.X.X.X.X.X.$ t J ) {  .( k H ) X.X.X.X.X.X.X.X.X.X.X.X.X.X.X.X.X.X.X.X.X.",
"X.X.X.X.X.X.X.X.X.X.X.X.X.X.X.X.X.X.X.$ q M I R E V 2 V ` ~ X.X.X.X.X.X.X.X.X.X.X.X.X.X.X.X.X.X.X.X.",
"X.X.X.X.X.X.X.X.X.X.X.X.X.X.X.X.X.$ 9 k g q D Y n , X # s T J X.X.X.X.X.X.X.X.X.X.X.X.X.X.X.X.X.X.X.",
"X.X.X.X.X.X.X.X.X.X.X.X.X.X.X.X.X.$ s B f M ! ' Z , @ 6 < t q X.X.X.X.X.X.X.X.X.X.X.X.X.X.X.X.X.X.X.",
"X.X.X.X.X.X.X.X.X.X.X.X.X.X.X.X.X.1 g Z k J ^ _ M 2 y Y h l X.X.X.X.X.X.X.X.X.X.X.X.X.X.X.X.X.X.X.X.",
"X.X.X.X.X.X.X.X.X.X.X.X.X.X.X.X.# e M Z t f H V 1 e R D d d X.X.X.X.X.X.X.X.X.X.X.X.X.X.X.X.X.X.X.X.",
"X.X.X.X.X.X.X.X.X.X.X.X.X.X.X.X.# q B N d j V 8 % t M M n e X.X.X.X.X.X.X.X.X.X.X.X.X.X.X.X.X.X.X.X.",
"X.X.X.X.X.X.X.X.X.X.X.X.X.X.X.X.# 2 y M J T ` _ c q g y g 5 X.X.X.X.X.X.X.X.X.X.X.X.X.X.X.X.X.X.X.X.",
"X.X.X.X.X.X.X.X.X.X.X.X.X.X.X.X.# $ d n L L I ~ ^ D n d g X.X.X.X.X.X.X.X.X.X.X.X.X.X.X.X.X.X.X.X.X.",
"X.X.X.X.X.X.X.X.X.X.X.X.X.X.X.X.X.X.O , 3 0 j Z Y T ` ` ( ' ..X.X.X.X.X.X.X.X.X.X.X.X.X.X.X.X.X.X.X.",
"X.X.X.X.X.X.X.X.X.X.X.X.X.X.X.X.X.X.X.  o O < 7 M L T _ } }  .m X.X.X.X.X.X.X.X.X.X.X.X.X.X.X.X.X.X.",
"X.X.X.X.X.X.X.X.X.X.X.X.X.X.X.X.X.X.X.* & . X X @ $ a D ' { ] a X.X.X.X.X.X.X.X.X.X.X.X.X.X.X.X.X.X.",
"X.X.X.X.X.X.X.X.X.X.X.X.X.X.X.X.X.X.X.+ % 3 9 e J W x = 4 , d X.X.X.X.X.X.X.X.X.X.X.X.X.X.X.X.X.X.X.",
"X.X.X.X.X.X.X.X.X.X.X.X.X.X.X.X.X.X.X.$ 7 e 9 d I _ ) i > y J I X.X.X.X.X.X.X.X.X.X.X.X.X.X.X.X.X.X.",
"X.X.X.X.X.X.X.X.X.X.X.X.X.X.X.X.X.X.X.$ w y 9 y Y [ { z w M Y ~ I X.X.X.X.X.X.X.X.X.X.X.X.X.X.X.X.X.",
"X.X.X.X.X.X.X.X.X.X.X.X.X.X.X.X.X.X.X.1 q d q g E [ ( p w k I ) Q X.X.X.X.X.X.X.X.X.X.X.X.X.X.X.X.X.",
"X.X.X.X.X.X.X.X.X.X.X.X.X.X.X.X.X.X., 9 q q q B ) { U 5 Z M Z ^ ) T X.X.X.X.X.X.X.X.X.X.X.X.X.X.X.X.",
"X.X.X.X.X.X.X.X.X.X.X.X.X.X.X.X.X.X., 9 q q d Z ` ` C 0 N M M Y ^ Y X.X.X.X.X.X.X.X.X.X.X.X.X.X.X.X.",
"X.X.X.X.X.X.X.X.X.X.X.X.X.X.X.X.X.X., 9 0 q d Z / Q 8 2 e k M P E H n X.X.X.X.X.X.X.X.X.X.X.X.X.X.X.",
"X.X.X.X.X.X.X.X.X.X.X.X.X.X.X.X.X.X.# 2 9 y D H Z j X.# 2 q k J Z k f X.X.X.X.X.X.X.X.X.X.X.X.X.X.X.",
"X.X.X.X.X.X.X.X.X.X.X.X.X.X.X.< 0 f g e g J ! ) Y X.X.X.X.$ 2 e g U W M X.X.X.X.X.X.X.X.X.X.X.X.X.X.",
"X.X.X.X.X.X.X.X.X.X.X.X.X.X., e k M M t f B I Z d X.X.X.X.X.3 9 y Z G g X.X.X.X.X.X.X.X.X.X.X.X.X.X.",
"X.X.X.X.X.X.X.X.X.X.X.X.X.X.2 d M M g q q f g t X.X.X.X.X.e g g q f g 0 X.X.X.X.X.X.X.X.X.X.X.X.X.X.",
"X.X.X.X.X.X.X.X.X.X.X.X.# 2 q y d d g w $ X.X.X.X.X.X.X.X.t M K Z d y X.X.X.X.X.X.X.X.X.X.X.X.X.X.X.",
"X.X.X.X.X.X.X.X.X.X.X.# % 9 q e d l e % X.X.X.X.X.X.X.X.X.e N K Z k k X.X.X.X.X.X.X.X.X.X.X.X.X.X.X.",
"X.X.X.X.X.X.X.X.X.X.# , 0 e d n n a X.X.X.X.X.X.X.X.X.X.X.e n Z M k X.X.X.X.X.X.X.X.X.X.X.X.X.X.X.X.",
"X.X.X.X.X.X.X.X.X.# % q d f l M e % X.X.X.X.X.X.X.X.X.X.X.e k k g n X.X.X.X.X.X.X.X.X.X.X.X.X.X.X.X.",
"X.X.X.X.X.X.X.X.2 q d d d M f < X.X.X.X.X.X.X.X.X.X.X.X.X.9 9 e n n X.X.X.X.X.X.X.X.X.X.X.X.X.X.X.X.",
"X.X.X.X.X.X.X.X.% 0 d l Z Y M X.X.X.X.X.X.X.X.X.X.X.X.X.X.9 3 e n n X.X.X.X.X.X.X.X.X.X.X.X.X.X.X.X.",
"X.X.X.X.X.X.X.X.X.2 t M T ) W X.X.X.X.X.X.X.X.X.X.X.X.X.X.9 q e B L D X.X.X.X.X.X.X.X.X.X.X.X.X.X.X.",
"X.X.X.X.X.X.X.X.X.X.X.5 g U ) ) ) L X.X.X.X.X.X.X.X.X.X.X.9 e d k M J W T T U J X.X.X.X.X.X.X.X.X.X.",
"X.X.X.X.X.X.X.X.X.X.X.X.5 k P Q E Y G X.X.X.X.X.X.X.X.X.X.2 9 < 1 e g M V C V k d X.X.X.X.X.X.X.X.X."
};
