/* XPM */
static char *result[] = {
/* columns rows colors chars-per-pixel */
"50 50 90 1 ",
"  c #673A13",
". c #7A3E25",
"X c #7E3D28",
"o c #71421A",
"O c #764522",
"+ c #784723",
"@ c #7D4C26",
"# c #85342D",
"$ c #8D3031",
"% c #AD3739",
"& c #884E0B",
"* c #8A500D",
"= c #804F27",
"- c #814E29",
"; c #84532B",
": c #88572C",
"> c #8B5A2E",
", c #905F2F",
"< c #8D5C32",
"1 c #8D5D3B",
"2 c #915E32",
"3 c #9E662A",
"4 c #946333",
"5 c #986735",
"6 c #9A6937",
"7 c #976639",
"8 c #986738",
"9 c #9C6B3A",
"0 c #A26823",
"q c #AB722D",
"w c #A06F3E",
"e c #A1703F",
"r c #B54A46",
"t c #BA534E",
"y c #9D6D42",
"u c #A06F44",
"i c #A57443",
"p c #A87745",
"a c #AA7947",
"s c #AD7C4B",
"d c #B07F4E",
"f c #B96150",
"g c #A37251",
"h c #AC7B51",
"j c #B07F54",
"k c #C2715B",
"l c #BC8339",
"z c #B1804E",
"x c #B48352",
"c c #B88756",
"v c #B98856",
"b c #B5845A",
"n c #BB8A5B",
"m c #B58464",
"M c #B88663",
"N c #B38862",
"B c #BB8A64",
"V c #BB8B6A",
"C c #C58D4F",
"Z c #C08F5F",
"A c #C1905E",
"S c #C08F61",
"D c #C49365",
"F c #C4936A",
"G c #C8976D",
"H c #CB996D",
"J c #C69771",
"K c #CD9C74",
"L c #CC9E78",
"P c #D29E7A",
"I c #D1A075",
"U c #D3A27B",
"Y c #DC9D84",
"T c #D6A482",
"R c #DCAA85",
"E c #DDAC8B",
"W c #E0AF8F",
"Q c #E2B08C",
"! c #E5B493",
"~ c #E9B695",
"^ c #EAB896",
"/ c #EBBA99",
"( c #EBC09A",
") c #F2C09F",
"_ c #F4C3A3",
"` c #F2C9A7",
"' c #F6CBAB",
"] c #FACBAA",
"[ c #FFDCBB",
"{ c None",
/* pixels */
"{{{{{{{{{{{{{{{{{{{{{{{{{{{{{{{{{{{{{{{{{{{{{{{{{{",
"{{{{{{{{{{{{{{{{{{{{{{{{{{{{{{{{{{{{{{{{{{{{{{{{{{",
"{{{{{{{{{{{{{{{{{{{{{{{{{{{{{{{{{{{{{{{{{{{{{{{{{{",
"{{{{{{{{{{{{{{{{{{{{{{{{{{{{{{{{{{{{{{{{{{{{{{{{{{",
"{{{{{{{{{{{{{{{{{{{{{{{{{{{{{{{{{{{{{{{{{{{{{{{{{{",
"{{{{{{{{{{{{{{{{{{{{{{{{{{{{{{{{{{{{{{{{{{{{{{{{{{",
"{{{{{{{{{{{{{{{{{{{{{{{{{{{{{{{{{{{{{{{{{{{{{{{{{{",
"{{{{{{{{{{{{{{{{{{{{{{{{{{{{{{{{{{{{{{{{{{{{{{{{{{",
"{{{{{{{{{{{{{{{{{{{{{{{{{{{{{{{{{{{{{{{{{{{{{{{{{{",
"{{{{{{{{{{{{{{{{{{{{{{{{{{{{{{{{{{{{{{{{{{{{{{{{{{",
"{{{{{{{{{{{{{{{{{{{{{{{{{{{{{{{{{{{{{{{{{{{{{{{{{{",
"{{{{{{{{{{{{{{{{{{{{{{{{{{{{{{{{{{{{{{{{{{{{{{{{{{",
"{{{{{{{{{{{{{{{{{{{{{{{{0lqq{{{{{{{{{{{{{{{{{{{{{{",
"{{{{{{{{{{{{{{{{{{{{{{{*3CHN{{{{{{{{{{{{{{{{{{{{{{",
"{{{{{{{{{{{{{{{{{{{{{{{&9sJLV{{{{{{{{{{{{{{{{{{{{{",
"{{{{{{{{{{{{{{{{{{{{{{{+@Ouv{{{{{{{{{{{{{{{{{{{{{{",
"{{{{{{{{{{{{{{{{{{{{>sR_`Uj{{{{{{{{{{{{{{{{{{{{{{{",
"{{{{{{{{{{{{{{{{{{{;iD!][/AU^{{{{{{{{{{{{{{{{{{{{{",
"{{{{{{{{{{{{{{{{{{O>inIQQDsR)/{{{{{{{{{{{{{{{{{{{{",
"{{{{{{{{{{{{{{{{{{@,9pxxx9;sW_^{{{{{{{{{{{{{{{{{{{",
"{{{{{{{{{{{{{{{{{;eczxUH> y1<xx{{{{{{{{{{{{{{{{{{{",
"{{{{{{{{{{{{{{{{{>ssxU!K<4DTV7e{{{{{{{{{{{{{{{{{{{",
"{{{{{{{{{{{{{{{{@,sscUUn4xBDbxn{{{{{{{{{{{{{{{{{{{",
"{{{{{{{{{{{{{{{{=5cz9w< 9xxDxx8{{{{{{{{{{{{{{{{{{{",
"{{{{{{{{{{{{{{{{=9azDLm@4cvpi9={{{{{{{{{{{{{{{{{{{",
"{{{{{{{{{{{{{{{{+6asD!'B@8zida{{{{{{{{{{{{{{{{{{{{",
"{{{{{{{{{{{{{{{{{:dscDQH;;ii96{{{{{{{{{{{{{{{{{{{{",
"{{{{{{{{{{{{{{{{{{{@4ezFTPkrr%{{{{{{{{{{{{{{{{{{{{",
"{{{{{{{{{{{{{{{{{{{{X-2inW)~Yt{{{{{{{{{{{{{{{{{{{{",
"{{{{{{{{{{{{{{{{{{{{$#X>9B~](f{{{{{{{{{{{{{{{{{{{{",
"{{{{{{{{{{{{{{{{{{{{.;444,>7<2{{{{{{{{{{{{{{{{{{{{",
"{{{{{{{{{{{{{{{{{{{{o:45ijhgbip{{{{{{{{{{{{{{{{{{{",
"{{{{{{{{{{{{{{{{{{{{{:59pG/_Fss{{{{{{{{{{{{{{{{{{{",
"{{{{{{{{{{{{{{{{{{{{{:99sU/_Fxxi{{{{{{{{{{{{{{{{{{",
"{{{{{{{{{{{{{{{{{{{{{:69sGUUsxZa{{{{{{{{{{{{{{{{{{",
"{{{{{{{{{{{{{{{{{{{{{o499xvx9xZs{{{{{{{{{{{{{{{{{{",
"{{{{{{{{{{{{{{{{{{{{{+456axi>hSs{{{{{{{{{{{{{{{{{{",
"{{{{{{{{{{{{{{{{{{{{{+,4pFRs:vns{{{{{{{{{{{{{{{{{{",
"{{{{{{{{{{{{{{{{{{{{@>9waDHp:ssi{{{{{{{{{{{{{{{{{{",
"{{{{{{{{{{{{{{{{{{{{;9i99xx7:pi{{{{{{{{{{{{{{{{{{{",
"{{{{{{{{{{{{{{{{{{{+,wdvp94;49{{{{{{{{{{{{{{{{{{{{",
"{{{{{{{{{{{{{{{{{{{+4zHTD7:94{{{{{{{{{{{{{{{{{{{{{",
"{{{{{{{{{{{{{{{{{{{O4dHTA<>6{{{{{{{{{{{{{{{{{{{{{{",
"{{{{{{{{{{{{{{{{{{{{:sHTv:<{{{{{{{{{{{{{{{{{{{{{{{",
"{{{{{{{{{{{{{{{{{{{{=sHPy={{{{{{{{{{{{{{{{{{{{{{{{",
"{{{{{{{{{{{{{{{{{{{>=sGHi{{{{{{{{{{{{{{{{{{{{{{{{{",
"{{{{{{{{{{{{{{{{{{{4=sHTM{{{{{{{{{{{{{{{{{{{{{{{{{",
"{{{{{{{{{{{{{{{{{{{,=sLWWM{{{{{{{{{{{{{{{{{{{{{{{{",
"{{{{{{{{{{{{{{{{{{{{=sPE~!~EE{{{{{{{{{{{{{{{{{{{{{",
"{{{{{{{{{{{{{{{{{{{{+9nKIIIIIIH{{{{{{{{{{{{{{{{{{{"
};
