/* XPM */
static char *result[] = {
/* columns rows colors chars-per-pixel */
"50 50 105 2 ",
"   c #532A01",
".  c #62350F",
"X  c #623511",
"o  c #693C14",
"O  c #6D3E1B",
"+  c #763C23",
"@  c #764522",
"#  c #784723",
"$  c #7C4B25",
"%  c #7F4E29",
"&  c #85352C",
"*  c #903131",
"=  c #A73D36",
"-  c #AC3639",
";  c #AD3A3A",
":  c #8D5414",
">  c #804F27",
",  c #824728",
"<  c #814E2A",
"1  c #815225",
"2  c #84532A",
"3  c #88572C",
"4  c #8A592D",
"5  c #905F2F",
"6  c #8D5C31",
"7  c #905F32",
"8  c #AC4B3E",
"9  c #946333",
"0  c #986736",
"q  c #996836",
"w  c #93623A",
"e  c #986738",
"r  c #9C6C3B",
"t  c #A76E2A",
"y  c #A06F3E",
"u  c #A1703E",
"i  c #B07730",
"p  c #B77D35",
"a  c #9B4A43",
"s  c #B24E43",
"d  c #A65149",
"f  c #B25344",
"g  c #956643",
"h  c #9E6D43",
"j  c #A47342",
"k  c #A87746",
"l  c #A97847",
"z  c #AD7C4A",
"x  c #B57E45",
"c  c #B07F4E",
"v  c #AF7E51",
"b  c #B17F54",
"n  c #BA7D59",
"m  c #B1804F",
"M  c #AF805D",
"N  c #B48353",
"B  c #B88756",
"V  c #B98856",
"C  c #B58359",
"Z  c #B8865C",
"A  c #BC8B5A",
"S  c #B48663",
"D  c #BF8C62",
"F  c #C08F5E",
"G  c #CA9354",
"H  c #C1905F",
"J  c #C08F60",
"K  c #C49365",
"L  c #C6956B",
"P  c #C8976B",
"I  c #CA996D",
"U  c #C59571",
"Y  c #C89670",
"T  c #C79B70",
"R  c #CD9C73",
"E  c #D09F74",
"W  c #D09D7A",
"Q  c #D2A076",
"!  c #D4A37B",
"~  c #D9A77D",
"^  c #D9A87D",
"/  c #D5A482",
"(  c #D9A781",
")  c #D6A883",
"_  c #DBAA85",
"`  c #DEAC8B",
"'  c #E1AF8F",
"]  c #E2B18F",
"[  c #E6B493",
"{  c #E9B794",
"}  c #E6BA96",
"|  c #EBBA97",
" . c #ECBB9A",
".. c #F1BF9E",
"X. c #EDC39D",
"o. c #F1C09F",
"O. c #F5C4A3",
"+. c #F8C6A5",
"@. c #F5C8A7",
"#. c #F6CEAD",
"$. c #F9CCAB",
"%. c #F6D0AF",
"&. c #FBD0AF",
"*. c #FED8B7",
"=. c None",
/* pixels */
"=.=.=.=.=.=.=.=.=.=.=.=.=.=.=.=.=.=.=.=.=.=.=.=.=.=.=.=.=.=.=.=.=.=.=.=.=.=.=.=.=.=.=.=.=.=.=.=.=.=.",
"=.=.=.=.=.=.=.=.=.=.=.=.=.=.=.=.=.=.=.=.=.=.=.=.=.=.=.=.=.=.=.=.=.=.=.=.=.=.=.=.=.=.=.=.=.=.=.=.=.=.",
"=.=.=.=.=.=.=.=.=.=.=.=.=.=.=.=.=.=.=.=.=.=.=.=.=.=.=.=.=.=.=.=.=.=.=.=.=.=.=.=.=.=.=.=.=.=.=.=.=.=.",
"=.=.=.=.=.=.=.=.=.=.=.=.=.=.=.=.=.=.=.=.=.=.=.=.=.=.=.=.=.=.=.=.=.=.=.=.=.=.=.=.=.=.=.=.=.=.=.=.=.=.",
"=.=.=.=.=.=.=.=.=.=.=.=.=.=.=.=.=.=.=.=.=.=.=.=.=.=.=.=.=.=.=.=.=.=.=.=.=.=.=.=.=.=.=.=.=.=.=.=.=.=.",
"=.=.=.=.=.=.=.=.=.=.=.=.=.=.=.=.=.=.=.=.=.=.=.=.=.=.=.=.=.=.=.=.=.=.=.=.=.=.=.=.=.=.=.=.=.=.=.=.=.=.",
"=.=.=.=.=.=.=.=.=.=.=.=.=.=.=.=.=.=.=.=.=.=.=.=.=.=.=.=.=.=.=.=.=.=.=.=.=.=.=.=.=.=.=.=.=.=.=.=.=.=.",
"=.=.=.=.=.=.=.=.=.=.=.=.=.=.=.=.=.=.=.=.=.=.=.=.=.=.=.=.=.=.=.=.=.=.=.=.=.=.=.=.=.=.=.=.=.=.=.=.=.=.",
"=.=.=.=.=.=.=.=.=.=.=.=.=.=.=.=.=.=.=.=.=.=.=.=.=.=.=.=.=.=.=.=.=.=.=.=.=.=.=.=.=.=.=.=.=.=.=.=.=.=.",
"=.=.=.=.=.=.=.=.=.=.=.=.=.=.=.=.=.=.=.=.=.=.=.=.=.=.=.=.=.=.=.=.=.=.=.=.=.=.=.=.=.=.=.=.=.=.=.=.=.=.",
"=.=.=.=.=.=.=.=.=.=.=.=.=.=.=.=.=.=.=.=.=.=.=.=.=.=.=.=.=.=.=.=.=.=.=.=.=.=.=.=.=.=.=.=.=.=.=.=.=.=.",
"=.=.=.=.=.=.=.=.=.=.=.=.=.=.=.=.=.=.=.=.=.=.=.=.=.=.=.=.=.=.=.=.=.=.=.=.=.=.=.=.=.=.=.=.=.=.=.=.=.=.",
"=.=.=.=.=.=.=.=.=.=.=.=.=.=.=.=.=.=.=.=.=.=.=.=.i p t i =.=.=.=.=.=.=.=.=.=.=.=.=.=.=.=.=.=.=.=.=.=.",
"=.=.=.=.=.=.=.=.=.=.=.=.=.=.=.=.=.=.=.=.=.=.=.: x G T S =.=.=.=.=.=.=.=.=.=.=.=.=.=.=.=.=.=.=.=.=.=.",
"=.=.=.=.=.=.=.=.=.=.=.=.=.=.=.=.=.=.=.=.=.=.=.: Z b / U =.=.=.=.=.=.=.=.=.=.=.=.=.=.=.=.=.=.=.=.=.=.",
"=.=.=.=.=.=.=.=.=.=.=.=.=.=.=.=.=.=.=.=.=.=.=.% @ 2 N v =.=.=.=.=.=.=.=.=.=.=.=.=.=.=.=.=.=.=.=.=.=.",
"=.=.=.=.=.=.=.=.=.=.=.=.=.=.=.=.=.=.=.% r L ] | ! C N =.=.=.=.=.=.=.=.=.=.=.=.=.=.=.=.=.=.=.=.=.=.=.",
"=.=.=.=.=.=.=.=.=.=.=.=.=.=.=.=.=.=.% j P | #.%.( Y ) ) =.=.=.=.=.=.=.=.=.=.=.=.=.=.=.=.=.=.=.=.=.=.",
"=.=.=.=.=.=.=.=.=.=.=.=.=.=.=.=.=.=.4 m Q  .$.*.` b L [ [ =.=.=.=.=.=.=.=.=.=.=.=.=.=.=.=.=.=.=.=.=.",
"=.=.=.=.=.=.=.=.=.=.=.=.=.=.=.=.=.$ r z H Q ^ ^ N 4 h R { [ =.=.=.=.=.=.=.=.=.=.=.=.=.=.=.=.=.=.=.=.",
"=.=.=.=.=.=.=.=.=.=.=.=.=.=.=.$ 9 j z q j A b 4 o   . 4 k K N =.=.=.=.=.=.=.=.=.=.=.=.=.=.=.=.=.=.=.",
"=.=.=.=.=.=.=.=.=.=.=.=.=.=.=.1 j z z m L ` A 1 o r w 2 9 j 6 =.=.=.=.=.=.=.=.=.=.=.=.=.=.=.=.=.=.=.",
"=.=.=.=.=.=.=.=.=.=.=.=.=.=.@ 9 z z z P ` ! z 1 e B B A z V =.=.=.=.=.=.=.=.=.=.=.=.=.=.=.=.=.=.=.=.",
"=.=.=.=.=.=.=.=.=.=.=.=.=.=.4 z z r N A l 3 o 7 j z D L z c =.=.=.=.=.=.=.=.=.=.=.=.=.=.=.=.=.=.=.=.",
"=.=.=.=.=.=.=.=.=.=.=.=.=.=.3 r r r j r @ X $ e z N j j k q =.=.=.=.=.=.=.=.=.=.=.=.=.=.=.=.=.=.=.=.",
"=.=.=.=.=.=.=.=.=.=.=.=.=.=.% j z l D ! M O + 2 r z m j m j =.=.=.=.=.=.=.=.=.=.=.=.=.=.=.=.=.=.=.=.",
"=.=.=.=.=.=.=.=.=.=.=.=.=.=.1 k l Z N Q O.g O $ 5 r y y j r =.=.=.=.=.=.=.=.=.=.=.=.=.=.=.=.=.=.=.=.",
"=.=.=.=.=.=.=.=.=.=.=.=.=.=.=.$ 9 u D ! L L J a * - ; ; ; 8 V =.=.=.=.=.=.=.=.=.=.=.=.=.=.=.=.=.=.=.",
"=.=.=.=.=.=.=.=.=.=.=.=.=.=.=.=.$ 1 r D R / ' W d s = - ; f K =.=.=.=.=.=.=.=.=.=.=.=.=.=.=.=.=.=.=.",
"=.=.=.=.=.=.=.=.=.=.=.=.=.=.=.=.=.=.% q k K W ' { ( n 8 f f =.=.=.=.=.=.=.=.=.=.=.=.=.=.=.=.=.=.=.=.",
"=.=.=.=.=.=.=.=.=.=.=.=.=.=.=.=.=.=.=.=.& < j A _ $.X.B ) } P =.=.=.=.=.=.=.=.=.=.=.=.=.=.=.=.=.=.=.",
"=.=.=.=.=.=.=.=.=.=.=.=.=.=.=.=.=.=.=.=.& , 4 y B ! C % L &.} I =.=.=.=.=.=.=.=.=.=.=.=.=.=.=.=.=.=.",
"=.=.=.=.=.=.=.=.=.=.=.=.=.=.=.=.=.=.=.=.$ 3 4 $ 6 q < w / o.#.} =.=.=.=.=.=.=.=.=.=.=.=.=.=.=.=.=.=.",
"=.=.=.=.=.=.=.=.=.=.=.=.=.=.=.=.=.=.=.=.9 1 2 4 @ @ 1 z P ` | @.[ =.=.=.=.=.=.=.=.=.=.=.=.=.=.=.=.=.",
"=.=.=.=.=.=.=.=.=.=.=.=.=.=.=.=.=.=.=.9 9 9 r 4 2 0 z z y m P ` @. .=.=.=.=.=.=.=.=.=.=.=.=.=.=.=.=.",
"=.=.=.=.=.=.=.=.=.=.=.=.=.=.=.=.=.=.=.9 9 r j j r 2 0 k l z m P ` ! F =.=.=.=.=.=.=.=.=.=.=.=.=.=.=.",
"=.=.=.=.=.=.=.=.=.=.=.=.=.=.=.=.=.=.=.9 9 y j m A C 6 3 e k q z L J z =.=.=.=.=.=.=.=.=.=.=.=.=.=.=.",
"=.=.=.=.=.=.=.=.=.=.=.=.=.=.=.=.=.=.5 9 q u m A R / =.=.% 9 9 y m N P R =.=.=.=.=.=.=.=.=.=.=.=.=.=.",
"=.=.=.=.=.=.=.=.=.=.=.=.=.=.=.=.=.A j y l z m B A =.=.=.=.=.% 0 l P ..! =.=.=.=.=.=.=.=.=.=.=.=.=.=.",
"=.=.=.=.=.=.=.=.=.=.=.=.=.=.=.A H N r u N K W P =.=.=.=.=.=.3 u z K ] Q =.=.=.=.=.=.=.=.=.=.=.=.=.=.",
"=.=.=.=.=.=.=.=.=.=.=.=.=.=.N F V z q u m P P V =.=.=.=.=.@ 0 N j B R A =.=.=.=.=.=.=.=.=.=.=.=.=.=.",
"=.=.=.=.=.=.=.=.=.=.=.=.2 j j j r 0 h q 2 =.=.=.=.=.=.=.=.$ r N j r 0 =.=.=.=.=.=.=.=.=.=.=.=.=.=.=.",
"=.=.=.=.=.=.=.=.=.=.=.# 4 q 0 0 q u r 6 =.=.=.=.=.=.=.=.=.$ r z l c y =.=.=.=.=.=.=.=.=.=.=.=.=.=.=.",
"=.=.=.=.=.=.=.=.=.=.=.3 9 9 0 j j 9 $ =.=.=.=.=.=.=.=.=.=.$ 9 j c P V =.=.=.=.=.=.=.=.=.=.=.=.=.=.=.",
"=.=.=.=.=.=.=.=.=.=.4 r r y j e 6 =.=.=.=.=.=.=.=.=.=.=.=.=.2 j A W P =.=.=.=.=.=.=.=.=.=.=.=.=.=.=.",
"=.=.=.=.=.=.=.=.% 0 j k A A h =.=.=.=.=.=.=.=.=.=.=.=.=.=.=.2 j H E P =.=.=.=.=.=.=.=.=.=.=.=.=.=.=.",
"=.=.=.=.=.=.=.=.=.4 r z J ! W =.=.=.=.=.=.=.=.=.=.=.=.=.=.=.2 k K Q P =.=.=.=.=.=.=.=.=.=.=.=.=.=.=.",
"=.=.=.=.=.=.=.=.=.=.3 y N W / =.=.=.=.=.=.=.=.=.=.=.=.=.=.$ 7 k I _ _ =.=.=.=.=.=.=.=.=.=.=.=.=.=.=.",
"=.=.=.=.=.=.=.=.=.=.=.> q B R W / =.=.=.=.=.=.=.=.=.=.=.=.% q N L _ [ ..O.+.+.=.=.=.=.=.=.=.=.=.=.=.",
"=.=.=.=.=.=.=.=.=.=.=.=.1 q k N C C z =.=.=.=.=.=.=.=.=.=.$ q z z C I Q ~ ! ~ Q P =.=.=.=.=.=.=.=.=."
};
