/* XPM */
static char *result[] = {
/* columns rows colors chars-per-pixel */
"50 50 85 1 ",
"  c #BC6600",
". c #C56500",
"X c #C06800",
"o c #C57300",
"O c #D47501",
"+ c #DC7C00",
"@ c #C47523",
"# c #D08204",
"$ c #DF8200",
"% c #D58B03",
"& c #DD8E00",
"* c #DC8409",
"= c #D68E0F",
"- c #DA890B",
"; c #DC9300",
": c #D39E07",
"> c #DC9A00",
", c #CD8314",
"< c #CD8E1E",
"1 c #D09613",
"2 c #E28C00",
"3 c #E39500",
"4 c #EA9300",
"5 c #E59C00",
"6 c #EA9B00",
"7 c #F09F00",
"8 c #D7A200",
"9 c #E3A200",
"0 c #EBA400",
"q c #E5AB00",
"w c #EBAC00",
"e c #E9A60C",
"r c #ECAD0D",
"t c #F1A300",
"y c #F1AC00",
"u c #EDB400",
"i c #E6BF00",
"p c #EDBF00",
"a c #F1B300",
"s c #F2BB00",
"d c #CA8524",
"f c #D09222",
"g c #D89D21",
"h c #D1942F",
"j c #E1BA39",
"k c #EFCF00",
"l c #F3C200",
"z c #F8C400",
"x c #F4CC00",
"c c #FACA00",
"v c #EBD200",
"b c #EDDA00",
"n c #F5D300",
"m c #FAD500",
"M c #F5DB00",
"N c #FADC00",
"B c #F7E300",
"V c #FAE500",
"C c #F6EA00",
"Z c #F9EB00",
"A c #F7F400",
"S c #FAF400",
"D c #FAFA00",
"F c #FAFB0F",
"G c #F8F110",
"H c #FAFA11",
"J c #E7CF35",
"K c #E8D135",
"L c #F8F028",
"P c #F9FA2B",
"I c #DCAD40",
"U c #DFB141",
"Y c #E7D04D",
"T c #E8CF5E",
"R c #ECDB50",
"E c #F1E841",
"W c #F7F345",
"Q c #F9FA46",
"! c #F8F748",
"~ c #FAFA49",
"^ c #F1E95C",
"/ c #F8F25C",
"( c #F7F765",
") c #F9FA63",
"_ c None",
/* pixels */
"__________________________________________________",
"__________________________________________________",
"__________________________________________________",
"__________________________________________________",
"__________________________________________________",
"__________________________________________________",
"__________________________________________________",
"__________________________________________________",
"_____________________NNVVVCZS_____________________",
"___________________mmmmxnnmMBSS___________________",
"_________________cczsayaaaaslnCSD_________________",
"_______________mczattyyyyaaauplnCSD_______________",
"_____________Nmatttt7ttyyyyaaasspsnSD_____________",
"____________Vmayyttt7tttqnayyaauaspxCD____________",
"____________Blayytttt7t5vDMyyaasssssnA____________",
"___________Slaauyyyyt76iDDDnyyaausapsnD___________",
"___________Ssuaaayyyy6qADDDSxyaaaaaspsD___________",
"__________DCsssaaayyt9CDDDDDSyyyaaasssCS__________",
"__________AnlppssayyybDDDDDDDsyyaaaausnS__________",
"_________VBlllsspaaasSSSSSSSSZxsayaaaslAS_________",
"_________NnallpssscNZZZZZZZZVZZVmzsaaasMS_________",
"________mmaa9>nmNmmNmmmmmmmmmmmmNmmNn>0uBS________",
"________czyy9 9mccmccccmcccmcccccccc930wMZ________",
"________cltta; uccczcccccccccccccccu&690MZ________",
"________csttyy+osccccczccccczcccccz&6660nZ________",
"________cst7yyyo&cccccccccccccczcc526660xV________",
"________cst7ttytX9cczccccccccccccu264660xV________",
"________cst77tyy&Xscccccccccccccc3246460nN________",
"________cztt77666.9Nmmmmmmmmmmmmm0444660mN________",
"_________ca444444O8SSSSSSSSSSSSSZ044444sm_________",
"_________cs444444O:FHHHHHHHHHHHHGw64446zm_________",
"__________ct44444+1PPPPPPPPPPPPPLe6664wc__________",
"__________cs44444+d~Q~~!EKKE!~~~Wr5664lc__________",
"___________c44444+d))Rjg=-#,fY^(/r6666c___________",
"___________c04444+@TU22400wq5#,hIe066wm___________",
"____________s44442O22466500wuwq5&500wn____________",
"____________cs74444444476000wqwqw00unB____________",
"_____________cst444444446600wwwwwwlMV_____________",
"_______________ccsy4444444666wukCSS_______________",
"_________________czza44444460xMAA_________________",
"___________________cczssssszmNV___________________",
"_____________________cccccccc_____________________",
"__________________________________________________",
"__________________________________________________",
"__________________________________________________",
"__________________________________________________",
"__________________________________________________",
"__________________________________________________",
"__________________________________________________",
"__________________________________________________"
};
