/* XPM */
static char *result[] = {
/* columns rows colors chars-per-pixel */
"50 50 84 1 ",
"  c #C67100",
". c #C97400",
"X c #CF7F00",
"o c #D47A00",
"O c #D27409",
"+ c #D58604",
"@ c #DD8E06",
"# c #D38709",
"$ c #DC9100",
"% c #D79E05",
"& c #DD9C00",
"* c #D08A16",
"= c #DD8810",
"- c #D18919",
"; c #D99513",
": c #D59810",
"> c #D49219",
", c #DD981F",
"< c #E28600",
"1 c #E68900",
"2 c #E88C00",
"3 c #E49400",
"4 c #EE9500",
"5 c #E49800",
"6 c #ED9B00",
"7 c #F09D00",
"8 c #D4AA00",
"9 c #D9AE00",
"0 c #DCB000",
"q c #E4A400",
"w c #ECA300",
"e c #EDAB00",
"r c #EEAC0B",
"t c #F5A500",
"y c #F5AB00",
"u c #F0AB08",
"i c #E2B500",
"p c #EEB200",
"a c #E6B800",
"s c #EBBC00",
"d c #F5B400",
"f c #F8B400",
"g c #F4BB00",
"h c #FABD00",
"j c #CF8323",
"k c #D28C20",
"l c #DDAC2D",
"z c #D9A439",
"x c #EDC000",
"c c #EECB00",
"v c #F4C300",
"b c #FAC500",
"n c #F4CC00",
"m c #FECC00",
"M c #F4D400",
"N c #FED300",
"B c #F5DE00",
"V c #FDDB00",
"C c #F6E200",
"Z c #FCE300",
"A c #F7E900",
"S c #FCEC00",
"D c #FDF500",
"F c #FDFC00",
"G c #FCF20C",
"H c #FEFE0C",
"J c #FBF123",
"K c #FEFD26",
"L c #FDFE28",
"P c #F2E338",
"I c #FAF13D",
"U c #E5BC45",
"Y c #E7C24A",
"T c #EDD647",
"R c #EAD148",
"E c #F9F340",
"W c #FEFE43",
"Q c #FBF355",
"! c #F7F059",
"~ c #F8F45A",
"^ c #FDFD5E",
"/ c #EFDF64",
"( c #FDFE62",
") c None",
/* pixels */
"))))))))))))))))))))))))))))))))))))))))))))))))))",
"))))))))))))))))))))))))))))))))))))))))))))))))))",
"))))))))))))))))))))))))))))))))))))))))))))))))))",
"))))))))))))))))))))))))))))))))))))))))))))))))))",
"))))))))))))))))))))))))))))))))))))))))))))))))))",
"))))))))))))))))))))))))))))))))))))))))))))))))))",
"))))))))))))))))))))))))))))))))))))))))))))))))))",
"))))))))))))))))))))))))))))))))))))))))))))))))))",
")))))))))))))))))))mmmmVZZZSSD))))))))))))))))))))",
")))))))))))))))))mmmmNVVNNMVVCSDD)))))))))))))))))",
")))))))))))))))mmmmmmmhfdddfgvnBDD))))))))))))))))",
"))))))))))))))mmmNNbdytyyyddggggnCFD))))))))))))))",
"))))))))))))mmmNVmdytttyyyyddfggggvBD)))))))))))))",
"))))))))))))mmNZVgyyttttytsmyddggggcCF))))))))))))",
")))))))))))mmmZZbdfyyytttwADfdddggggnAF)))))))))))",
")))))))))))mmVSVddfdyyyt7nFFZddddgggsMD)))))))))))",
"))))))))))mmmSSvggdfyyyteDFFFmddddggggCF))))))))))",
"))))))))))mmVFBvghgdfdywCFFFFDgdddgggsnD))))))))))",
")))))))))mmmVSmvvghdddtxFFFFFFZdddddgdvCD)))))))))",
")))))))))mmNZVvvbbggddcSFDFDFDDVbddddsgMD)))))))))",
")))))))))mmmZmgvvvhvmZSSSSSSSSSSSVbgddgvS)))))))))",
"))))))))mmmNNfgyqVVVVVVVVVVVVVVVVVVVVqqqMD))))))))",
"))))))))mmmmbyfy sNNNmNNNNNmNNNmmNNNg$wwcS))))))))",
"))))))))mmbmhyyf@ommmmmmmmmmmmmmmmmm55wwvA))))))))",
"))))))))mvbmgyyyd.qmmmmmmmmmmmmmmmNd36w6gA))))))))",
"))))))))mmbmhttyfw vmmmmmmmmmmmmmmb5466wgZ))))))))",
"))))))))mvvmhtttyy+$mmmmmmmmmmmmmme366w6sZ))))))))",
"))))))))bvvmbt7tyyt gNmmmmmNmmmNmm546456gB))))))))",
"))))))))vvvvbt7tt7to&VVNNVNVVVVVVN644556vB))))))))",
")))))))))vxvmt44444<&DDDDDDDDDDDDSt44446m)))))))))",
")))))))))vgsmf444441%HHHHHHHHHHHHGy4444eM)))))))))",
")))))))))xssvb744441:KKKKKLLLLLLLJr7544dm)))))))))",
"))))))))))sssmy44471>WWWWWIPEWWWWIu664wv))))))))))",
"))))))))))aaabh44441-^(~Tl;#-lR!(~r645dm))))))))))",
")))))))))))aismy4442j/U,15wyq&#-zYrwqem)))))))))))",
")))))))))))ii0gb7444O=14wwwepppe&@wwwbM)))))))))))",
"))))))))))))00img444444446wweeppeewwcV))))))))))))",
")))))))))))))00imd44444444twwypppeexZ)))))))))))))",
"))))))))))))))888amht4444444wwwesCDD))))))))))))))",
"))))))))))))))))88ivmgt474476wdnAD))))))))))))))))",
")))))))))))))))))889ammbgdydgbVZA)))))))))))))))))",
")))))))))))))))))))889svmmmmmmB)))))))))))))))))))",
"))))))))))))))))))))))))))))))))))))))))))))))))))",
"))))))))))))))))))))))))))))))))))))))))))))))))))",
"))))))))))))))))))))))))))))))))))))))))))))))))))",
"))))))))))))))))))))))))))))))))))))))))))))))))))",
"))))))))))))))))))))))))))))))))))))))))))))))))))",
"))))))))))))))))))))))))))))))))))))))))))))))))))",
"))))))))))))))))))))))))))))))))))))))))))))))))))",
"))))))))))))))))))))))))))))))))))))))))))))))))))"
};
