/* XPM */
static char *result[] = {
/* columns rows colors chars-per-pixel */
"50 50 59 1 ",
"  c #DD8409",
". c #D58F17",
"X c #D6971D",
"o c #DC9F1D",
"O c #E88F02",
"+ c #E49300",
"@ c #ED9500",
"# c #E39A00",
"$ c #EB9C00",
"% c #F09D00",
"& c #E19E1F",
"* c #D4AA00",
"= c #D9AE00",
"- c #DDB100",
"; c #E6A200",
": c #EDA300",
"> c #ECAC00",
", c #F4A500",
"< c #F6AB00",
"1 c #F8AD00",
"2 c #E2B500",
"3 c #EEB400",
"4 c #E6B800",
"5 c #EBBC00",
"6 c #F4B400",
"7 c #F8B000",
"8 c #F4BC00",
"9 c #F8BA00",
"0 c #E2AE2E",
"q c #F4C200",
"w c #F9C400",
"e c #F4CB00",
"r c #FECC00",
"t c #F4D300",
"y c #FCD300",
"u c #F6DC00",
"i c #FEDB00",
"p c #F1D909",
"a c #F8DC09",
"s c #F0D61D",
"d c #F7DC1B",
"f c #F7E500",
"g c #FBE200",
"h c #FDEB00",
"j c #FCF400",
"k c #FEFC00",
"l c #FFFF0D",
"z c #F6DC2D",
"x c #F0D431",
"c c #FFFF27",
"v c #FDFF29",
"b c #E2B441",
"n c #EFD345",
"m c #F6DD40",
"M c #F9F440",
"N c #FFFF45",
"B c #F0E152",
"V c #F5E953",
"C c None",
/* pixels */
"CCCCCCCCCCCCCCCCCCCCCCCCCCCCCCCCCCCCCCCCCCCCCCCCCC",
"CCCCCCCCCCCCCCCCCCCCCCCCCCCCCCCCCCCCCCCCCCCCCCCCCC",
"CCCCCCCCCCCCCCCCCCCCCCCCCCCCCCCCCCCCCCCCCCCCCCCCCC",
"CCCCCCCCCCCCCCCCCCCCCCCCCCCCCCCCCCCCCCCCCCCCCCCCCC",
"CCCCCCCCCCCCCCCCCCCCCCCCCCCCCCCCCCCCCCCCCCCCCCCCCC",
"CCCCCCCCCCCCCCCCCCCCCCCCCCCCCCCCCCCCCCCCCCCCCCCCCC",
"CCCCCCCCCCCCCCCCCCCCCCCCCCCCCCCCCCCCCCCCCCCCCCCCCC",
"CCCCCCCCCCCCCCCCCCCCCCCCCCCCCCCCCCCCCCCCCCCCCCCCCC",
"CCCCCCCCCCCCCCCCCCCCCCrrrrihhCCCCCCCCCCCCCCCCCCCCC",
"CCCCCCCCCCCCCCCCCCCCCrrrryyyfjCCCCCCCCCCCCCCCCCCCC",
"CCCCCCCCCCCCCCCCCCCCrrrrrr668ujCCCCCCCCCCCCCCCCCCC",
"CCCCCCCCCCCCCCCCCCCryrrrr7<768fCCCCCCCCCCCCCCCCCCC",
"CCCCCCCCCCCCCCCCCCrrrrry7,<<668fCCCCCCCCCCCCCCCCCC",
"CCCCCCCCCCCCCCCCCCrrrryy7,,6688tCCCCCCCCCCCCCCCCCC",
"CCCCCCCCCCCCCCCCCCrrrrir7<,te68ejCCCCCCCCCCCCCCCCC",
"CCCCCCCCCCCCCCCCCrrrrriq7<,fy765fCCCCCCCCCCCCCCCCC",
"CCCCCCCCCCCCCCCCCrrrrrgq716jf668uCCCCCCCCCCCCCCCCC",
"CCCCCCCCCCCCCCCCCrrrryg867qkk668tCCCCCCCCCCCCCCCCC",
"CCCCCCCCCCCCCCCCCrrrryiq87tkke66eCCCCCCCCCCCCCCCCC",
"CCCCCCCCCCCCCCCCCrrrwyyq98fkjg86qfCCCCCCCCCCCCCCCC",
"CCCCCCCCCCCCCCCCrrrrwyrqwihhhhi68fCCCCCCCCCCCCCCCC",
"CCCCCCCCCCCCCCCCrrrrqe63iiiiiiiy>tCCCCCCCCCCCCCCCC",
"CCCCCCCCCCCCCCCCrrrwqq6#ryyyryy8;eCCCCCCCCCCCCCCCC",
"CCCCCCCCCCCCCCCCrrwqq87#8rrrrrr3$eCCCCCCCCCCCCCCCC",
"CCCCCCCCCCCCCCCCyweqq8<$3rrrrry:$qCCCCCCCCCCCCCCCC",
"CCCCCCCCCCCCCCCCrwqq4q<,;rrrrrr:$eCCCCCCCCCCCCCCCC",
"CCCCCCCCCCCCCCCCrwq54q,<#rrrrr9$$qCCCCCCCCCCCCCCCC",
"CCCCCCCCCCCCCCCCwqq528<,#9rrry6@@qCCCCCCCCCCCCCCCC",
"CCCCCCCCCCCCCCCCeq55251,+8iyiiw@$qCCCCCCCCCCCCCCCC",
"CCCCCCCCCCCCCCCCq544-4,@+tjjjjy@@qCCCCCCCCCCCCCCCC",
"CCCCCCCCCCCCCCCCC542--,@+alllla$$qCCCCCCCCCCCCCCCC",
"CCCCCCCCCCCCCCCCC44---,@Osvvvvd$:CCCCCCCCCCCCCCCCC",
"CCCCCCCCCCCCCCCCC42===6@OxNMzNz$,CCCCCCCCCCCCCCCCC",
"CCCCCCCCCCCCCCCCC2-=**3%OnVoXBB$6CCCCCCCCCCCCCCCCC",
"CCCCCCCCCCCCCCCCC2=***4%+b&$;X0:8CCCCCCCCCCCCCCCCC",
"CCCCCCCCCCCCCCCCCC=***4,O @:>>#>eCCCCCCCCCCCCCCCCC",
"CCCCCCCCCCCCCCCCCC=***-6@@%%>3>3CCCCCCCCCCCCCCCCCC",
"CCCCCCCCCCCCCCCCCC****=3%@@$:>>eCCCCCCCCCCCCCCCCCC",
"CCCCCCCCCCCCCCCCCCC****=9,@@$>uCCCCCCCCCCCCCCCCCCC",
"CCCCCCCCCCCCCCCCCCCC****59@@$ehCCCCCCCCCCCCCCCCCCC",
"CCCCCCCCCCCCCCCCCCCCC***=qw78uCCCCCCCCCCCCCCCCCCCC",
"CCCCCCCCCCCCCCCCCCCCCC***=errCCCCCCCCCCCCCCCCCCCCC",
"CCCCCCCCCCCCCCCCCCCCCCCCCCCCCCCCCCCCCCCCCCCCCCCCCC",
"CCCCCCCCCCCCCCCCCCCCCCCCCCCCCCCCCCCCCCCCCCCCCCCCCC",
"CCCCCCCCCCCCCCCCCCCCCCCCCCCCCCCCCCCCCCCCCCCCCCCCCC",
"CCCCCCCCCCCCCCCCCCCCCCCCCCCCCCCCCCCCCCCCCCCCCCCCCC",
"CCCCCCCCCCCCCCCCCCCCCCCCCCCCCCCCCCCCCCCCCCCCCCCCCC",
"CCCCCCCCCCCCCCCCCCCCCCCCCCCCCCCCCCCCCCCCCCCCCCCCCC",
"CCCCCCCCCCCCCCCCCCCCCCCCCCCCCCCCCCCCCCCCCCCCCCCCCC",
"CCCCCCCCCCCCCCCCCCCCCCCCCCCCCCCCCCCCCCCCCCCCCCCCCC"
};
