/* XPM */
static char *result[] = {
/* columns rows colors chars-per-pixel */
"50 50 22 1 ",
"  c #D3A900",
". c #D3AA00",
"X c #D4AA00",
"o c #DBB000",
"O c #DFB300",
"+ c #E3B600",
"@ c #E7B900",
"# c #EBBC00",
"$ c #EEBF00",
"% c #EFBF00",
"& c #EFC000",
"* c #F2C200",
"= c #F2C300",
"- c #F3C300",
"; c #F6C600",
": c #F7C600",
"> c #FAC900",
", c #FBC900",
"< c #FCCB00",
"1 c #FDCB00",
"2 c #FECB00",
"3 c None",
/* pixels */
"33333333333333333333333333333333333333333333333333",
"33333333333333333333333333333333333333333333333333",
"33333333333333333333333333333333333333333333333333",
"33333333333333333333333333333333333333333333333333",
"33333333333333333333333333333333333333333333333333",
"33333333333333333333333333333333333333333333333333",
"33333333333333333333333333333333333333333333333333",
"33333333333333333333333333333333333333333333333333",
"33333333333333333333333111333333333333333333333333",
"33333333333333333333331111<33333333333333333333333",
"33333333333333333333331111133333333333333333333333",
"33333333333333333333331111133333333333333333333333",
"33333333333333333333331111133333333333333333333333",
"33333333333333333333332111133333333333333333333333",
"33333333333333333333332111133333333333333333333333",
"33333333333333333333332111133333333333333333333333",
"33333333333333333333332111133333333333333333333333",
"33333333333333333333332111133333333333333333333333",
"33333333333333333333332111133333333333333333333333",
"33333333333333333333332111133333333333333333333333",
"33333333333333333333332111133333333333333333333333",
"33333333333333333333332111133333333333333333333333",
"33333333333333333333332111133333333333333333333333",
"33333333333333333333332111133333333333333333333333",
"33333333333333333333332111133333333333333333333333",
"33333333333333333333332111133333333333333333333333",
"33333333333333333333332111133333333333333333333333",
"33333333333333333333332111133333333333333333333333",
"33333333333333333333332111133333333333333333333333",
"3333333333333333333333,>>>>33333333333333333333333",
"3333333333333333333333:;;;;33333333333333333333333",
"3333333333333333333333-**=*33333333333333333333333",
"3333333333333333333333&$%%%33333333333333333333333",
"3333333333333333333333#####33333333333333333333333",
"3333333333333333333333@@@@@33333333333333333333333",
"3333333333333333333333+++++33333333333333333333333",
"3333333333333333333333OOOOO33333333333333333333333",
"3333333333333333333333ooooo33333333333333333333333",
"3333333333333333333333XXXXX33333333333333333333333",
"3333333333333333333333.XXXX33333333333333333333333",
"3333333333333333333333 XXXX33333333333333333333333",
"33333333333333333333333XXX 33333333333333333333333",
"33333333333333333333333333333333333333333333333333",
"33333333333333333333333333333333333333333333333333",
"33333333333333333333333333333333333333333333333333",
"33333333333333333333333333333333333333333333333333",
"33333333333333333333333333333333333333333333333333",
"33333333333333333333333333333333333333333333333333",
"33333333333333333333333333333333333333333333333333",
"33333333333333333333333333333333333333333333333333"
};
