/* XPM */
static char *result[] = {
/* columns rows colors chars-per-pixel */
"50 50 60 1 ",
"  c #DE8407",
". c #DB9304",
"X c #D48C11",
"o c #E78F03",
"O c #E59703",
"+ c #ED9400",
"@ c #E39B00",
"# c #EB9C00",
"$ c #F09B00",
"% c #D4AA00",
"& c #D9AE00",
"* c #DDB200",
"= c #E7A400",
"- c #ECA400",
"; c #ECAB00",
": c #F4A500",
"> c #F4AC00",
", c #F8AE00",
"< c #E3B600",
"1 c #ECB401",
"2 c #E7B900",
"3 c #EBBC00",
"4 c #EFB40A",
"5 c #F3B400",
"6 c #F9B300",
"7 c #F3BA00",
"8 c #FABB00",
"9 c #E8A816",
"0 c #E7AE1D",
"q c #E7B111",
"w c #EFB511",
"e c #EEB619",
"r c #D89E2F",
"t c #E0A12A",
"y c #E6AD28",
"u c #E5BC33",
"i c #E3B139",
"p c #E2BB39",
"a c #EDC000",
"s c #F4C300",
"d c #F9C400",
"f c #F3CD00",
"g c #FECC00",
"h c #F5D200",
"j c #FDD300",
"k c #F5DB00",
"l c #FDDB00",
"z c #F6E200",
"x c #FCE300",
"c c #F7EB00",
"v c #FCEC00",
"b c #FCF500",
"n c #FFFC00",
"m c #FEFD0C",
"M c #FEFD27",
"N c #FDFD28",
"B c #F6ED3D",
"V c #FDFC43",
"C c #FAF65C",
"Z c None",
/* pixels */
"ZZZZZZZZZZZZZZZZZZZZZZZZZZZZZZZZZZZZZZZZZZZZZZZZZZ",
"ZZZZZZZZZZZZZZZZZZZZZZZZZZZZZZZZZZZZZZZZZZZZZZZZZZ",
"ZZZZZZZZZZZZZZZZZZZZZZZZZZZZZZZZZZZZZZZZZZZZZZZZZZ",
"ZZZZZZZZZZZZZZZZZZZZZZZZZZZZZZZZZZZZZZZZZZZZZZZZZZ",
"ZZZZZZZZZZZZZZZZZZZZZZZZZZZZZZZZZZZZZZZZZZZZZZZZZZ",
"ZZZZZZZZZZZZZZZZZZZZZZZZZZZZZZZZZZZZZZZZZZZZZZZZZZ",
"ZZZZZZZZZZZZZZZZZZZZZZZZZZZZZZZZZZZZZZZZZZZZZZZZZZ",
"ZZZZZZZZZZZZZZZZZZZZZZZZZZZZZZZZZZZZZZZZZZZZZZZZZZ",
"ZZZZZZZZZZZZZZZZZZZZZvxjgggZZZZZZZZZZZZZZZZZZZZZZZ",
"ZZZZZZZZZZZZZZZZZZZZvlllgggggZZZZZZZZZZZZZZZZZZZZZ",
"ZZZZZZZZZZZZZZZZZZZcf75djgggggZZZZZZZZZZZZZZZZZZZZ",
"ZZZZZZZZZZZZZZZZZZbh15,>8gggggZZZZZZZZZZZZZZZZZZZZ",
"ZZZZZZZZZZZZZZZZZbh356,::djggggZZZZZZZZZZZZZZZZZZZ",
"ZZZZZZZZZZZZZZZZZca557>::8lgggggZZZZZZZZZZZZZZZZZZ",
"ZZZZZZZZZZZZZZZZZk755j5::6jjggggZZZZZZZZZZZZZZZZZZ",
"ZZZZZZZZZZZZZZZZZh355vs:,6jlggggZZZZZZZZZZZZZZZZZZ",
"ZZZZZZZZZZZZZZZZcs35dnh:>5gxgggggZZZZZZZZZZZZZZZZZ",
"ZZZZZZZZZZZZZZZZz755knv>57dxgggggZZZZZZZZZZZZZZZZZ",
"ZZZZZZZZZZZZZZZZk755vnb567dlgggggZZZZZZZZZZZZZZZZZ",
"ZZZZZZZZZZZZZZZZh55dbbnj5dskgggggZZZZZZZZZZZZZZZZZ",
"ZZZZZZZZZZZZZZZZf1sxvbvvg7sjfggggZZZZZZZZZZZZZZZZZ",
"ZZZZZZZZZZZZZZZz17lllllllj18ssggggZZZZZZZZZZZZZZZZ",
"ZZZZZZZZZZZZZZZk;-jjgjjjjs@8ssdgggZZZZZZZZZZZZZZZZ",
"ZZZZZZZZZZZZZZZk;=dgggggg;=6sasgggZZZZZZZZZZZZZZZZ",
"ZZZZZZZZZZZZZZZh-@sgggggg@:,sasdggZZZZZZZZZZZZZZZZ",
"ZZZZZZZZZZZZZZZh-#7gggggd@>,33ssggZZZZZZZZZZZZZZZZ",
"ZZZZZZZZZZZZZZZh;#>ggggg7@:,32asggZZZZZZZZZZZZZZZZ",
"ZZZZZZZZZZZZZZZh-+-gggjg;=:6323ssdZZZZZZZZZZZZZZZZ",
"ZZZZZZZZZZZZZZZh-+-jljlj-+:53<2sssZZZZZZZZZZZZZZZZ",
"ZZZZZZZZZZZZZZZZ;+>bbbbb1++,<<<2sZZZZZZZZZZZZZZZZZ",
"ZZZZZZZZZZZZZZZZ;o1mmmmm<o+5**<23ZZZZZZZZZZZZZZZZZ",
"ZZZZZZZZZZZZZZZZ>+4NMMMM9++1&**<2ZZZZZZZZZZZZZZZZZ",
"ZZZZZZZZZZZZZZZZ5+wVVBVV0+$1%&&<<ZZZZZZZZZZZZZZZZZ",
"ZZZZZZZZZZZZZZZZ7#eCpXpCy+$2%%&<<ZZZZZZZZZZZZZZZZZ",
"ZZZZZZZZZZZZZZZZZ;9r.;@it+><%%&*ZZZZZZZZZZZZZZZZZZ",
"ZZZZZZZZZZZZZZZZZ3@@1;$+o+5*%%%&ZZZZZZZZZZZZZZZZZZ",
"ZZZZZZZZZZZZZZZZZf;;1:+$o+7&%%%&ZZZZZZZZZZZZZZZZZZ",
"ZZZZZZZZZZZZZZZZZk1;;-$++:2%%%%ZZZZZZZZZZZZZZZZZZZ",
"ZZZZZZZZZZZZZZZZZZca=+++,3%%%%ZZZZZZZZZZZZZZZZZZZZ",
"ZZZZZZZZZZZZZZZZZZZz;++>d*%%%%ZZZZZZZZZZZZZZZZZZZZ",
"ZZZZZZZZZZZZZZZZZZZxh55d2%%%%ZZZZZZZZZZZZZZZZZZZZZ",
"ZZZZZZZZZZZZZZZZZZZZhgg3%%%%ZZZZZZZZZZZZZZZZZZZZZZ",
"ZZZZZZZZZZZZZZZZZZZZZZZZZZZZZZZZZZZZZZZZZZZZZZZZZZ",
"ZZZZZZZZZZZZZZZZZZZZZZZZZZZZZZZZZZZZZZZZZZZZZZZZZZ",
"ZZZZZZZZZZZZZZZZZZZZZZZZZZZZZZZZZZZZZZZZZZZZZZZZZZ",
"ZZZZZZZZZZZZZZZZZZZZZZZZZZZZZZZZZZZZZZZZZZZZZZZZZZ",
"ZZZZZZZZZZZZZZZZZZZZZZZZZZZZZZZZZZZZZZZZZZZZZZZZZZ",
"ZZZZZZZZZZZZZZZZZZZZZZZZZZZZZZZZZZZZZZZZZZZZZZZZZZ",
"ZZZZZZZZZZZZZZZZZZZZZZZZZZZZZZZZZZZZZZZZZZZZZZZZZZ",
"ZZZZZZZZZZZZZZZZZZZZZZZZZZZZZZZZZZZZZZZZZZZZZZZZZZ"
};
