/* XPM */
static char *result[] = {
/* columns rows colors chars-per-pixel */
"50 50 75 1 ",
"  c #CB7500",
". c #CD7A00",
"X c #D47704",
"o c #D17B01",
"O c #D87902",
"+ c #D38500",
"@ c #DD8F00",
"# c #D3860C",
"$ c #DF8B0B",
"% c #DD9301",
"& c #DB9516",
"* c #E48700",
"= c #E88D00",
"- c #E49300",
"; c #ED9500",
": c #E49A00",
"> c #EC9C00",
", c #F19E00",
"< c #D4AA00",
"1 c #D9AE00",
"2 c #DEB200",
"3 c #E2A000",
"4 c #ECA300",
"5 c #EDAC00",
"6 c #E7A20A",
"7 c #F4A400",
"8 c #F5AC00",
"9 c #E2B500",
"0 c #EDB200",
"q c #E7B900",
"w c #EDBD00",
"e c #F5B400",
"r c #F9B400",
"t c #F4BB00",
"y c #F9BB00",
"u c #F1B30B",
"i c #F1B514",
"p c #D48F21",
"a c #D39120",
"s c #DF9F2B",
"d c #D59736",
"f c #DEB027",
"g c #DEB43D",
"h c #E1B92F",
"j c #E2B335",
"k c #ECC300",
"l c #F5C400",
"z c #FAC600",
"x c #F4CB00",
"c c #FECC00",
"v c #F4D300",
"b c #FDD300",
"n c #F4DC00",
"m c #FDDB00",
"M c #F0DE12",
"N c #F6E300",
"B c #FCE400",
"V c #FCEB00",
"C c #FBF400",
"Z c #FEFC01",
"A c #FEFE17",
"S c #FEFE18",
"D c #EDD828",
"F c #EBD23B",
"G c #FEFE33",
"H c #E8CD51",
"J c #EFDC55",
"K c #EEDB59",
"L c #F0E043",
"P c #F8F04A",
"I c #FDFC4F",
"U c #FDFF51",
"Y c #F8F063",
"T c #FBFA69",
"R c None",
/* pixels */
"RRRRRRRRRRRRRRRRRRRRRRRRRRRRRRRRRRRRRRRRRRRRRRRRRR",
"RRRRRRRRRRRRRRRRRRRRRRRRRRRRRRRRRRRRRRRRRRRRRRRRRR",
"RRRRRRRRRRRRRRRRRRRRRRRRRRRRRRRRRRRRRRRRRRRRRRRRRR",
"RRRRRRRRRRRRRRRRRRRRRRRRRRRRRRRRRRRRRRRRRRRRRRRRRR",
"RRRRRRRRRRRRRRRRRRRRRRRRRRRRRRRRRRRRRRRRRRRRRRRRRR",
"RRRRRRRRRRRRRRRRRRRRRRRRRRRRRRRRRRRRRRRRRRRRRRRRRR",
"RRRRRRRRRRRRRRRRRRRRRRRRRRRRRRRRRRRRRRRRRRRRRRRRRR",
"RRRRRRRRRRRRRRRRRRRRRRRRRRRRRRRRRRRRRRRRRRRRRRRRRR",
"RRRRRRRRRRRRRRRRRRRVVVBVBBmbczcRRRRRRRRRRRRRRRRRRR",
"RRRRRRRRRRRRRRRRRCCVNnvbbbbmmbcccRRRRRRRRRRRRRRRRR",
"RRRRRRRRRRRRRRRRCCnxltereeeyzccccccRRRRRRRRRRRRRRR",
"RRRRRRRRRRRRRRZCNkttyeer888878ybbcccRRRRRRRRRRRRRR",
"RRRRRRRRRRRRZCvltttteee888877778ymmcccRRRRRRRRRRRR",
"RRRRRRRRRRRRCnkttteeeev578777888rzBmcccRRRRRRRRRRR",
"RRRRRRRRRRRCNkttttee8cZv7777788retmVbccRRRRRRRRRRR",
"RRRRRRRRRRRCvwwtteeetCZZ5e77888reezVBcccRRRRRRRRRR",
"RRRRRRRRRRZntwtteeeeBZZZNN4788eeyttnCbccRRRRRRRRRR",
"RRRRRRRRRRCxttetee8cZZZZZZk78eeyttzzZBcccRRRRRRRRR",
"RRRRRRRRRCNw0teee8tCZZZZZZC57rettyllBVcccRRRRRRRRR",
"RRRRRRRRRCvt0eeetbVCCCZCZCZnzttyllzzcVbccRRRRRRRRR",
"RRRRRRRRRVk08elbBVVVVVVVVVVVVmclzlltlmbcccRRRRRRRR",
"RRRRRRRRVv441bbmmbmmmbmbmbmmmmmmm9%eecccccRRRRRRRR",
"RRRRRRRRVl44%ecccccccbcbbcbccccbz.:r7yccccRRRRRRRR",
"RRRRRRRRVk4:>-cccccccccccccccccc%+r88rczczRRRRRRRR",
"RRRRRRRRNw>4>-ecccccccccccccccct 7e87rczzcRRRRRRRR",
"RRRRRRRRB0>>>>-zccccccccccccccc+-r777rclzcRRRRRRRR",
"RRRRRRRRBt>>>>-5cccccccccccccc5 88777rczlzRRRRRRRR",
"RRRRRRRRnw>>>;;>cbcbcccbcbccbc.-87777rcllzRRRRRRRR",
"RRRRRRRRnl>;;;;4mmmmmmmmmmmmmx >,,,77yllllRRRRRRRR",
"RRRRRRRRRx4--;>eCZZZZZZZZZZZZnX,;;;;7zlllRRRRRRRRR",
"RRRRRRRRRb8-;;;uSSSSSSASAAAAAMX;;;;;7cwwkRRRRRRRRR",
"RRRRRRRRRbt;->;iGGGGGGGGGGGGGDX;;;;>tzqwwRRRRRRRRR",
"RRRRRRRRRRl4>>>iIUUILffLPPIUIFX;;;;7cwqqRRRRRRRRRR",
"RRRRRRRRRRbt>>>iYKga#%:-&&jKTHO;;;;ylqqqRRRRRRRRRR",
"RRRRRRRRRRRv0:46a#%500844>=$sdO;;;7cq9qRRRRRRRRRRR",
"RRRRRRRRRRRmv54445005544>>;;;*=;;>zl229RRRRRRRRRRR",
"RRRRRRRRRRRRNv55500554>>,;;;;;;;,rl222RRRRRRRRRRRR",
"RRRRRRRRRRRRRBvq5905747,;;;;;;;>yz912RRRRRRRRRRRRR",
"RRRRRRRRRRRRRRRCVv044>>;;;;;,ezz2<<RRRRRRRRRRRRRRR",
"RRRRRRRRRRRRRRRRCVnx07>7778ezcw1<<RRRRRRRRRRRRRRRR",
"RRRRRRRRRRRRRRRRRRnmbzzzzcczw2<<RRRRRRRRRRRRRRRRRR",
"RRRRRRRRRRRRRRRRRRRRRRRRRRRRRRRRRRRRRRRRRRRRRRRRRR",
"RRRRRRRRRRRRRRRRRRRRRRRRRRRRRRRRRRRRRRRRRRRRRRRRRR",
"RRRRRRRRRRRRRRRRRRRRRRRRRRRRRRRRRRRRRRRRRRRRRRRRRR",
"RRRRRRRRRRRRRRRRRRRRRRRRRRRRRRRRRRRRRRRRRRRRRRRRRR",
"RRRRRRRRRRRRRRRRRRRRRRRRRRRRRRRRRRRRRRRRRRRRRRRRRR",
"RRRRRRRRRRRRRRRRRRRRRRRRRRRRRRRRRRRRRRRRRRRRRRRRRR",
"RRRRRRRRRRRRRRRRRRRRRRRRRRRRRRRRRRRRRRRRRRRRRRRRRR",
"RRRRRRRRRRRRRRRRRRRRRRRRRRRRRRRRRRRRRRRRRRRRRRRRRR",
"RRRRRRRRRRRRRRRRRRRRRRRRRRRRRRRRRRRRRRRRRRRRRRRRRR"
};
