/* XPM */
static char *_91280228b064ee58d62bdd94df3c6d33NPXV9aCsdevXgWJ[] = {
/* columns rows colors chars-per-pixel */
"50 50 190 2 ",
"   c None",
".  c #7D0700",
"X  c #7D0800",
"o  c #840902",
"O  c #8C0905",
"+  c #930A07",
"@  c #960A08",
"#  c #9B0A09",
"$  c #84150F",
"%  c #851A14",
"&  c #911411",
"*  c #A30B0B",
"=  c #AC0B0D",
"-  c #B30C0F",
";  c #B70C10",
":  c #BC0C11",
">  c #A81718",
",  c #88211B",
"<  c #99201E",
"1  c #B71F21",
"2  c #882721",
"3  c #952824",
"4  c #9A3E3A",
"5  c #A92727",
"6  c #B02729",
"7  c #AD3E3D",
"8  c #C30D14",
"9  c #CB0E16",
"0  c #D10E17",
"q  c #D50E19",
"w  c #D80F19",
"e  c #C61017",
"r  c #C5131A",
"t  c #CA141C",
"y  c #D61C17",
"u  c #D61419",
"i  c #D81319",
"p  c #D71818",
"a  c #D2370F",
"s  c #D13C0F",
"d  c #D52414",
"f  c #D42C13",
"g  c #D6231B",
"h  c #D7271D",
"j  c #D33311",
"k  c #D23C11",
"l  c #D6311C",
"z  c #D4381A",
"x  c #CC1D24",
"c  c #C51C22",
"v  c #D51822",
"b  c #CF242C",
"n  c #DA2625",
"m  c #D4242C",
"M  c #DB252C",
"N  c #D82D26",
"B  c #D83626",
"V  c #D73E24",
"C  c #D93429",
"Z  c #C52D32",
"A  c #D32C34",
"S  c #DA2630",
"D  c #DB3633",
"F  c #DB3C32",
"G  c #D6353C",
"H  c #DC353C",
"J  c #DD3A3B",
"K  c #D7383F",
"L  c #96443E",
"P  c #D24415",
"I  c #D4431B",
"U  c #D34A1D",
"Y  c #D64627",
"T  c #D54E24",
"R  c #D9472E",
"E  c #D55126",
"W  c #D5552C",
"Q  c #D7592F",
"!  c #D8562F",
"~  c #D94332",
"^  c #DA4B35",
"/  c #DC4C3D",
"(  c #DA4737",
")  c #D95635",
"_  c #D75C33",
"`  c #D85C34",
"'  c #DB533C",
"]  c #DB5C3E",
"[  c #D9623C",
"{  c #DB3D45",
"}  c #D63940",
"|  c #BE4548",
" . c #AF635F",
".. c #BE6464",
"X. c #CA4247",
"o. c #DE4B44",
"O. c #DD434B",
"+. c #DF4D49",
"@. c #DD5C46",
"#. c #DE5C4C",
"$. c #DE5347",
"%. c #DF4C53",
"&. c #DE4750",
"*. c #E1454C",
"=. c #E04C4E",
"-. c #E0544E",
";. c #E14D54",
":. c #E2535A",
">. c #E35C5B",
",. c #E15B56",
"<. c #DA6542",
"1. c #DB6A45",
"2. c #DB6D4A",
"3. c #DD634A",
"4. c #DC714E",
"5. c #DE6B50",
"6. c #DD7554",
"7. c #DE7B5C",
"8. c #DF7458",
"9. c #E06254",
"0. c #E06954",
"q. c #E3645C",
"w. c #E26C5E",
"e. c #E07C5D",
"r. c #E1745E",
"t. c #E45B62",
"y. c #C96A6A",
"u. c #DD7F61",
"i. c #D4797B",
"p. c #E56264",
"a. c #E36C65",
"s. c #E66B6C",
"d. c #E37263",
"f. c #E17D62",
"g. c #E4776C",
"h. c #E37E6B",
"j. c #E76C70",
"k. c #E77374",
"l. c #E67972",
"z. c #E77E79",
"x. c #E87A7B",
"c. c #DF8366",
"v. c #DF8569",
"b. c #E18365",
"n. c #E2866B",
"m. c #E28A6D",
"M. c #E58376",
"N. c #E38C73",
"B. c #E78B7C",
"V. c #E59176",
"C. c #E4947C",
"Z. c #E5987F",
"A. c #E98584",
"S. c #E98B84",
"D. c #EB8F8B",
"F. c #E49582",
"G. c #E89384",
"H. c #E69B83",
"J. c #E49A8A",
"K. c #E99C8B",
"L. c #EB9592",
"P. c #E49E92",
"I. c #EC9D96",
"U. c #EC9E98",
"Y. c #E7A18A",
"T. c #E8A28B",
"R. c #E9A491",
"E. c #EAAA95",
"W. c #EAA994",
"Q. c #E5A39A",
"!. c #EDA39C",
"~. c #ECAC9A",
"^. c #E4A195",
"/. c #ECB19E",
"(. c #EEADA4",
"). c #EFAEA8",
"_. c #EDB4A4",
"`. c #EEB8A6",
"'. c #EEBAAA",
"]. c #EFB0A9",
"[. c #E9B8B4",
"{. c #F0BCB4",
"}. c #ECC0B7",
"|. c #F0C3B6",
" X c #F1C4BA",
".X c #F3C8BF",
"XX c #F4CDC4",
"oX c #F3C6C0",
"OX c #F5D2CB",
"+X c #F7DBD6",
/* pixels */
"                                                                                                    ",
"                                                                                                    ",
"                                                                                                    ",
"                                          _.H.v.7.7.6.c.C.                                          ",
"                                    }.H.c.7.6.2.<.[ _ E U P W N.                                    ",
"                                  ^.N.v.u.6.4.<.[ W E U P s s k Y F.                                ",
"                                P.V.m.c.7.6.2.[ _ E U P s a j j j f #.                              ",
"                            [.^.F.N.N.v.c.7.6.<._ E P s s a a j f f d ~                             ",
"                          [.Q.F.V.V.V.m.b.e.e.1.[ W I k a j j f f d d y D                           ",
"                          Q.J.Z.Z.V.V.V.m.b.e.4.<.Q T I j j f f d d d y p H                         ",
"                        Q.J.F.F.Z.Z.Z.C.V.m.b.e.2.[ ) T z f f f d y p y p i %.                      ",
"                      Q.J.Z.Z.H.H.H.H.Z.Z.V.m.b.6.2.] ^ Y f d d d y p u i w q                       ",
"                      J.C.Z.H.H.T.T.T.T.K.Z.V.m.e.r.3.' R l d y y p u i w q q x                     ",
"                    J.C.V.Z.H.H.T.R.W.W.W.T.H.C.m.r.0.@.( C g y p u u i q q 9 9                     ",
"                  J.N.N.N.Z.H.Y.R.W.~././.~.R.K.B.n.r.,./ F h y u i w w q 9 9 8 c                   ",
"                  N.v.N.N.Z.H.T.W./.`.`.'.`.(.R.G.M.d.#.=.D n p u w q 0 9 9 e e e                   ",
"                Z.b.b.n.V.Z.Z.T.W.`.|.|..X{.{.~.K.B.g.q.=.F n i i w 0 0 9 9 8 : : Z                 ",
"                b.e.b.b.m.V.Z.T.~.`.|..XOXXX{.).I.A.l.q.-.J M i w 0 9 9 e 8 8 : : ;                 ",
"              `.e.e.e.b.b.V.V.T.~.`.|.OX+XOX{.).I.S.k.p.;.J M i q 0 9 9 e 8 : : ; ;                 ",
"              Y.r.4.4.e.b.n.V.T.W.`.|.XX+XOXoX).I.S.k.q.;.{ v i 9 9 9 8 8 : : - - - |               ",
"              v.2.2.2.6.e.b.m.Z.T.`.{..XXX.X{.(.L.A.k.t.*.H v i 9 8 8 8 : : ; - = = 6               ",
"              7.[ [ [ 1.4.e.b.V.T.W.].{.{.{.).U.D.x.s.:.*.H v 0 9 9 8 : : ; - - = * >               ",
"              2.[ ` [ [ 1.4.f.m.C.R.!.(.).(.!.L.A.k.t.:.{ A x 9 8 8 : : ; - = = * * *               ",
"              [ ` W E W ] 1.r.b.M.G.K.I.I.I.L.A.x.j.t.&.} m t 9 8 : : : - = = = * * #               ",
"              ` ! U U T ! ] 5.r.h.M.S.S.D.D.A.x.j.t.%.O.A x e 8 : : ; - - = = * * # #               ",
"              Q T P P P E ) <.5.d.g.l.M.x.x.j.j.t.:.O.G b c 8 : : : - - = = * * # # #               ",
"              E U P s s I R ' -.9.w.a.s.s.s.p.t.:.O.} A x e 8 : : - ; = = * * * # # +               ",
"              U P s s a z V ~ / -.-.,.>.>.:.:.*.O.} A x e : : : ; = = = * * # # # + +               ",
"              U s a a a j l B F ( *.=.=.;.*.*.{ G A b r 8 : : ; ; = = = * * # # + + &               ",
"              W a a a f f f d B C D D F H H H A b x e 8 : : ; = = = * * # # @ @ + O 3               ",
"              1.a j f f f d d y n M M M S m m x r e : : ; ; ; = = * * * # # @ + O O                 ",
"              N.a j f f d d d p p p p v v u t t 8 8 : : ; ; = = = * # # # @ + + O o                 ",
"                l f f d d d y p i i w w 9 9 8 8 8 8 : - - - = = * * # # + + + O o o                 ",
"                ^ f d d y y p u w w 0 0 9 9 8 8 : : : - - = * * * # # + + O O O o 3                 ",
"                M.f d d y p u i w 0 0 9 9 8 8 8 : - - = = * * * * # # O O O O o o                   ",
"                  N y y p p i w w 0 9 9 8 8 8 ; ; - - = * * * # # + # O O O o . %                   ",
"                  a.y y p i q w 0 9 9 9 8 8 : : - - - * * * * # + + + O O o o .                     ",
"                    N u q w w 0 9 9 8 8 : : - - - = * * * * # # # O O O o o . %                     ",
"                      i w w 0 9 9 8 8 8 : : ; - = = * * # # # + O O O o o . .                       ",
"                      O.w 0 9 9 9 8 : : : - - = = * * * # # + O O O o o . . 4                       ",
"                        A 0 9 e 8 8 : : - - = = * * * # # + + O O o o . . 2                         ",
"                          b 9 e 8 : : - - = = * * # # # + + O O o o . . ,                           ",
"                            Z 8 : : - - = = * * * # # + @ O O o o . . 2                             ",
"                              } : - - - = = * * # # + + + O o o o . 4                               ",
"                                i.1 = = = * * # # # + O O o o o %                                   ",
"                                    y.6 * * # + + + + O O o 2                                       ",
"                                          ..| 5 & 3 3 4  .                                          ",
"                                                                                                    ",
"                                                                                                    ",
"                                                                                                    "
};
