/* XPM */
static char *result[] = {
/* columns rows colors chars-per-pixel */
"50 50 109 2 ",
"   c #552B03",
".  c #5D320A",
"X  c #683A15",
"o  c #6D4016",
"O  c #6E4018",
"+  c #72451B",
"@  c #754422",
"#  c #794524",
"$  c #774A26",
"%  c #7B4B25",
"&  c #7F4E29",
"*  c #7F512D",
"=  c #87342E",
"-  c #86382F",
";  c #8F3930",
":  c #983636",
">  c #AD3639",
",  c #AC3B3A",
"<  c #935A1A",
"1  c #9C621E",
"2  c #804F27",
"3  c #804D2A",
"4  c #815027",
"5  c #84532A",
"6  c #89562D",
"7  c #8C5B2E",
"8  c #885730",
"9  c #8D5C31",
"0  c #8F5E38",
"q  c #AA473B",
"w  c #AC4A3D",
"e  c #A5563C",
"r  c #A85C3E",
"t  c #946333",
"y  c #986736",
"u  c #996837",
"i  c #96653A",
"p  c #9C6B3B",
"a  c #A16722",
"s  c #A36A25",
"d  c #A06F3E",
"f  c #A1703F",
"g  c #B27932",
"h  c #B25A46",
"j  c #B75F4B",
"k  c #9C6644",
"l  c #9D6C43",
"z  c #A06F40",
"x  c #B6604B",
"c  c #A47342",
"v  c #A87745",
"b  c #A97847",
"n  c #A57448",
"m  c #AD7C4A",
"M  c #B07B40",
"N  c #B07F4D",
"B  c #A97853",
"V  c #BE795B",
"C  c #B67160",
"Z  c #BD833A",
"A  c #C0873E",
"S  c #B98141",
"D  c #B1804F",
"F  c #B58453",
"G  c #B88756",
"H  c #BA8957",
"J  c #B6845B",
"K  c #BA855A",
"L  c #BC8B5B",
"P  c #B58663",
"I  c #BD8D62",
"U  c #C89149",
"Y  c #C08F5E",
"T  c #C1905F",
"R  c #C08F61",
"E  c #C39263",
"W  c #CA9663",
"Q  c #C59469",
"!  c #C8976A",
"~  c #CB9A6E",
"^  c #CD9C73",
"/  c #D09F77",
"(  c #D4957D",
")  c #D09F7A",
"_  c #CEA177",
"`  c #D2A176",
"'  c #D4A27B",
"]  c #D7A87F",
"[  c #D6A482",
"{  c #D8A783",
"}  c #DCAA87",
"|  c #DCAB8A",
" . c #DFB48F",
".. c #E1AF8D",
"X. c #E2B18E",
"o. c #E5B493",
"O. c #E8B796",
"+. c #E7BB95",
"@. c #E9B897",
"#. c #ECBB9A",
"$. c #EEC59E",
"%. c #F1C09E",
"&. c #F4C4A2",
"*. c #F3C9A6",
"=. c #F5CAA8",
"-. c #F9C9A9",
";. c #FCD6B5",
":. c #FDDAB9",
">. c None",
/* pixels */
">.>.>.>.>.>.>.>.>.>.>.>.>.>.>.>.>.>.>.>.>.>.>.>.>.>.>.>.>.>.>.>.>.>.>.>.>.>.>.>.>.>.>.>.>.>.>.>.>.>.",
">.>.>.>.>.>.>.>.>.>.>.>.>.>.>.>.>.>.>.>.Z A s >.>.>.>.>.>.>.>.>.>.>.>.>.>.>.>.>.>.>.>.>.>.>.>.>.>.>.",
">.>.>.>.>.>.>.>.>.>.>.>.>.>.>.>.>.>.>.S M g Z a >.>.>.>.>.>.>.>.>.>.>.>.>.>.>.>.>.>.>.>.>.>.>.>.>.>.",
">.>.>.>.>.>.>.>.>.>.>.>.>.>.>.>.>.>.>.#.$.U g 1 >.>.>.>.>.>.>.>.>.>.>.>.>.>.>.>.>.>.>.>.>.>.>.>.>.>.",
">.>.>.>.>.>.>.>.>.>.>.>.>.>.>.>.>.>.>.P I W T < >.>.>.>.>.>.>.>.>.>.>.>.>.>.>.>.>.>.>.>.>.>.>.>.>.>.",
">.>.>.>.>.>.>.>.>.>.>.>.>.>.>.>.>.>.>.P _ n k 4 >.>.>.>.>.>.>.>.>.>.>.>.>.>.>.>.>.>.>.>.>.>.>.>.>.>.",
">.>.>.>.>.>.>.>.>.>.>.>.>.>.>.>.>.>.>.D F 6 $ 7 % >.>.>.>.>.>.>.>.>.>.>.>.>.>.>.>.>.>.>.>.>.>.>.>.>.",
">.>.>.>.>.>.>.>.>.>.>.>.>.>.>.>.>.>.>.>.c 9 J / E b 8 >.>.>.>.>.>.>.>.>.>.>.>.>.>.>.>.>.>.>.>.>.>.>.",
">.>.>.>.>.>.>.>.>.>.>.>.>.>.>.>.>.>.>.>.~ Q ^ @.$.} F t >.>.>.>.>.>.>.>.>.>.>.>.>.>.>.>.>.>.>.>.>.>.",
">.>.>.>.>.>.>.>.>.>.>.>.>.>.>.>.>.>.>...} Q { :.;.&.' D 5 >.>.>.>.>.>.>.>.>.>.>.>.>.>.>.>.>.>.>.>.>.",
">.>.>.>.>.>.>.>.>.>.>.>.>.>.>.>.>.>.@.o.I d Q &.%.o.^ F p % >.>.>.>.>.>.>.>.>.>.>.>.>.>.>.>.>.>.>.>.",
">.>.>.>.>.>.>.>.>.>.>.>.>.>.>.>.>.o...R p + p L E E G b p % >.>.>.>.>.>.>.>.>.>.>.>.>.>.>.>.>.>.>.>.",
">.>.>.>.>.>.>.>.>.>.>.>.>.>.>.>.L [ I z %   + p b m b p p i 5 >.>.>.>.>.>.>.>.>.>.>.>.>.>.>.>.>.>.>.",
">.>.>.>.>.>.>.>.>.>.>.>.>.>.>.>.i m p 2 o + . % D ' F c D b p 2 >.>.>.>.>.>.>.>.>.>.>.>.>.>.>.>.>.>.",
">.>.>.>.>.>.>.>.>.>.>.>.>.>.>.>.i N c n N F 6 % D } { Y b F m 9 >.>.>.>.>.>.>.>.>.>.>.>.>.>.>.>.>.>.",
">.>.>.>.>.>.>.>.>.>.>.>.>.>.>.>.>.D v L I L N 4 i E { ' D f m u # >.>.>.>.>.>.>.>.>.>.>.>.>.>.>.>.>.",
">.>.>.>.>.>.>.>.>.>.>.>.>.>.>.>.>.v c Q ' Y v 7 o d L ! L d D m 5 >.>.>.>.>.>.>.>.>.>.>.>.>.>.>.>.>.",
">.>.>.>.>.>.>.>.>.>.>.>.>.>.>.>.>.d N F D f m p % X 5 v c u f b 7 >.>.>.>.>.>.>.>.>.>.>.>.>.>.>.>.>.",
">.>.>.>.>.>.>.>.>.>.>.>.>.>.>.>.>.t b f v H v t $ X * J F b c d 4 >.>.>.>.>.>.>.>.>.>.>.>.>.>.>.>.>.",
">.>.>.>.>.>.>.>.>.>.>.>.>.>.>.>.>.f m c v f y 5 O $ } ..Y B m b 5 >.>.>.>.>.>.>.>.>.>.>.>.>.>.>.>.>.",
">.>.>.>.>.>.>.>.>.>.>.>.>.>.>.>.>.f p d c u 6 @ + B #.Q K R m c % >.>.>.>.>.>.>.>.>.>.>.>.>.>.>.>.>.",
">.>.>.>.>.>.>.>.>.>.>.>.>.>.>.>.H r q w w q ; = k R ! ^ ~ F d 6 >.>.>.>.>.>.>.>.>.>.>.>.>.>.>.>.>.>.",
">.>.>.>.>.>.>.>.>.>.>.>.>.>.>.>.E j > > > > : C | [ ) ~ m 9 4 >.>.>.>.>.>.>.>.>.>.>.>.>.>.>.>.>.>.>.",
">.>.>.>.>.>.>.>.>.>.>.>.>.>.>.>.>.x , q e V ( | | ~ K n 9 >.>.>.>.>.>.>.>.>.>.>.>.>.>.>.>.>.>.>.>.>.",
">.>.>.>.>.>.>.>.>.>.>.>.>.>.>.>.>.h K K X.%.*.X.Q F t 6 >.>.>.>.>.>.>.>.>.>.>.>.>.>.>.>.>.>.>.>.>.>.",
">.>.>.>.>.>.>.>.>.>.>.>.>.>.>.>.>.`  .E *.-.#.~ D t - >.>.>.>.>.>.>.>.>.>.>.>.>.>.>.>.>.>.>.>.>.>.>.",
">.>.>.>.>.>.>.>.>.>.>.>.>.>.>.>.] =.| 9 I +.~ m t 3 = >.>.>.>.>.>.>.>.>.>.>.>.>.>.>.>.>.>.>.>.>.>.>.",
">.>.>.>.>.>.>.>.>.>.>.>.>.>.>.{ =.=.} 0 5 m l 5 5 6 # >.>.>.>.>.>.>.>.>.>.>.>.>.>.>.>.>.>.>.>.>.>.>.",
">.>.>.>.>.>.>.>.>.>.>.>.>.>.X.&.&.o.' F 5 % + 4 7 4 7 >.>.>.>.>.>.>.>.>.>.>.>.>.>.>.>.>.>.>.>.>.>.>.",
">.>.>.>.>.>.>.>.>.>.>.>.>.>.@.#.o.' L c p 7 5 7 5 6 t t >.>.>.>.>.>.>.>.>.>.>.>.>.>.>.>.>.>.>.>.>.>.",
">.>.>.>.>.>.>.>.>.>.>.>.>.X.=.O.' L f v m p 7 5 y y t t >.>.>.>.>.>.>.>.>.>.>.>.>.>.>.>.>.>.>.>.>.>.",
">.>.>.>.>.>.>.>.>.>.>.>.>.' @.' H m v m f 7 t d f u t t t >.>.>.>.>.>.>.>.>.>.>.>.>.>.>.>.>.>.>.>.>.",
">.>.>.>.>.>.>.>.>.>.>.>.m L ` H f c c t 9 l J N c f t t t >.>.>.>.>.>.>.>.>.>.>.>.>.>.>.>.>.>.>.>.>.",
">.>.>.>.>.>.>.>.>.>.>.>.Q F G b t y 7 @ & ) ^ L m f y t t >.>.>.>.>.>.>.>.>.>.>.>.>.>.>.>.>.>.>.>.>.",
">.>.>.>.>.>.>.>.>.>.>.^ O.Q v u 7 $ >.>.>.>.) E G m f t 7 >.>.>.>.>.>.>.>.>.>.>.>.>.>.>.>.>.>.>.>.>.",
">.>.>.>.>.>.>.>.>.>.>.~ %.` m u 4 >.>.>.>.>.L G N m c f f H >.>.>.>.>.>.>.>.>.>.>.>.>.>.>.>.>.>.>.>.",
">.>.>.>.>.>.>.>.>.>.>.~ O.^ m c 9 >.>.>.>.>.>.E ^ R F f p F T L >.>.>.>.>.>.>.>.>.>.>.>.>.>.>.>.>.>.",
">.>.>.>.>.>.>.>.>.>.>.H ` E v D p # >.>.>.>.>.L ~ ^ F c y m H T G >.>.>.>.>.>.>.>.>.>.>.>.>.>.>.>.>.",
">.>.>.>.>.>.>.>.>.>.>.>.G D p H c 4 >.>.>.>.>.>.l b v p t d b F D f >.>.>.>.>.>.>.>.>.>.>.>.>.>.>.>.",
">.>.>.>.>.>.>.>.>.>.>.>.u p f F c 5 >.>.>.>.>.>.>.>.5 y p i p f v c 5 >.>.>.>.>.>.>.>.>.>.>.>.>.>.>.",
">.>.>.>.>.>.>.>.>.>.>.>.y b m m c 4 >.>.>.>.>.>.>.>.>.9 z l u u u u 7 @ >.>.>.>.>.>.>.>.>.>.>.>.>.>.",
">.>.>.>.>.>.>.>.>.>.>.>.N R F c p 2 >.>.>.>.>.>.>.>.>.>.& t c f y t t 5 >.>.>.>.>.>.>.>.>.>.>.>.>.>.",
">.>.>.>.>.>.>.>.>.>.>.>.>./ Y b 7 >.>.>.>.>.>.>.>.>.>.>.>.>.i p f p p p 7 >.>.>.>.>.>.>.>.>.>.>.>.>.",
">.>.>.>.>.>.>.>.>.>.>.>.>./ T b 7 >.>.>.>.>.>.>.>.>.>.>.>.>.>.& p b v c d 6 >.>.>.>.>.>.>.>.>.>.>.>.",
">.>.>.>.>.>.>.>.>.>.>.>.>./ E m 7 >.>.>.>.>.>.>.>.>.>.>.>.>.>.>.i L H b c y % >.>.>.>.>.>.>.>.>.>.>.",
">.>.>.>.>.>.>.>.>.>.>.>.>./ ! N 7 >.>.>.>.>.>.>.>.>.>.>.>.>.>.>.^ ' E m d 7 >.>.>.>.>.>.>.>.>.>.>.>.",
">.>.>.>.>.>.>.>.>.>.>.>.} } ) N t % >.>.>.>.>.>.>.>.>.>.>.>.>.>.[ ' F f 7 >.>.>.>.>.>.>.>.>.>.>.>.>.",
">.>.>.>.>.>.>.>.>.>.>.&.&.O.' F c 4 >.>.>.>.>.>.>.>.>.>.>.>.>.) [ ! m t % >.>.>.>.>.>.>.>.>.>.>.>.>.",
">.>.>.>.>.>.>.>.&.&.&.%.@...~ G d 5 >.>.>.>.>.>.>.>.>.>.>.>.{ ) ^ F p 2 >.>.>.>.>.>.>.>.>.>.>.>.>.>.",
">.>.>.>.>.>.>.` ] ] ] ` / L N b d 2 >.>.>.>.>.>.>.>.>.>.N J K F b p 4 >.>.>.>.>.>.>.>.>.>.>.>.>.>.>."
};
