/* XPM */
static char *result[] = {
/* columns rows colors chars-per-pixel */
"50 50 101 2 ",
"   c #673913",
".  c #6A3F15",
"X  c #7F3F28",
"o  c #75461D",
"O  c #744321",
"+  c #7A4625",
"@  c #7D4C25",
"#  c #7E4D2A",
"$  c #84362C",
"%  c #803929",
"&  c #8C3131",
"*  c #AD3B3A",
"=  c #925917",
"-  c #92591A",
";  c #804F29",
":  c #815326",
">  c #84532A",
",  c #88552C",
"<  c #8B5A2D",
"1  c #90522E",
"2  c #905F2F",
"3  c #895534",
"4  c #8E5C31",
"5  c #905F34",
"6  c #995C33",
"7  c #985138",
"8  c #AE423D",
"9  c #946333",
"0  c #986736",
"q  c #996837",
"w  c #96653B",
"e  c #9C6B3B",
"r  c #A56B25",
"t  c #AC732C",
"y  c #A2643C",
"u  c #A06F3D",
"i  c #A1703F",
"p  c #B47B33",
"a  c #B17939",
"s  c #BD5D55",
"d  c #9E6D40",
"f  c #9E6D49",
"g  c #A06F41",
"h  c #A47443",
"j  c #A87745",
"k  c #A97847",
"l  c #A67548",
"z  c #AB754B",
"x  c #AC7B4A",
"c  c #B07F4D",
"v  c #BD6955",
"b  c #A87754",
"n  c #AE7D52",
"m  c #BA8139",
"M  c #C0863D",
"N  c #B1804F",
"B  c #B58453",
"V  c #B88756",
"C  c #BA8957",
"Z  c #B68558",
"A  c #B98758",
"S  c #BC8B5B",
"D  c #B78665",
"F  c #BE8D61",
"G  c #BD8D6C",
"H  c #C08F5E",
"J  c #CA9350",
"K  c #C1905F",
"L  c #C18E62",
"P  c #C39263",
"I  c #CF9964",
"U  c #C69569",
"Y  c #CB9A6D",
"T  c #C99770",
"R  c #C79C76",
"E  c #CE9C74",
"W  c #CE9E7A",
"Q  c #D09F76",
"!  c #D2937A",
"~  c #D09E79",
"^  c #D4A37D",
"/  c #DD9E83",
"(  c #D6A483",
")  c #DAA783",
"_  c #D9A983",
"`  c #DDAC8B",
"'  c #E0AF8E",
"]  c #E2B18D",
"[  c #E5B493",
"{  c #E8B795",
"}  c #E6B994",
"|  c #E9B995",
" . c #EDBB9A",
".. c #F1BF9E",
"X. c #F2C09F",
"o. c #F5C4A2",
"O. c #F4C8A8",
"+. c #F9CBAA",
"@. c #F9D3B3",
"#. c #FFDBBA",
"$. c None",
/* pixels */
"$.$.$.$.$.$.$.$.$.$.$.$.$.$.$.$.$.$.$.$.$.$.$.$.$.$.$.$.$.$.$.$.$.$.$.$.$.$.$.$.$.$.$.$.$.$.$.$.$.$.",
"$.$.$.$.$.$.$.$.$.$.$.$.$.$.$.$.$.$.$.$.p t m t $.$.$.$.$.$.$.$.$.$.$.$.$.$.$.$.$.$.$.$.$.$.$.$.$.$.",
"$.$.$.$.$.$.$.$.$.$.$.$.$.$.$.$.$.$.$.$.I Y m M r $.$.$.$.$.$.$.$.$.$.$.$.$.$.$.$.$.$.$.$.$.$.$.$.$.",
"$.$.$.$.$.$.$.$.$.$.$.$.$.$.$.$.$.$.$.$.W _ J a = $.$.$.$.$.$.$.$.$.$.$.$.$.$.$.$.$.$.$.$.$.$.$.$.$.",
"$.$.$.$.$.$.$.$.$.$.$.$.$.$.$.$.$.$.$.$.G R L U - $.$.$.$.$.$.$.$.$.$.$.$.$.$.$.$.$.$.$.$.$.$.$.$.$.",
"$.$.$.$.$.$.$.$.$.$.$.$.$.$.$.$.$.$.$.$.N F 9 # @ $.$.$.$.$.$.$.$.$.$.$.$.$.$.$.$.$.$.$.$.$.$.$.$.$.",
"$.$.$.$.$.$.$.$.$.$.$.$.$.$.$.$.$.$.$.$.S N # 4 u w < $.$.$.$.$.$.$.$.$.$.$.$.$.$.$.$.$.$.$.$.$.$.$.",
"$.$.$.$.$.$.$.$.$.$.$.$.$.$.$.$.$.$.$.$.$.x g ^ [ ' S q : $.$.$.$.$.$.$.$.$.$.$.$.$.$.$.$.$.$.$.$.$.",
"$.$.$.$.$.$.$.$.$.$.$.$.$.$.$.$.$.$.$.$._ F E @.#.+.` V q @ $.$.$.$.$.$.$.$.$.$.$.$.$.$.$.$.$.$.$.$.",
"$.$.$.$.$.$.$.$.$.$.$.$.$.$.$.$.$.$.$. . .T V } X.| ^ V h > $.$.$.$.$.$.$.$.$.$.$.$.$.$.$.$.$.$.$.$.",
"$.$.$.$.$.$.$.$.$.$.$.$.$.$.$.$.$.$. .o.( l 9 N K F C k e < O $.$.$.$.$.$.$.$.$.$.$.$.$.$.$.$.$.$.$.",
"$.$.$.$.$.$.$.$.$.$.$.$.$.$.$.$.$.^ .._ l o   < l N k e i e < $.$.$.$.$.$.$.$.$.$.$.$.$.$.$.$.$.$.$.",
"$.$.$.$.$.$.$.$.$.$.$.$.$.$.$.$.$.V E j @ # . o h ^ U i N N e @ $.$.$.$.$.$.$.$.$.$.$.$.$.$.$.$.$.$.",
"$.$.$.$.$.$.$.$.$.$.$.$.$.$.$.$.$.q u w G ~ x @ h ^ ` U N N k , $.$.$.$.$.$.$.$.$.$.$.$.$.$.$.$.$.$.",
"$.$.$.$.$.$.$.$.$.$.$.$.$.$.$.$.$.$.V n E F B i e Q ` E N N k < + $.$.$.$.$.$.$.$.$.$.$.$.$.$.$.$.$.",
"$.$.$.$.$.$.$.$.$.$.$.$.$.$.$.$.$.$.h i F W E x 3 N Y P k N x 9 @ $.$.$.$.$.$.$.$.$.$.$.$.$.$.$.$.$.",
"$.$.$.$.$.$.$.$.$.$.$.$.$.$.$.$.$.$.x x U U B x : : j h e N B 9 : $.$.$.$.$.$.$.$.$.$.$.$.$.$.$.$.$.",
"$.$.$.$.$.$.$.$.$.$.$.$.$.$.$.$.$.$.0 k k N S n , O b V N B N 0 @ $.$.$.$.$.$.$.$.$.$.$.$.$.$.$.$.$.",
"$.$.$.$.$.$.$.$.$.$.$.$.$.$.$.$.$.$.e N j N n 9 # D O.] K x h e + $.$.$.$.$.$.$.$.$.$.$.$.$.$.$.$.$.",
"$.$.$.$.$.$.$.$.$.$.$.$.$.$.$.$.$.$.e i i x i @ w } | Y V x N , O $.$.$.$.$.$.$.$.$.$.$.$.$.$.$.$.$.",
"$.$.$.$.$.$.$.$.$.$.$.$.$.$.$.$.$.$.6 y y y 1 3 Z P F C N k 0 @ $.$.$.$.$.$.$.$.$.$.$.$.$.$.$.$.$.$.",
"$.$.$.$.$.$.$.$.$.$.$.$.$.$.$.$.$.$.* * * 8 v ! ^ U V j e , @ $.$.$.$.$.$.$.$.$.$.$.$.$.$.$.$.$.$.$.",
"$.$.$.$.$.$.$.$.$.$.$.$.$.$.$.$.$.$.* s ! / { ( S k 0 , + $.$.$.$.$.$.$.$.$.$.$.$.$.$.$.$.$.$.$.$.$.",
"$.$.$.$.$.$.$.$.$.$.$.$.$.$.$.$.$.$.s ) +.O.[ A e 4 X $ & $.$.$.$.$.$.$.$.$.$.$.$.$.$.$.$.$.$.$.$.$.",
"$.$.$.$.$.$.$.$.$.$.$.$.$.$.$.$.$.$.* z | { S e ; + + $ & $.$.$.$.$.$.$.$.$.$.$.$.$.$.$.$.$.$.$.$.$.",
"$.$.$.$.$.$.$.$.$.$.$.$.$.$.$.$.$.$.7 3 h l 5 3 4 2 < + % $.$.$.$.$.$.$.$.$.$.$.$.$.$.$.$.$.$.$.$.$.",
"$.$.$.$.$.$.$.$.$.$.$.$.$.$.$.$.$.$.j g f > d h e 9 9 : O $.$.$.$.$.$.$.$.$.$.$.$.$.$.$.$.$.$.$.$.$.",
"$.$.$.$.$.$.$.$.$.$.$.$.$.$.$.$.$.l N x ` | ^ V i q 9 : $.$.$.$.$.$.$.$.$.$.$.$.$.$.$.$.$.$.$.$.$.$.",
"$.$.$.$.$.$.$.$.$.$.$.$.$.$.$.$.$.k C x { o.' P i e 0 : $.$.$.$.$.$.$.$.$.$.$.$.$.$.$.$.$.$.$.$.$.$.",
"$.$.$.$.$.$.$.$.$.$.$.$.$.$.$.$.$.V H x ] o.` U g e 0 : $.$.$.$.$.$.$.$.$.$.$.$.$.$.$.$.$.$.$.$.$.$.",
"$.$.$.$.$.$.$.$.$.$.$.$.$.$.$.$.$.C H h T ` ~ P u e q : $.$.$.$.$.$.$.$.$.$.$.$.$.$.$.$.$.$.$.$.$.$.",
"$.$.$.$.$.$.$.$.$.$.$.$.$.$.$.$.$.C P e B P P B q e < + $.$.$.$.$.$.$.$.$.$.$.$.$.$.$.$.$.$.$.$.$.$.",
"$.$.$.$.$.$.$.$.$.$.$.$.$.$.$.$.$.C P 9 e x x h 0 0 < $.$.$.$.$.$.$.$.$.$.$.$.$.$.$.$.$.$.$.$.$.$.$.",
"$.$.$.$.$.$.$.$.$.$.$.$.$.$.$.$.$.C P q 9 S E c e 9 < $.$.$.$.$.$.$.$.$.$.$.$.$.$.$.$.$.$.$.$.$.$.$.",
"$.$.$.$.$.$.$.$.$.$.$.$.$.$.$.$.$.V K d 4 Q ` U i 9 < $.$.$.$.$.$.$.$.$.$.$.$.$.$.$.$.$.$.$.$.$.$.$.",
"$.$.$.$.$.$.$.$.$.$.$.$.$.$.$.$.$.x V w 4 P ^ K h i 9 : $.$.$.$.$.$.$.$.$.$.$.$.$.$.$.$.$.$.$.$.$.$.",
"$.$.$.$.$.$.$.$.$.$.$.$.$.$.$.$.$.h x q 3 c H N e u i 9 + $.$.$.$.$.$.$.$.$.$.$.$.$.$.$.$.$.$.$.$.$.",
"$.$.$.$.$.$.$.$.$.$.$.$.$.$.$.$.$.$.e e > 9 l u j c h e < $.$.$.$.$.$.$.$.$.$.$.$.$.$.$.$.$.$.$.$.$.",
"$.$.$.$.$.$.$.$.$.$.$.$.$.$.$.$.$.$.$.9 9 > > u P Y V h < O $.$.$.$.$.$.$.$.$.$.$.$.$.$.$.$.$.$.$.$.",
"$.$.$.$.$.$.$.$.$.$.$.$.$.$.$.$.$.$.$.$.q q : x T ( P x 2 O $.$.$.$.$.$.$.$.$.$.$.$.$.$.$.$.$.$.$.$.",
"$.$.$.$.$.$.$.$.$.$.$.$.$.$.$.$.$.$.$.$.$.q @ h T ( P k 5 O $.$.$.$.$.$.$.$.$.$.$.$.$.$.$.$.$.$.$.$.",
"$.$.$.$.$.$.$.$.$.$.$.$.$.$.$.$.$.$.$.$.$.$.> d T ( P k > $.$.$.$.$.$.$.$.$.$.$.$.$.$.$.$.$.$.$.$.$.",
"$.$.$.$.$.$.$.$.$.$.$.$.$.$.$.$.$.$.$.$.$.$., > F ^ P i + $.$.$.$.$.$.$.$.$.$.$.$.$.$.$.$.$.$.$.$.$.",
"$.$.$.$.$.$.$.$.$.$.$.$.$.$.$.$.$.$.$.$.$.$.$.# B E P g + $.$.$.$.$.$.$.$.$.$.$.$.$.$.$.$.$.$.$.$.$.",
"$.$.$.$.$.$.$.$.$.$.$.$.$.$.$.$.$.$.$.$.$.$.$.# Z Q P i ; $.$.$.$.$.$.$.$.$.$.$.$.$.$.$.$.$.$.$.$.$.",
"$.$.$.$.$.$.$.$.$.$.$.$.$.$.$.$.$.$.$.$.$.$.$.> U ^ P i ; 9 $.$.$.$.$.$.$.$.$.$.$.$.$.$.$.$.$.$.$.$.",
"$.$.$.$.$.$.$.$.$.$.$.$.$.$.$.$.$.$.$.$.$.$.$.D [ _ P i @ 9 $.$.$.$.$.$.$.$.$.$.$.$.$.$.$.$.$.$.$.$.",
"$.$.$.$.$.$.$.$.$.$.$.$.$.$.$.$.$.$.$.$.$.$.( [ [ ` W i : 9 $.$.$.$.$.$.$.$.$.$.$.$.$.$.$.$.$.$.$.$.",
"$.$.$.$.$.$.$.$.$.$.$.$.$.$.$.$.$.$.$.$._ [ [ [ [ ` E i + $.$.$.$.$.$.$.$.$.$.$.$.$.$.$.$.$.$.$.$.$.",
"$.$.$.$.$.$.$.$.$.$.$.$.$.$.$.$.$.E ^ _ ) _ _ _ ^ Q S q O $.$.$.$.$.$.$.$.$.$.$.$.$.$.$.$.$.$.$.$.$."
};
