/* XPM */
static char *result[] = {
/* columns rows colors chars-per-pixel */
"50 50 102 2 ",
"   c #592E07",
".  c #5E2A0A",
"X  c #60330E",
"o  c #6E2D17",
"O  c #712E1B",
"+  c #673312",
"@  c #7D3E27",
"#  c #6F4119",
"$  c #71411C",
"%  c #744321",
"&  c #7C4B25",
"*  c #812F28",
"=  c #87382E",
"-  c #8C3131",
";  c #983B30",
":  c #894F0B",
">  c #8D5310",
",  c #975E1A",
"<  c #804F27",
"1  c #8C452F",
"2  c #814F29",
"3  c #805226",
"4  c #84532A",
"5  c #89562C",
"6  c #8B5A2D",
"7  c #905F2F",
"8  c #914C31",
"9  c #984B36",
"0  c #855732",
"q  c #875A31",
"w  c #8C5B31",
"e  c #905E33",
"r  c #9C6323",
"t  c #91602F",
"y  c #946333",
"u  c #986735",
"i  c #996836",
"p  c #96653A",
"a  c #9D6C3B",
"s  c #AF762E",
"d  c #A06F3E",
"f  c #A1703F",
"g  c #AA733E",
"h  c #B37A32",
"j  c #AD5C46",
"k  c #9B6B45",
"l  c #9E6D49",
"z  c #A06F40",
"x  c #A47342",
"c  c #A87745",
"v  c #A97847",
"b  c #A6754A",
"n  c #AD7C4A",
"m  c #B07F4D",
"M  c #A77654",
"N  c #B17F50",
"B  c #BC833F",
"V  c #BB8646",
"C  c #B2814F",
"Z  c #B48352",
"A  c #B88755",
"S  c #B98857",
"D  c #B68558",
"F  c #B8875C",
"G  c #BC8B5B",
"H  c #BD8D62",
"J  c #C18F5E",
"K  c #C18F63",
"L  c #C39264",
"P  c #C89767",
"I  c #C5946B",
"U  c #C8976D",
"Y  c #CA986D",
"T  c #C79672",
"R  c #C89776",
"E  c #CD9B72",
"W  c #CE9D78",
"Q  c #D19E79",
"!  c #D3A167",
"~  c #D1A074",
"^  c #D4A27C",
"/  c #D6A581",
"(  c #DAA682",
")  c #DBAA85",
"_  c #DDAD8B",
"`  c #DDB38B",
"'  c #E0AF8E",
"]  c #E3B18F",
"[  c #E5B392",
"{  c #E8B694",
"}  c #E9B896",
"|  c #ECBB9A",
" . c #F1BF9D",
".. c #F2C09F",
"X. c #F4C4A2",
"o. c #F8C6A5",
"O. c #F5C8A6",
"+. c #F3CFAA",
"@. c #FACBAA",
"#. c #FDD6B6",
"$. c #FFDDBC",
"%. c None",
/* pixels */
"%.%.%.%.%.%.%.%.%.%.%.%.%.%.%.%.%.%.%.%.%.%.%.%.%.%.%.%.%.%.%.%.%.%.%.%.%.%.%.%.%.%.%.%.%.%.%.%.%.%.",
"%.%.%.%.%.%.%.%.%.%.%.%.%.%.%.%.%.%.%.%.%.s h B , %.%.%.%.%.%.%.%.%.%.%.%.%.%.%.%.%.%.%.%.%.%.%.%.%.",
"%.%.%.%.%.%.%.%.%.%.%.%.%.%.%.%.%.%.%.%.%.~ V B s %.%.%.%.%.%.%.%.%.%.%.%.%.%.%.%.%.%.%.%.%.%.%.%.%.",
"%.%.%.%.%.%.%.%.%.%.%.%.%.%.%.%.%.%.%.%.%._ ! B r > %.%.%.%.%.%.%.%.%.%.%.%.%.%.%.%.%.%.%.%.%.%.%.%.",
"%.%.%.%.%.%.%.%.%.%.%.%.%.%.%.%.%.%.%.%.R H R J g : %.%.%.%.%.%.%.%.%.%.%.%.%.%.%.%.%.%.%.%.%.%.%.%.",
"%.%.%.%.%.%.%.%.%.%.%.%.%.%.%.%.%.%.%.%.k I b 4 4 %.%.%.%.%.%.%.%.%.%.%.%.%.%.%.%.%.%.%.%.%.%.%.%.%.",
"%.%.%.%.%.%.%.%.%.%.%.%.%.%.%.%.%.%.%.%.%.Z p w x p 5 %.%.%.%.%.%.%.%.%.%.%.%.%.%.%.%.%.%.%.%.%.%.%.",
"%.%.%.%.%.%.%.%.%.%.%.%.%.%.%.%.%.%.%.%.%.f x / ` ^ S e %.%.%.%.%.%.%.%.%.%.%.%.%.%.%.%.%.%.%.%.%.%.",
"%.%.%.%.%.%.%.%.%.%.%.%.%.%.%.%.%.%.%.%.Y C ) $.#.X.~ n 4 %.%.%.%.%.%.%.%.%.%.%.%.%.%.%.%.%.%.%.%.%.",
"%.%.%.%.%.%.%.%.%.%.%.%.%.%.%.%.%.%.%.{ W z P O...{ E m 4 %.%.%.%.%.%.%.%.%.%.%.%.%.%.%.%.%.%.%.%.%.",
"%.%.%.%.%.%.%.%.%.%.%.%.%.%.%.%.%.%.^ } T 4 k J P L S x 6 % %.%.%.%.%.%.%.%.%.%.%.%.%.%.%.%.%.%.%.%.",
"%.%.%.%.%.%.%.%.%.%.%.%.%.%.%.%.%.P { ^ a $ 6 f n n x a a 6 % %.%.%.%.%.%.%.%.%.%.%.%.%.%.%.%.%.%.%.",
"%.%.%.%.%.%.%.%.%.%.%.%.%.%.%.%.%.Z U x & X $ f ^ Q n a A x 4 %.%.%.%.%.%.%.%.%.%.%.%.%.%.%.%.%.%.%.",
"%.%.%.%.%.%.%.%.%.%.%.%.%.%.%.%.%.y d 4 l q & x ] { U c Z C q % %.%.%.%.%.%.%.%.%.%.%.%.%.%.%.%.%.%.",
"%.%.%.%.%.%.%.%.%.%.%.%.%.%.%.%.%.%.A v U m t i ) [ E Z Z S i & %.%.%.%.%.%.%.%.%.%.%.%.%.%.%.%.%.%.",
"%.%.%.%.%.%.%.%.%.%.%.%.%.%.%.%.%.%.n c n U k 4 I ) L n Z A x & %.%.%.%.%.%.%.%.%.%.%.%.%.%.%.%.%.%.",
"%.%.%.%.%.%.%.%.%.%.%.%.%.%.%.%.%.%.a v D ^ n 4 a G n f n G v 4 % %.%.%.%.%.%.%.%.%.%.%.%.%.%.%.%.%.",
"%.%.%.%.%.%.%.%.%.%.%.%.%.%.%.%.%.%.y n n m x 6 0 F F c m G v 2 % %.%.%.%.%.%.%.%.%.%.%.%.%.%.%.%.%.",
"%.%.%.%.%.%.%.%.%.%.%.%.%.%.%.%.%.%.%.x x c b b _  .) L K x u & @ %.%.%.%.%.%.%.%.%.%.%.%.%.%.%.%.%.",
"%.%.%.%.%.%.%.%.%.%.%.%.%.%.%.%.%.%.%.c v c K ^ _ E L Y A C 4 # %.%.%.%.%.%.%.%.%.%.%.%.%.%.%.%.%.%.",
"%.%.%.%.%.%.%.%.%.%.%.%.%.%.%.%.%.%.%.v L ^ E U U T I Z n f # %.%.%.%.%.%.%.%.%.%.%.%.%.%.%.%.%.%.%.",
"%.%.%.%.%.%.%.%.%.%.%.%.%.%.%.%.%.$.O.{ }  .) E K m u 7 3 #   %.%.%.%.%.%.%.%.%.%.%.%.%.%.%.%.%.%.%.",
"%.%.%.%.%.%.%.%.%.%.%.%.%.%.%.%.k +.@.o.} Q H F p 4 $ + o . %.%.%.%.%.%.%.%.%.%.%.%.%.%.%.%.%.%.%.%.",
"%.%.%.%.%.%.%.%.%.%.%.%.%.%.%.%.w ` O...Y b 2 % + X O * - %.%.%.%.%.%.%.%.%.%.%.%.%.%.%.%.%.%.%.%.%.",
"%.%.%.%.%.%.%.%.%.%.%.%.%.%.%.%.%.k n b w 1 2 8 9 1 1 = - %.%.%.%.%.%.%.%.%.%.%.%.%.%.%.%.%.%.%.%.%.",
"%.%.%.%.%.%.%.%.%.%.%.%.%.%.%.%.%.c 4 8 ; j Q Y n u t 5 @ %.%.%.%.%.%.%.%.%.%.%.%.%.%.%.%.%.%.%.%.%.",
"%.%.%.%.%.%.%.%.%.%.%.%.%.%.%.%.%.U v 5 j ( | ^ C t a y 4 %.%.%.%.%.%.%.%.%.%.%.%.%.%.%.%.%.%.%.%.%.",
"%.%.%.%.%.%.%.%.%.%.%.%.%.%.%.%.^ ^ D z j ' X.) C t d d 4 % %.%.%.%.%.%.%.%.%.%.%.%.%.%.%.%.%.%.%.%.",
"%.%.%.%.%.%.%.%.%.%.%.%.%.%.%.^ ] E Z x 5 ^ X.) Z d a f t & %.%.%.%.%.%.%.%.%.%.%.%.%.%.%.%.%.%.%.%.",
"%.%.%.%.%.%.%.%.%.%.%.%.%.%.%.) ' U Z v q H ..] P x a f t & %.%.%.%.%.%.%.%.%.%.%.%.%.%.%.%.%.%.%.%.",
"%.%.%.%.%.%.%.%.%.%.%.%.%.%.E ' ' K N G p M ..| Y g u f y 6 %.%.%.%.%.%.%.%.%.%.%.%.%.%.%.%.%.%.%.%.",
"%.%.%.%.%.%.%.%.%.%.%.%.%.%.E ` ^ S C G x b ] ..E c i a y 6 % %.%.%.%.%.%.%.%.%.%.%.%.%.%.%.%.%.%.%.",
"%.%.%.%.%.%.%.%.%.%.%.%.%.Z G ^ Y G v x t 4 T { ~ v i a u 6 %.%.%.%.%.%.%.%.%.%.%.%.%.%.%.%.%.%.%.%.",
"%.%.%.%.%.%.%.%.%.%.%.%.%.c v S L Z a y & %.b F K K v u t & %.%.%.%.%.%.%.%.%.%.%.%.%.%.%.%.%.%.%.%.",
"%.%.%.%.%.%.%.%.%.%.%.%.%.L H v Z c y 5 %.%.%.z ) ' I v y 6 6 & %.%.%.%.%.%.%.%.%.%.%.%.%.%.%.%.%.%.",
"%.%.%.%.%.%.%.%.%.%.%.%.%.W Q n d y & %.%.%.%.%.] [ Y C a f c a 6 & %.%.%.%.%.%.%.%.%.%.%.%.%.%.%.%.",
"%.%.%.%.%.%.%.%.%.%.%.%.%.G I c y 6 %.%.%.%.%.%.F Y L C d n A m x w %.%.%.%.%.%.%.%.%.%.%.%.%.%.%.%.",
"%.%.%.%.%.%.%.%.%.%.%.%.%.v n a f c a %.%.%.%.%.a n m f u x N Z m a < %.%.%.%.%.%.%.%.%.%.%.%.%.%.%.",
"%.%.%.%.%.%.%.%.%.%.%.%.%.i u x J A x %.%.%.%.%.%.6 4 t k a x C m x 6 %.%.%.%.%.%.%.%.%.%.%.%.%.%.%.",
"%.%.%.%.%.%.%.%.%.%.%.%.%.x d S P G f y %.%.%.%.%.%.%.& w n x x x f y < %.%.%.%.%.%.%.%.%.%.%.%.%.%.",
"%.%.%.%.%.%.%.%.%.%.%.%.%.c n S L G f %.%.%.%.%.%.%.%.%.% e n v a a t 6 % %.%.%.%.%.%.%.%.%.%.%.%.%.",
"%.%.%.%.%.%.%.%.%.%.%.%.%.%.C C J Z g %.%.%.%.%.%.%.%.%.%.%.y m C c d a 6 % %.%.%.%.%.%.%.%.%.%.%.%.",
"%.%.%.%.%.%.%.%.%.%.%.%.%.%.C n C C f %.%.%.%.%.%.%.%.%.%.%.%.e m Z n f f w % %.%.%.%.%.%.%.%.%.%.%.",
"%.%.%.%.%.%.%.%.%.%.%.%.%.%.n c f g a %.%.%.%.%.%.%.%.%.%.%.%.%.y m C x x f 6 4 %.%.%.%.%.%.%.%.%.%.",
"%.%.%.%.%.%.%.%.%.%.%.%.%.%.v C f y t %.%.%.%.%.%.%.%.%.%.%.%.%.%.i C v x x d y & %.%.%.%.%.%.%.%.%.",
"%.%.%.%.%.%.%.%.%.%.%.%.%.%.v Z f y y %.%.%.%.%.%.%.%.%.%.%.%.%.%.a G H n v x 6 & %.%.%.%.%.%.%.%.%.",
"%.%.%.%.%.%.%.%.%.%.%.%.%.Z H G f y y %.%.%.%.%.%.%.%.%.%.%.%.%.%.F ) ) L n d 4 %.%.%.%.%.%.%.%.%.%.",
"%.%.%.%.%.%.%.%.%.%.%.%.Q ^ ^ J g f y %.%.%.%.%.%.%.%.%.%.%.%.%.D ) { _ H x 6 %.%.%.%.%.%.%.%.%.%.%.",
"%.%.%.%.%.%.%.%.J U ^ ~ / Y H C c x y y %.%.%.%.%.%.%.%.%.%.%.^ _ } ' U x 6 %.%.%.%.%.%.%.%.%.%.%.%.",
"%.%.%.%.%.%.%.x C K L I H N x p e y y %.%.%.%.%.%.%.%.%.%.%.L ^ _ ) I x 5 %.%.%.%.%.%.%.%.%.%.%.%.%."
};
