/* XPM */
static char *result[] = {
/* columns rows colors chars-per-pixel */
"50 50 105 2 ",
"   c #552B03",
".  c #5D320A",
"X  c #683A15",
"o  c #6D4016",
"O  c #6E4018",
"+  c #72451B",
"@  c #754422",
"#  c #794524",
"$  c #774A26",
"%  c #7B4B25",
"&  c #7F4E29",
"*  c #7F512D",
"=  c #87342E",
"-  c #86382F",
";  c #8F3930",
":  c #983636",
">  c #AD3639",
",  c #AC3B3A",
"<  c #935A1A",
"1  c #9C621E",
"2  c #804F27",
"3  c #804D2A",
"4  c #815027",
"5  c #84532A",
"6  c #89562D",
"7  c #8C5B2E",
"8  c #885730",
"9  c #8D5C31",
"0  c #8F5E38",
"q  c #AA473B",
"w  c #AC4A3D",
"e  c #A5563C",
"r  c #A85C3E",
"t  c #946333",
"y  c #986736",
"u  c #996837",
"i  c #96653A",
"p  c #9C6B3B",
"a  c #A36A25",
"s  c #A06F3E",
"d  c #A1703F",
"f  c #B27932",
"g  c #B75F4B",
"h  c #9C6644",
"j  c #9D6C43",
"k  c #A06F40",
"l  c #B6604B",
"z  c #A47342",
"x  c #A87745",
"c  c #A97847",
"v  c #A57448",
"b  c #AD7C4A",
"n  c #B07F4D",
"m  c #A97853",
"M  c #BE795B",
"N  c #B67160",
"B  c #BD833A",
"V  c #C0873E",
"C  c #B1804F",
"Z  c #B58453",
"A  c #B88756",
"S  c #BA8957",
"D  c #B6845B",
"F  c #BA855A",
"G  c #BC8B5B",
"H  c #B58663",
"J  c #BD8D62",
"K  c #C89149",
"L  c #C08F5E",
"P  c #C1905F",
"I  c #C08F61",
"U  c #C39263",
"Y  c #CA9663",
"T  c #C59469",
"R  c #C8976A",
"E  c #CB9A6E",
"W  c #CD9C73",
"Q  c #D09F77",
"!  c #D4957D",
"~  c #D09F7A",
"^  c #CEA177",
"/  c #D2A176",
"(  c #D4A27B",
")  c #D7A87F",
"_  c #D6A482",
"`  c #D8A783",
"'  c #DCAA87",
"]  c #DCAB8A",
"[  c #DFB48F",
"{  c #E1AF8D",
"}  c #E2B18E",
"|  c #E5B493",
" . c #E8B796",
".. c #E7BB95",
"X. c #E9B897",
"o. c #ECBB9A",
"O. c #EEC59E",
"+. c #F1C09E",
"@. c #F4C4A2",
"#. c #F3C9A6",
"$. c #F5CAA8",
"%. c #F9C9A9",
"&. c #FCD6B5",
"*. c #FDDAB9",
"=. c None",
/* pixels */
"=.=.=.=.=.=.=.=.=.=.=.=.=.=.=.=.=.=.=.=.=.=.=.=.=.=.=.=.=.=.=.=.=.=.=.=.=.=.=.=.=.=.=.=.=.=.=.=.=.=.",
"=.=.=.=.=.=.=.=.=.=.=.=.=.=.=.=.=.=.=.=.=.=.=.=.=.=.=.=.=.=.=.=.=.=.=.=.=.=.=.=.=.=.=.=.=.=.=.=.=.=.",
"=.=.=.=.=.=.=.=.=.=.=.=.=.=.=.=.=.=.=.=.=.=.=.=.=.=.=.=.=.=.=.=.=.=.=.=.=.=.=.=.=.=.=.=.=.=.=.=.=.=.",
"=.=.=.=.=.=.=.=.=.=.=.=.=.=.=.=.=.=.=.=.=.=.=.=.=.=.=.=.=.=.=.=.=.=.=.=.=.=.=.=.=.=.=.=.=.=.=.=.=.=.",
"=.=.=.=.=.=.=.=.=.=.=.=.=.=.=.=.=.=.=.=.=.=.=.=.=.=.=.=.=.=.=.=.=.=.=.=.=.=.=.=.=.=.=.=.=.=.=.=.=.=.",
"=.=.=.=.=.=.=.=.=.=.=.=.=.=.=.=.=.=.=.=.=.=.=.=.=.=.=.=.=.=.=.=.=.=.=.=.=.=.=.=.=.=.=.=.=.=.=.=.=.=.",
"=.=.=.=.=.=.=.=.=.=.=.=.=.=.=.=.=.=.=.=.=.=.=.=.=.=.=.=.=.=.=.=.=.=.=.=.=.=.=.=.=.=.=.=.=.=.=.=.=.=.",
"=.=.=.=.=.=.=.=.=.=.=.=.=.=.=.=.=.=.=.=.=.=.=.=.=.=.=.=.=.=.=.=.=.=.=.=.=.=.=.=.=.=.=.=.=.=.=.=.=.=.",
"=.=.=.=.=.=.=.=.=.=.=.=.=.=.=.=.=.=.=.=.=.=.=.=.=.=.=.=.=.=.=.=.=.=.=.=.=.=.=.=.=.=.=.=.=.=.=.=.=.=.",
"=.=.=.=.=.=.=.=.=.=.=.=.=.=.=.=.=.=.=.=.=.=.=.=.=.=.=.=.=.=.=.=.=.=.=.=.=.=.=.=.=.=.=.=.=.=.=.=.=.=.",
"=.=.=.=.=.=.=.=.=.=.=.=.=.=.=.=.=.=.=.=.=.=.=.=.=.=.=.=.=.=.=.=.=.=.=.=.=.=.=.=.=.=.=.=.=.=.=.=.=.=.",
"=.=.=.=.=.=.=.=.=.=.=.=.=.=.=.=.=.=.=.=.=.=.=.=.=.=.=.=.=.=.=.=.=.=.=.=.=.=.=.=.=.=.=.=.=.=.=.=.=.=.",
"=.=.=.=.=.=.=.=.=.=.=.=.=.=.=.=.=.=.=.=.B V a =.=.=.=.=.=.=.=.=.=.=.=.=.=.=.=.=.=.=.=.=.=.=.=.=.=.=.",
"=.=.=.=.=.=.=.=.=.=.=.=.=.=.=.=.=.=.=.o.O.K f 1 =.=.=.=.=.=.=.=.=.=.=.=.=.=.=.=.=.=.=.=.=.=.=.=.=.=.",
"=.=.=.=.=.=.=.=.=.=.=.=.=.=.=.=.=.=.=.H J Y P < =.=.=.=.=.=.=.=.=.=.=.=.=.=.=.=.=.=.=.=.=.=.=.=.=.=.",
"=.=.=.=.=.=.=.=.=.=.=.=.=.=.=.=.=.=.=.H ^ v h 4 =.=.=.=.=.=.=.=.=.=.=.=.=.=.=.=.=.=.=.=.=.=.=.=.=.=.",
"=.=.=.=.=.=.=.=.=.=.=.=.=.=.=.=.=.=.=.=.z 9 D Q U c 8 =.=.=.=.=.=.=.=.=.=.=.=.=.=.=.=.=.=.=.=.=.=.=.",
"=.=.=.=.=.=.=.=.=.=.=.=.=.=.=.=.=.=.=.=.E T W X.O.' Z t =.=.=.=.=.=.=.=.=.=.=.=.=.=.=.=.=.=.=.=.=.=.",
"=.=.=.=.=.=.=.=.=.=.=.=.=.=.=.=.=.=.=.{ ' T ` *.&.@.( C 5 =.=.=.=.=.=.=.=.=.=.=.=.=.=.=.=.=.=.=.=.=.",
"=.=.=.=.=.=.=.=.=.=.=.=.=.=.=.=.=.=.X.| J s T @.+.| W Z p % =.=.=.=.=.=.=.=.=.=.=.=.=.=.=.=.=.=.=.=.",
"=.=.=.=.=.=.=.=.=.=.=.=.=.=.=.=.G _ J k %   + p c b c p p i 5 =.=.=.=.=.=.=.=.=.=.=.=.=.=.=.=.=.=.=.",
"=.=.=.=.=.=.=.=.=.=.=.=.=.=.=.=.i b p 2 o + . % C ( Z z C c p 2 =.=.=.=.=.=.=.=.=.=.=.=.=.=.=.=.=.=.",
"=.=.=.=.=.=.=.=.=.=.=.=.=.=.=.=.i n z v n Z 6 % C ' ` L c Z b 9 =.=.=.=.=.=.=.=.=.=.=.=.=.=.=.=.=.=.",
"=.=.=.=.=.=.=.=.=.=.=.=.=.=.=.=.=.x z T ( L x 7 o s G R G s C b 5 =.=.=.=.=.=.=.=.=.=.=.=.=.=.=.=.=.",
"=.=.=.=.=.=.=.=.=.=.=.=.=.=.=.=.=.s n Z C d b p % X 5 x z u d c 7 =.=.=.=.=.=.=.=.=.=.=.=.=.=.=.=.=.",
"=.=.=.=.=.=.=.=.=.=.=.=.=.=.=.=.=.t c d x S x t $ X * D Z c z s 4 =.=.=.=.=.=.=.=.=.=.=.=.=.=.=.=.=.",
"=.=.=.=.=.=.=.=.=.=.=.=.=.=.=.=.=.d b z x d y 5 O $ ' { L m b c 5 =.=.=.=.=.=.=.=.=.=.=.=.=.=.=.=.=.",
"=.=.=.=.=.=.=.=.=.=.=.=.=.=.=.=.S r q w w q ; = h I R W E Z s 6 =.=.=.=.=.=.=.=.=.=.=.=.=.=.=.=.=.=.",
"=.=.=.=.=.=.=.=.=.=.=.=.=.=.=.=.U g > > > > : N ] _ ~ E b 9 4 =.=.=.=.=.=.=.=.=.=.=.=.=.=.=.=.=.=.=.",
"=.=.=.=.=.=.=.=.=.=.=.=.=.=.=.=.=.l , q e M ! ] ] E F v 9 =.=.=.=.=.=.=.=.=.=.=.=.=.=.=.=.=.=.=.=.=.",
"=.=.=.=.=.=.=.=.=.=.=.=.=.=.=.=.=./ [ U #.%.o.E C t - =.=.=.=.=.=.=.=.=.=.=.=.=.=.=.=.=.=.=.=.=.=.=.",
"=.=.=.=.=.=.=.=.=.=.=.=.=.=.=.=.) $.] 9 J ..E b t 3 = =.=.=.=.=.=.=.=.=.=.=.=.=.=.=.=.=.=.=.=.=.=.=.",
"=.=.=.=.=.=.=.=.=.=.=.=.=.=.=.` $.$.' 0 5 b j 5 5 6 # =.=.=.=.=.=.=.=.=.=.=.=.=.=.=.=.=.=.=.=.=.=.=.",
"=.=.=.=.=.=.=.=.=.=.=.=.=.=.} @.@.| ( Z 5 % + 4 7 4 7 =.=.=.=.=.=.=.=.=.=.=.=.=.=.=.=.=.=.=.=.=.=.=.",
"=.=.=.=.=.=.=.=.=.=.=.=.=.} $. .( G d x b p 7 5 y y t t =.=.=.=.=.=.=.=.=.=.=.=.=.=.=.=.=.=.=.=.=.=.",
"=.=.=.=.=.=.=.=.=.=.=.=.=.( X.( S b x b d 7 t s d u t t t =.=.=.=.=.=.=.=.=.=.=.=.=.=.=.=.=.=.=.=.=.",
"=.=.=.=.=.=.=.=.=.=.=.=.b G / S d z z t 9 j D n z d t t t =.=.=.=.=.=.=.=.=.=.=.=.=.=.=.=.=.=.=.=.=.",
"=.=.=.=.=.=.=.=.=.=.=.=.T Z A c t y 7 @ & ~ W G b d y t t =.=.=.=.=.=.=.=.=.=.=.=.=.=.=.=.=.=.=.=.=.",
"=.=.=.=.=.=.=.=.=.=.=.E +./ b u 4 =.=.=.=.=.G A n b z d d S =.=.=.=.=.=.=.=.=.=.=.=.=.=.=.=.=.=.=.=.",
"=.=.=.=.=.=.=.=.=.=.=.E  .W b z 9 =.=.=.=.=.=.U W I Z d p Z P G =.=.=.=.=.=.=.=.=.=.=.=.=.=.=.=.=.=.",
"=.=.=.=.=.=.=.=.=.=.=.S / U x C p # =.=.=.=.=.G E W Z z y b S P A =.=.=.=.=.=.=.=.=.=.=.=.=.=.=.=.=.",
"=.=.=.=.=.=.=.=.=.=.=.=.u p d Z z 5 =.=.=.=.=.=.=.=.5 y p i p d x z 5 =.=.=.=.=.=.=.=.=.=.=.=.=.=.=.",
"=.=.=.=.=.=.=.=.=.=.=.=.y c b b z 4 =.=.=.=.=.=.=.=.=.9 k j u u u u 7 @ =.=.=.=.=.=.=.=.=.=.=.=.=.=.",
"=.=.=.=.=.=.=.=.=.=.=.=.n I Z z p 2 =.=.=.=.=.=.=.=.=.=.& t z d y t t 5 =.=.=.=.=.=.=.=.=.=.=.=.=.=.",
"=.=.=.=.=.=.=.=.=.=.=.=.=.Q L c 7 =.=.=.=.=.=.=.=.=.=.=.=.=.i p d p p p 7 =.=.=.=.=.=.=.=.=.=.=.=.=.",
"=.=.=.=.=.=.=.=.=.=.=.=.=.Q U b 7 =.=.=.=.=.=.=.=.=.=.=.=.=.=.=.i G S c z y % =.=.=.=.=.=.=.=.=.=.=.",
"=.=.=.=.=.=.=.=.=.=.=.=.=.Q R n 7 =.=.=.=.=.=.=.=.=.=.=.=.=.=.=.W ( U b s 7 =.=.=.=.=.=.=.=.=.=.=.=.",
"=.=.=.=.=.=.=.=.=.=.=.=.' ' ~ n t % =.=.=.=.=.=.=.=.=.=.=.=.=.=._ ( Z d 7 =.=.=.=.=.=.=.=.=.=.=.=.=.",
"=.=.=.=.=.=.=.=.@.@.@.+.X.{ E A s 5 =.=.=.=.=.=.=.=.=.=.=.=.` ~ W Z p 2 =.=.=.=.=.=.=.=.=.=.=.=.=.=.",
"=.=.=.=.=.=.=./ ) ) ) / Q G n c s 2 =.=.=.=.=.=.=.=.=.=.n D F Z c p 4 =.=.=.=.=.=.=.=.=.=.=.=.=.=.=."
};
