/* XPM */
static char *result[] = {
/* columns rows colors chars-per-pixel */
"50 50 92 1 ",
"  c #6A3F15",
". c #7F3F28",
"X c #75461D",
"o c #744321",
"O c #7A4625",
"+ c #7D4C25",
"@ c #7E4D2A",
"# c #84362C",
"$ c #803929",
"% c #8C3131",
"& c #AD3B3A",
"* c #925917",
"= c #92591A",
"- c #804F29",
"; c #815326",
": c #84532A",
"> c #88552C",
", c #8B5A2D",
"< c #905F2F",
"1 c #895534",
"2 c #8E5C31",
"3 c #905F34",
"4 c #985138",
"5 c #AE423D",
"6 c #946333",
"7 c #986736",
"8 c #996837",
"9 c #96653B",
"0 c #9C6B3B",
"q c #AC732C",
"w c #A06F3D",
"e c #A1703F",
"r c #B47B33",
"t c #B17939",
"y c #BD5D55",
"u c #9E6D40",
"i c #9E6D49",
"p c #A06F41",
"a c #A47443",
"s c #A87745",
"d c #A97847",
"f c #A67548",
"g c #AC7B4A",
"h c #B07F4D",
"j c #BD6955",
"k c #A87754",
"l c #AE7D52",
"z c #BA8139",
"x c #B1804F",
"c c #B58453",
"v c #B88756",
"b c #BA8957",
"n c #B68558",
"m c #B98758",
"M c #BC8B5B",
"N c #B78665",
"B c #BE8D61",
"V c #BD8D6C",
"C c #C08F5E",
"Z c #CA9350",
"A c #C1905F",
"S c #C18E62",
"D c #C39263",
"F c #C69569",
"G c #CB9A6D",
"H c #C99770",
"J c #C79C76",
"K c #CE9C74",
"L c #CE9E7A",
"P c #D09F76",
"I c #D2937A",
"U c #D09E79",
"Y c #D4A37D",
"T c #DD9E83",
"R c #D6A483",
"E c #DAA783",
"W c #D9A983",
"Q c #DDAC8B",
"! c #E0AF8E",
"~ c #E2B18D",
"^ c #E5B493",
"/ c #E8B795",
"( c #E6B994",
") c #E9B995",
"_ c #EDBB9A",
"` c #F2C09F",
"' c #F5C4A2",
"] c #F4C8A8",
"[ c #F9CBAA",
"{ c #F9D3B3",
"} c #FFDBBA",
"| c None",
/* pixels */
"||||||||||||||||||||||||||||||||||||||||||||||||||",
"||||||||||||||||||||||||||||||||||||||||||||||||||",
"||||||||||||||||||||||||||||||||||||||||||||||||||",
"||||||||||||||||||||||||||||||||||||||||||||||||||",
"||||||||||||||||||||||||||||||||||||||||||||||||||",
"||||||||||||||||||||||||||||||||||||||||||||||||||",
"||||||||||||||||||||||||||||||||||||||||||||||||||",
"||||||||||||||||||||||||||||||||||||||||||||||||||",
"||||||||||||||||||||||||||||||||||||||||||||||||||",
"||||||||||||||||||||||||||||||||||||||||||||||||||",
"||||||||||||||||||||||||||||||||||||||||||||||||||",
"||||||||||||||||||||||||||||||||||||||||||||||||||",
"||||||||||||||||||||rqzq||||||||||||||||||||||||||",
"||||||||||||||||||||LWZt*|||||||||||||||||||||||||",
"||||||||||||||||||||VJSF=|||||||||||||||||||||||||",
"||||||||||||||||||||xB6@+|||||||||||||||||||||||||",
"|||||||||||||||||||||gpY^!M8;|||||||||||||||||||||",
"||||||||||||||||||||WBK{}[Qv8+||||||||||||||||||||",
"|||||||||||||||||||__Hv(`)Yva:||||||||||||||||||||",
"||||||||||||||||||_'Rf6xABbd0,o|||||||||||||||||||",
"|||||||||||||||||vKs+@ XaYFexx0+||||||||||||||||||",
"|||||||||||||||||8w9VUg+aYQFxxd>||||||||||||||||||",
"||||||||||||||||||vlKBce0PQKxxd,O|||||||||||||||||",
"||||||||||||||||||ggFFcg;;sa0xc6;|||||||||||||||||",
"||||||||||||||||||7ddxMl>okvxcx7+|||||||||||||||||",
"||||||||||||||||||0xsxl6@N]~Aga0O|||||||||||||||||",
"||||||||||||||||||0eege+9()Gvgx>o|||||||||||||||||",
"||||||||||||||||||&&&5jIYFvs0>+|||||||||||||||||||",
"||||||||||||||||||&yIT/RMd7>O|||||||||||||||||||||",
"||||||||||||||||||yE[]^m02.#%|||||||||||||||||||||",
"||||||||||||||||||41af312<,O$|||||||||||||||||||||",
"||||||||||||||||||spi:ua066;o|||||||||||||||||||||",
"|||||||||||||||||fxgQ)Yve86;||||||||||||||||||||||",
"|||||||||||||||||dbg/'!De07;||||||||||||||||||||||",
"|||||||||||||||||bCaHQUDw08;||||||||||||||||||||||",
"|||||||||||||||||bD0cDDc80,O||||||||||||||||||||||",
"|||||||||||||||||bD60gga77,|||||||||||||||||||||||",
"|||||||||||||||||bD86MKh06,|||||||||||||||||||||||",
"|||||||||||||||||gv92DYAae6;||||||||||||||||||||||",
"|||||||||||||||||ag81hCx0we6O|||||||||||||||||||||",
"||||||||||||||||||00:6fwsha0,|||||||||||||||||||||",
"||||||||||||||||||||88;gHRDg<o||||||||||||||||||||",
"|||||||||||||||||||||8+aHRDd3o||||||||||||||||||||",
"||||||||||||||||||||||:uHRDd:|||||||||||||||||||||",
"||||||||||||||||||||||>:BYDeO|||||||||||||||||||||",
"|||||||||||||||||||||||@nPDe-|||||||||||||||||||||",
"|||||||||||||||||||||||:FYDe-6||||||||||||||||||||",
"|||||||||||||||||||||||N^WDe+6||||||||||||||||||||",
"||||||||||||||||||||W^^^^QKeO|||||||||||||||||||||",
"|||||||||||||||||KYWEWWWYPM8o|||||||||||||||||||||"
};
