/* XPM */
static char *result[] = {
/* columns rows colors chars-per-pixel */
"50 50 98 2 ",
"   c #592E07",
".  c #5E2A0A",
"X  c #60330E",
"o  c #6E2D17",
"O  c #712E1B",
"+  c #673312",
"@  c #7D3E27",
"#  c #6F4119",
"$  c #71411C",
"%  c #744321",
"&  c #7C4B25",
"*  c #812F28",
"=  c #8C3131",
"-  c #983B30",
";  c #894F0B",
":  c #8D5310",
">  c #975E1A",
",  c #804F27",
"<  c #814F29",
"1  c #805226",
"2  c #84532A",
"3  c #89562C",
"4  c #8B5A2D",
"5  c #905F2F",
"6  c #914C31",
"7  c #855732",
"8  c #875A31",
"9  c #8C5B31",
"0  c #905E33",
"q  c #9C6323",
"w  c #91602F",
"e  c #946333",
"r  c #986735",
"t  c #996836",
"y  c #96653A",
"u  c #9D6C3B",
"i  c #AF762E",
"p  c #A06F3E",
"a  c #A1703F",
"s  c #AA733E",
"d  c #B37A32",
"f  c #AD5C46",
"g  c #9B6B45",
"h  c #9E6D49",
"j  c #A06F40",
"k  c #A47342",
"l  c #A87745",
"z  c #A97847",
"x  c #A6754A",
"c  c #AD7C4A",
"v  c #B07F4D",
"b  c #A77654",
"n  c #B17F50",
"m  c #BC833F",
"M  c #B2814F",
"N  c #B48352",
"B  c #B88755",
"V  c #B98857",
"C  c #B68558",
"Z  c #B8875C",
"A  c #BC8B5B",
"S  c #BD8D62",
"D  c #C18F5E",
"F  c #C18F63",
"G  c #C39264",
"H  c #C89767",
"J  c #C5946B",
"K  c #C8976D",
"L  c #CA986D",
"P  c #C79672",
"I  c #C89776",
"U  c #CD9B72",
"Y  c #CE9D78",
"T  c #D19E79",
"R  c #D3A167",
"E  c #D1A074",
"W  c #D4A27C",
"Q  c #D6A581",
"!  c #DAA682",
"~  c #DBAA85",
"^  c #DDAD8B",
"/  c #DDB38B",
"(  c #E0AF8E",
")  c #E3B18F",
"_  c #E5B392",
"`  c #E8B694",
"'  c #E9B896",
"]  c #ECBB9A",
"[  c #F1BF9D",
"{  c #F2C09F",
"}  c #F4C4A2",
"|  c #F8C6A5",
" . c #F5C8A6",
".. c #F3CFAA",
"X. c #FACBAA",
"o. c #FDD6B6",
"O. c #FFDDBC",
"+. c None",
/* pixels */
"+.+.+.+.+.+.+.+.+.+.+.+.+.+.+.+.+.+.+.+.+.+.+.+.+.+.+.+.+.+.+.+.+.+.+.+.+.+.+.+.+.+.+.+.+.+.+.+.+.+.",
"+.+.+.+.+.+.+.+.+.+.+.+.+.+.+.+.+.+.+.+.+.+.+.+.+.+.+.+.+.+.+.+.+.+.+.+.+.+.+.+.+.+.+.+.+.+.+.+.+.+.",
"+.+.+.+.+.+.+.+.+.+.+.+.+.+.+.+.+.+.+.+.+.+.+.+.+.+.+.+.+.+.+.+.+.+.+.+.+.+.+.+.+.+.+.+.+.+.+.+.+.+.",
"+.+.+.+.+.+.+.+.+.+.+.+.+.+.+.+.+.+.+.+.+.+.+.+.+.+.+.+.+.+.+.+.+.+.+.+.+.+.+.+.+.+.+.+.+.+.+.+.+.+.",
"+.+.+.+.+.+.+.+.+.+.+.+.+.+.+.+.+.+.+.+.+.+.+.+.+.+.+.+.+.+.+.+.+.+.+.+.+.+.+.+.+.+.+.+.+.+.+.+.+.+.",
"+.+.+.+.+.+.+.+.+.+.+.+.+.+.+.+.+.+.+.+.+.+.+.+.+.+.+.+.+.+.+.+.+.+.+.+.+.+.+.+.+.+.+.+.+.+.+.+.+.+.",
"+.+.+.+.+.+.+.+.+.+.+.+.+.+.+.+.+.+.+.+.+.+.+.+.+.+.+.+.+.+.+.+.+.+.+.+.+.+.+.+.+.+.+.+.+.+.+.+.+.+.",
"+.+.+.+.+.+.+.+.+.+.+.+.+.+.+.+.+.+.+.+.+.+.+.+.+.+.+.+.+.+.+.+.+.+.+.+.+.+.+.+.+.+.+.+.+.+.+.+.+.+.",
"+.+.+.+.+.+.+.+.+.+.+.+.+.+.+.+.+.+.+.+.+.+.+.+.+.+.+.+.+.+.+.+.+.+.+.+.+.+.+.+.+.+.+.+.+.+.+.+.+.+.",
"+.+.+.+.+.+.+.+.+.+.+.+.+.+.+.+.+.+.+.+.+.+.+.+.+.+.+.+.+.+.+.+.+.+.+.+.+.+.+.+.+.+.+.+.+.+.+.+.+.+.",
"+.+.+.+.+.+.+.+.+.+.+.+.+.+.+.+.+.+.+.+.+.+.+.+.+.+.+.+.+.+.+.+.+.+.+.+.+.+.+.+.+.+.+.+.+.+.+.+.+.+.",
"+.+.+.+.+.+.+.+.+.+.+.+.+.+.+.+.+.+.+.+.+.+.+.+.+.+.+.+.+.+.+.+.+.+.+.+.+.+.+.+.+.+.+.+.+.+.+.+.+.+.",
"+.+.+.+.+.+.+.+.+.+.+.+.+.+.+.+.+.+.+.+.+.i d m > +.+.+.+.+.+.+.+.+.+.+.+.+.+.+.+.+.+.+.+.+.+.+.+.+.",
"+.+.+.+.+.+.+.+.+.+.+.+.+.+.+.+.+.+.+.+.+.^ R m q : +.+.+.+.+.+.+.+.+.+.+.+.+.+.+.+.+.+.+.+.+.+.+.+.",
"+.+.+.+.+.+.+.+.+.+.+.+.+.+.+.+.+.+.+.+.I S I D s ; +.+.+.+.+.+.+.+.+.+.+.+.+.+.+.+.+.+.+.+.+.+.+.+.",
"+.+.+.+.+.+.+.+.+.+.+.+.+.+.+.+.+.+.+.+.g J x 2 2 +.+.+.+.+.+.+.+.+.+.+.+.+.+.+.+.+.+.+.+.+.+.+.+.+.",
"+.+.+.+.+.+.+.+.+.+.+.+.+.+.+.+.+.+.+.+.+.a k Q / W V 0 +.+.+.+.+.+.+.+.+.+.+.+.+.+.+.+.+.+.+.+.+.+.",
"+.+.+.+.+.+.+.+.+.+.+.+.+.+.+.+.+.+.+.+.L M ~ O.o.} E c 2 +.+.+.+.+.+.+.+.+.+.+.+.+.+.+.+.+.+.+.+.+.",
"+.+.+.+.+.+.+.+.+.+.+.+.+.+.+.+.+.+.+.` Y j H  .{ ` U v 2 +.+.+.+.+.+.+.+.+.+.+.+.+.+.+.+.+.+.+.+.+.",
"+.+.+.+.+.+.+.+.+.+.+.+.+.+.+.+.+.+.W ' P 2 g D H G V k 4 % +.+.+.+.+.+.+.+.+.+.+.+.+.+.+.+.+.+.+.+.",
"+.+.+.+.+.+.+.+.+.+.+.+.+.+.+.+.+.N K k & X $ a W T c u B k 2 +.+.+.+.+.+.+.+.+.+.+.+.+.+.+.+.+.+.+.",
"+.+.+.+.+.+.+.+.+.+.+.+.+.+.+.+.+.e p 2 h 8 & k ) ` K l N M 8 % +.+.+.+.+.+.+.+.+.+.+.+.+.+.+.+.+.+.",
"+.+.+.+.+.+.+.+.+.+.+.+.+.+.+.+.+.+.B z K v w t ~ _ U N N V t & +.+.+.+.+.+.+.+.+.+.+.+.+.+.+.+.+.+.",
"+.+.+.+.+.+.+.+.+.+.+.+.+.+.+.+.+.+.u z C W c 2 u A c a c A z 2 % +.+.+.+.+.+.+.+.+.+.+.+.+.+.+.+.+.",
"+.+.+.+.+.+.+.+.+.+.+.+.+.+.+.+.+.+.e c c v k 4 7 Z Z l v A z < % +.+.+.+.+.+.+.+.+.+.+.+.+.+.+.+.+.",
"+.+.+.+.+.+.+.+.+.+.+.+.+.+.+.+.+.+.+.k k l x x ^ [ ~ G F k r & @ +.+.+.+.+.+.+.+.+.+.+.+.+.+.+.+.+.",
"+.+.+.+.+.+.+.+.+.+.+.+.+.+.+.+.+.+.+.l z l F W ^ U G L B M 2 # +.+.+.+.+.+.+.+.+.+.+.+.+.+.+.+.+.+.",
"+.+.+.+.+.+.+.+.+.+.+.+.+.+.+.+.+.O. .` ' [ ~ U F v r 5 1 #   +.+.+.+.+.+.+.+.+.+.+.+.+.+.+.+.+.+.+.",
"+.+.+.+.+.+.+.+.+.+.+.+.+.+.+.+.g ..X.| ' T S Z y 2 $ + o . +.+.+.+.+.+.+.+.+.+.+.+.+.+.+.+.+.+.+.+.",
"+.+.+.+.+.+.+.+.+.+.+.+.+.+.+.+.9 /  .{ L x < % + X O * = +.+.+.+.+.+.+.+.+.+.+.+.+.+.+.+.+.+.+.+.+.",
"+.+.+.+.+.+.+.+.+.+.+.+.+.+.+.+.+.l 2 6 - f T L c r w 3 @ +.+.+.+.+.+.+.+.+.+.+.+.+.+.+.+.+.+.+.+.+.",
"+.+.+.+.+.+.+.+.+.+.+.+.+.+.+.+.+.K z 3 f ! ] W M w u e 2 +.+.+.+.+.+.+.+.+.+.+.+.+.+.+.+.+.+.+.+.+.",
"+.+.+.+.+.+.+.+.+.+.+.+.+.+.+.+.W W C j f ( } ~ M w p p 2 % +.+.+.+.+.+.+.+.+.+.+.+.+.+.+.+.+.+.+.+.",
"+.+.+.+.+.+.+.+.+.+.+.+.+.+.+.W ) U N k 3 W } ~ N p u a w & +.+.+.+.+.+.+.+.+.+.+.+.+.+.+.+.+.+.+.+.",
"+.+.+.+.+.+.+.+.+.+.+.+.+.+.U ( ( F n A y b { ] L s r a e 4 +.+.+.+.+.+.+.+.+.+.+.+.+.+.+.+.+.+.+.+.",
"+.+.+.+.+.+.+.+.+.+.+.+.+.+.U / W V M A k x ) { U l t u e 4 % +.+.+.+.+.+.+.+.+.+.+.+.+.+.+.+.+.+.+.",
"+.+.+.+.+.+.+.+.+.+.+.+.+.N A W L A z k w 2 P ` E z t u r 4 +.+.+.+.+.+.+.+.+.+.+.+.+.+.+.+.+.+.+.+.",
"+.+.+.+.+.+.+.+.+.+.+.+.+.l z V G N u e & +.x Z F F z r w & +.+.+.+.+.+.+.+.+.+.+.+.+.+.+.+.+.+.+.+.",
"+.+.+.+.+.+.+.+.+.+.+.+.+.Y T c p e & +.+.+.+.+.) _ L M u a l u 4 & +.+.+.+.+.+.+.+.+.+.+.+.+.+.+.+.",
"+.+.+.+.+.+.+.+.+.+.+.+.+.A J l e 4 +.+.+.+.+.+.Z L G M p c B v k 9 +.+.+.+.+.+.+.+.+.+.+.+.+.+.+.+.",
"+.+.+.+.+.+.+.+.+.+.+.+.+.z c u a l u +.+.+.+.+.u c v a r k n N v u , +.+.+.+.+.+.+.+.+.+.+.+.+.+.+.",
"+.+.+.+.+.+.+.+.+.+.+.+.+.k p V H A a e +.+.+.+.+.+.+.& 9 c k k k a e , +.+.+.+.+.+.+.+.+.+.+.+.+.+.",
"+.+.+.+.+.+.+.+.+.+.+.+.+.l c V G A a +.+.+.+.+.+.+.+.+.% 0 c z u u w 4 % +.+.+.+.+.+.+.+.+.+.+.+.+.",
"+.+.+.+.+.+.+.+.+.+.+.+.+.+.M M D N s +.+.+.+.+.+.+.+.+.+.+.e v M l p u 4 % +.+.+.+.+.+.+.+.+.+.+.+.",
"+.+.+.+.+.+.+.+.+.+.+.+.+.+.M c M M a +.+.+.+.+.+.+.+.+.+.+.+.0 v N c a a 9 % +.+.+.+.+.+.+.+.+.+.+.",
"+.+.+.+.+.+.+.+.+.+.+.+.+.+.z M a e w +.+.+.+.+.+.+.+.+.+.+.+.+.+.t M z k k p e & +.+.+.+.+.+.+.+.+.",
"+.+.+.+.+.+.+.+.+.+.+.+.+.+.z N a e e +.+.+.+.+.+.+.+.+.+.+.+.+.+.u A S c z k 4 & +.+.+.+.+.+.+.+.+.",
"+.+.+.+.+.+.+.+.+.+.+.+.+.N S A a e e +.+.+.+.+.+.+.+.+.+.+.+.+.+.Z ~ ~ G c p 2 +.+.+.+.+.+.+.+.+.+.",
"+.+.+.+.+.+.+.+.D K W E Q L S M l k e e +.+.+.+.+.+.+.+.+.+.+.W ^ ' ( K k 4 +.+.+.+.+.+.+.+.+.+.+.+.",
"+.+.+.+.+.+.+.k M F G J S n k y 0 e e +.+.+.+.+.+.+.+.+.+.+.G W ^ ~ J k 3 +.+.+.+.+.+.+.+.+.+.+.+.+."
};
