/* XPM */
static char *result[] = {
/* columns rows colors chars-per-pixel */
"50 50 89 1 ",
"  c #653812",
". c #7E3A28",
"X c #73481E",
"o c #754422",
"O c #7B4525",
"+ c #7D4C25",
"@ c #7E4D29",
"# c #84372C",
"$ c #8B3131",
"% c #AD3C3A",
"& c #8C520F",
"* c #975D1D",
"= c #804F27",
"- c #824F2A",
"; c #8B4E2F",
": c #815126",
"> c #85542B",
", c #88572D",
"< c #8C5B2E",
"1 c #855431",
"2 c #8B5A30",
"3 c #935C33",
"4 c #9D5A3C",
"5 c #9D652B",
"6 c #946332",
"7 c #986735",
"8 c #996836",
"9 c #96653A",
"0 c #9C6C3B",
"q c #AD732C",
"w c #A06F3E",
"e c #A1713F",
"r c #B37A33",
"t c #B64C48",
"y c #B85F4E",
"u c #9E6E41",
"i c #9E6E4C",
"p c #A06F40",
"a c #A57443",
"s c #A87746",
"d c #A97847",
"f c #A4734E",
"g c #A87749",
"h c #AC7B4B",
"j c #B07F4D",
"k c #AE7D54",
"l c #AB7A5A",
"z c #B8803E",
"x c #B1804F",
"c c #B48353",
"v c #B98857",
"b c #B68559",
"n c #BB8A5A",
"m c #B48362",
"M c #BC8B60",
"N c #C08F5E",
"B c #CF9B5D",
"V c #C08F62",
"C c #CB826C",
"Z c #C49364",
"A c #C6956A",
"S c #C8976C",
"D c #CA996E",
"F c #D08873",
"G c #C59473",
"H c #C89770",
"J c #CD9C73",
"K c #CD9B79",
"L c #D09F77",
"P c #D09F7A",
"I c #D1A273",
"U c #D3A17C",
"Y c #D8A67F",
"T c #D5A482",
"R c #D8A780",
"E c #D6AC84",
"W c #DBAA83",
"Q c #DDAC8B",
"! c #E1AF8F",
"~ c #E6B593",
"^ c #E8B694",
"/ c #EBB996",
"( c #ECBB99",
") c #F2C3A2",
"_ c #F8C8A6",
"` c #F4CBA9",
"' c #FACDAC",
"] c #FFDDBC",
"[ c None",
/* pixels */
"[[[[[[[[[[[[[[[[[[[[[[[[[[[[[[[[[[[[[[[[[[[[[[[[[[",
"[[[[[[[[[[[[[[[[[[[[[[[[[[[[[[[[[[[[[[[[[[[[[[[[[[",
"[[[[[[[[[[[[[[[[[[[[[[[[[[[[[[[[[[[[[[[[[[[[[[[[[[",
"[[[[[[[[[[[[[[[[[[[[[[[[[[[[[[[[[[[[[[[[[[[[[[[[[[",
"[[[[[[[[[[[[[[[[[[[[[[[[[[[[[[[[[[[[[[[[[[[[[[[[[[",
"[[[[[[[[[[[[[[[[[[[[[[[[[[[[[[[[[[[[[[[[[[[[[[[[[[",
"[[[[[[[[[[[[[[[[[[[[[[[[[[[[[[[[[[[[[[[[[[[[[[[[[[",
"[[[[[[[[[[[[[[[[[[[[[[[[[[[[[[[[[[[[[[[[[[[[[[[[[[",
"[[[[[[[[[[[[[[[[[[[[[[[[[[[[[[[[[[[[[[[[[[[[[[[[[[",
"[[[[[[[[[[[[[[[[[[[[[[[[[[[[[[[[[[[[[[[[[[[[[[[[[[",
"[[[[[[[[[[[[[[[[[[[[[[[[[[[[[[[[[[[[[[[[[[[[[[[[[[",
"[[[[[[[[[[[[[[[[[[[[[[[[[[[[[[[[[[[[[[[[[[[[[[[[[[",
"[[[[[[[[[[[[[[[[[[[[[[qrr[[[[[[[[[[[[[[[[[[[[[[[[[",
"[[[[[[[[[[[[[[[[[[[[[[EBz*&[[[[[[[[[[[[[[[[[[[[[[[",
"[[[[[[[[[[[[[[[[[[[[[GASZ5[[[[[[[[[[[[[[[[[[[[[[[[",
"[[[[[[[[[[[[[[[[[[[[[iZu@+[[[[[[[[[[[[[[[[[[[[[[[[",
"[[[[[[[[[[[[[[[[[[[[[[[uG~!Z0>[[[[[[[[[[[[[[[[[[[[",
"[[[[[[[[[[[[[[[[[[[[[QAZ`]'~v0:[[[[[[[[[[[[[[[[[[[",
"[[[[[[[[[[[[[[[[[[[[/(TbW)/Rns,[[[[[[[[[[[[[[[[[[[",
"[[[[[[[[[[[[[[[[[[[/)!c6dNNnh0<o[[[[[[[[[[[[[[[[[[",
"[[[[[[[[[[[[[[[[[[hSb,@X 8JAaxx0+[[[[[[[[[[[[[[[[[",
"[[[[[[[[[[[[[[[[[[7e6mKb+7U!Scxs,[[[[[[[[[[[[[[[[[",
"[[[[[[[[[[[[[[[[[[[vhGAva7SQLchd<O[[[[[[[[[[[[[[[[",
"[[[[[[[[[[[[[[[[[[[ahbJvj2+aa0xc7+[[[[[[[[[[[[[[[[",
"[[[[[[[[[[[[[[[[[[[<ssjvc2Xivxcx7:[[[[[[[[[[[[[[[[",
"[[[[[[[[[[[[[[[[[[[[hddc0@l)^Zha0+[[[[[[[[[[[[[[[[",
"[[[[[[[[[[[[[[[[[[[[eeda-1Q(Dvhx<o[[[[[[[[[[[[[[[[",
"[[[[[[[[[[[[[[[[[[[[%%%yFTDvh0<+[[[[[[[[[[[[[[[[[[",
"[[[[[[[[[[[[[[[[[[[[tFP^!Mh9,O[[[[[[[[[[[[[[[[[[[[",
"[[[[[[[[[[[[[[[[[[[[C`_(Vw6O#$[[[[[[[[[[[[[[[[[[[[",
"[[[[[[[[[[[[[[[[[[[4;0g9><6<+.[[[[[[[[[[[[[[[[[[[[",
"[[[[[[[[[[[[[[[[[[[swf19g076,X[[[[[[[[[[[[[[[[[[[[",
"[[[[[[[[[[[[[[[[[[[jaU^Qna87:[[[[[[[[[[[[[[[[[[[[[",
"[[[[[[[[[[[[[[[[[[svhT_^Hs87,[[[[[[[[[[[[[[[[[[[[[",
"[[[[[[[[[[[[[[[[[[jZdM!RDs88,[[[[[[[[[[[[[[[[[[[[[",
"[[[[[[[[[[[[[[[[[[jZdsZZv006O[[[[[[[[[[[[[[[[[[[[[",
"[[[[[[[[[[[[[[[[[[jZp6shs87<o[[[[[[[[[[[[[[[[[[[[[",
"[[[[[[[[[[[[[[[[[[jZg<kIc072o[[[[[[[[[[[[[[[[[[[[[",
"[[[[[[[[[[[[[[[[[[scd>bUZda7:[[[[[[[[[[[[[[[[[[[[[",
"[[[[[[[[[[[[[[[[[[[sa,dnb00w7+[[[[[[[[[[[[[[[[[[[[",
"[[[[[[[[[[[[[[[[[[[0w<<a0sjs0<[[[[[[[[[[[[[[[[[[[[",
"[[[[[[[[[[[[[[[[[[[[[60:aZRSh6o[[[[[[[[[[[[[[[[[[[",
"[[[[[[[[[[[[[[[[[[[[[[8-9ATAh6o[[[[[[[[[[[[[[[[[[[",
"[[[[[[[[[[[[[[[[[[[[[[[,9ZTAd<[[[[[[[[[[[[[[[[[[[[",
"[[[[[[[[[[[[[[[[[[[[[[[<@kTZs=[[[[[[[[[[[[[[[[[[[[",
"[[[[[[[[[[[[[[[[[[[[[[[[ohHSa=[[[[[[[[[[[[[[[[[[[[",
"[[[[[[[[[[[[[[[[[[[[[[[[oMUSa=3[[[[[[[[[[[[[[[[[[[",
"[[[[[[[[[[[[[[[[[[[[[[[[lQQSa=6[[[[[[[[[[[[[[[[[[[",
"[[[[[[[[[[[[[[[[[[[[[Q!~^^QPd+[[[[[[[[[[[[[[[[[[[[",
"[[[[[[[[[[[[[[[[[[[UYYRRRRUZ0O[[[[[[[[[[[[[[[[[[[["
};
